<?xml version="1.0" encoding="utf-8"?>
<svg xmlns="http://www.w3.org/2000/svg" viewBox="7.204 168.08 498.799 261.086">
  <g id="svg2" style="" transform="matrix(0.273098, 0, 0, 0.310301, 190.347061, 203.136856)">
    <path d="M 1006.58 711.471 C 1005.3 710.543 1005.32 709.583 1006.71 706.774 C 1008.37 703.381 1008.64 703.243 1013.45 703.243 C 1016.36 703.243 1018.13 703.562 1017.68 704.003 C 1017.25 704.421 1018.53 705.003 1020.54 705.297 C 1024.58 705.891 1026.08 706.869 1026.11 708.918 C 1026.13 709.831 1025.13 710.288 1023.12 710.288 C 1021.47 710.288 1018.97 710.805 1017.58 711.437 C 1014.29 712.932 1008.63 712.949 1006.58 711.471 Z M 967.618 701.758 C 966.158 701.204 966.118 700.557 967.418 698.204 C 968.838 695.608 969.398 695.35 973.108 695.566 C 976.888 695.787 977.208 696.023 977.008 698.457 C 976.728 702.007 972.328 703.551 967.618 701.758 Z M 1016.12 701.115 C 1013.84 700.944 1011.28 700.296 1010.42 699.675 C 1009.56 699.054 1007.76 698.546 1006.41 698.546 C 1005.06 698.546 1003.96 698.235 1003.96 697.854 C 1003.96 697.474 1002.85 696.989 1001.49 696.775 C 1000.03 696.546 998.658 695.391 998.128 693.944 C 997.638 692.6 996.728 691.501 996.118 691.501 C 995.508 691.501 994.678 690.881 994.278 690.124 C 993.878 689.367 992.228 688.398 990.598 687.971 C 988.508 687.421 986.928 685.775 985.148 682.303 C 983.768 679.612 981.928 677.41 981.058 677.41 C 978.658 677.41 975.138 672.319 973.538 666.537 C 972.748 663.691 971.498 661.112 970.748 660.804 C 969.978 660.485 969.398 657.091 969.398 652.9 C 969.398 647.652 968.858 645.166 967.508 644.194 C 966.478 643.445 965.228 640.78 964.738 638.271 C 964.138 635.231 962.898 633.104 961.028 631.895 C 958.228 630.091 957.818 629.406 956.428 624.17 C 955.988 622.506 954.418 620.839 952.438 619.951 C 948.028 617.96 946.728 614.496 946.288 603.506 C 946.018 596.583 946.338 594.098 947.548 593.852 C 948.448 593.67 949.178 593.063 949.178 592.503 C 949.178 591.943 950.348 591.302 951.778 591.078 C 954.878 590.591 956.998 587.573 957.018 583.619 C 957.038 579.659 960.228 572.822 962.748 571.306 C 963.898 570.618 964.828 569.607 964.828 569.058 C 964.828 566.99 969.958 565.287 977.168 564.962 C 981.618 564.761 984.398 564.947 984.398 565.445 C 984.398 565.932 988.438 566.253 994.568 566.253 C 1000.47 566.253 1005.37 566.629 1006.24 567.149 C 1007.36 567.822 1007.95 567.513 1008.62 565.91 C 1009.33 564.208 1010.07 563.865 1012.28 564.221 C 1013.8 564.466 1015.78 564.671 1016.68 564.677 C 1017.61 564.683 1018.31 565.678 1018.31 567 C 1018.31 568.966 1023.28 573.298 1025.54 573.298 C 1025.87 573.298 1027.31 574.003 1028.74 574.864 C 1030.18 575.725 1032.78 576.429 1034.53 576.429 C 1036.28 576.429 1038.08 576.782 1038.52 577.212 C 1038.97 577.643 1041.94 577.995 1045.12 577.995 C 1048.31 577.995 1050.91 577.643 1050.91 577.212 C 1050.91 576.782 1051.81 576.429 1052.9 576.429 C 1053.99 576.429 1055.53 575.568 1056.33 574.516 C 1057.13 573.463 1058.63 572.407 1059.66 572.169 C 1062.02 571.626 1065.27 573.512 1065.22 575.395 C 1065.17 577.148 1062.25 579.561 1060.19 579.561 C 1059.35 579.561 1056.86 580.792 1054.66 582.298 C 1052.45 583.803 1050.12 584.839 1049.48 584.6 C 1048.83 584.361 1048.3 584.983 1048.3 585.983 C 1048.3 587.117 1049.41 588.091 1051.24 588.573 C 1053.4 589.141 1054.28 590.123 1054.58 592.281 C 1054.97 595.118 1057.51 596.256 1059.39 594.434 C 1059.83 594.003 1061.04 593.651 1062.08 593.651 C 1064.59 593.651 1064.5 598.238 1061.96 600.259 C 1058.91 602.674 1059.69 609.307 1063.01 609.307 C 1063.78 609.307 1065.42 608.753 1066.67 608.076 C 1069.99 606.275 1080.73 606.18 1082.37 607.937 C 1083.76 609.427 1087.43 609.819 1087.43 608.478 C 1087.43 608.022 1088.02 607.867 1088.74 608.133 C 1089.45 608.399 1090.04 608.244 1090.04 607.788 C 1090.04 607.332 1091.26 606.959 1092.74 606.959 C 1095.63 606.959 1099.17 605.265 1099.17 603.883 C 1099.17 603.422 1100.34 603.045 1101.78 603.045 C 1103.76 603.045 1104.39 603.566 1104.39 605.219 C 1104.39 606.415 1103.57 608.088 1102.56 608.937 C 1099.47 611.562 1090.21 617.135 1088.95 617.135 C 1086.84 617.135 1084.55 619.29 1086.06 619.851 C 1086.82 620.13 1087.43 619.986 1087.43 619.53 C 1087.43 619.057 1090.23 618.701 1093.95 618.701 C 1097.54 618.701 1100.47 618.965 1100.46 619.288 C 1100.41 620.964 1098.71 623.397 1097.59 623.397 C 1096.89 623.397 1094.61 624.124 1092.53 625.012 C 1090.45 625.901 1088.16 626.408 1087.44 626.14 C 1086.72 625.873 1086.13 626.308 1086.13 627.109 C 1086.13 627.909 1085.49 628.944 1084.72 629.409 C 1083.73 630.002 1083.71 631.121 1084.64 633.148 C 1085.76 635.572 1085.54 636.5 1083.32 638.874 C 1081.86 640.432 1080.34 643.664 1079.94 646.055 C 1079.54 648.447 1078.79 650.58 1078.28 650.795 C 1077.77 651.011 1076.93 651.988 1076.42 652.968 C 1075.65 654.457 1076.12 654.881 1079.32 655.55 C 1081.42 655.99 1083.92 657.214 1084.86 658.269 C 1085.8 659.325 1087.14 660.189 1087.83 660.189 C 1089.4 660.189 1095.26 663.922 1095.26 664.926 C 1095.26 665.334 1096.19 665.669 1097.32 665.669 C 1098.46 665.669 1099.15 666.109 1098.85 666.647 C 1098.19 667.853 1090.04 668.442 1090.04 667.284 C 1090.04 666.826 1089.21 666.451 1088.2 666.451 C 1087.19 666.451 1084.88 665.395 1083.07 664.103 C 1078.63 660.937 1075.7 661.015 1075.68 664.299 C 1075.64 669.909 1072.99 671.764 1068.71 669.191 C 1067.63 668.545 1066.12 668.017 1065.35 668.017 C 1064.58 668.017 1063.92 667.4 1063.87 666.647 C 1063.71 664.274 1061.62 667.928 1060.68 672.198 C 1060.22 674.283 1059.55 675.809 1059.18 675.59 C 1058.56 675.219 1055.6 676.453 1051.51 678.78 C 1050.57 679.319 1049.24 679.759 1048.55 679.759 C 1047.87 679.759 1046.64 681.351 1045.83 683.297 C 1045.01 685.242 1043.33 687.47 1042.08 688.248 C 1040.84 689.026 1038.36 691.385 1036.57 693.491 C 1034.77 695.598 1031.71 698.301 1029.76 699.499 C 1026.28 701.639 1025.04 701.786 1016.12 701.115 Z M 1076 699.59 C 1073.58 699.004 1071.67 696.493 1072.58 695.08 C 1073.04 694.353 1074.91 693.849 1077.14 693.849 C 1081.1 693.849 1081.69 694.754 1080.09 698.35 C 1079.28 700.154 1078.86 700.281 1076 699.59 Z M 810.278 578.609 C 801.288 575.494 800.478 571.038 808.068 566.478 C 809.728 565.485 811.688 563.618 812.438 562.331 C 813.288 560.874 814.708 559.991 816.198 559.991 C 817.518 559.991 818.968 559.638 819.408 559.208 C 820.888 557.778 836.108 558.304 841.908 559.985 C 846.708 561.376 847.388 561.921 848.148 564.999 C 849.008 568.419 846.778 574.081 844.578 574.081 C 844.008 574.081 843.538 574.556 843.538 575.135 C 843.538 575.715 842.448 576.948 841.108 577.875 C 838.908 579.392 837.378 579.558 825.778 579.537 C 818.488 579.523 811.758 579.121 810.278 578.609 Z M 964.178 541.986 C 963.738 541.556 961.298 541.203 958.768 541.203 C 955.248 541.203 953.988 540.831 953.468 539.638 C 953.078 538.738 951.698 538.072 950.208 538.072 C 948.748 538.072 947.348 537.409 946.958 536.533 C 946.588 535.686 945.228 534.79 943.918 534.541 C 942.328 534.239 941.078 532.78 940.138 530.13 C 938.408 525.305 939.948 521.21 944.618 518.186 C 946.408 517.024 947.878 515.739 947.878 515.331 C 947.878 514.922 949.348 514.588 951.138 514.588 C 952.928 514.588 954.398 514.236 954.398 513.806 C 954.398 513.375 955.568 513.023 957.008 513.023 C 958.438 513.023 959.618 512.67 959.618 512.24 C 959.618 511.809 961.848 511.457 964.568 511.457 C 967.298 511.457 970.308 511.017 971.258 510.479 C 972.638 509.696 973.098 509.696 973.578 510.479 C 973.908 511.017 974.788 511.457 975.528 511.457 C 977.388 511.457 986.718 517.506 987.688 519.347 C 988.128 520.174 989.328 520.851 990.348 520.851 C 991.378 520.851 992.218 521.294 992.218 521.837 C 992.218 522.379 993.458 523.285 994.958 523.85 C 997.818 524.921 997.808 524.736 995.298 533.18 C 994.798 534.881 993.808 535.724 992.308 535.724 C 990.008 535.724 984.398 539.057 984.398 540.427 C 984.398 540.854 983.258 541.203 981.868 541.203 C 980.468 541.203 978.968 541.556 978.528 541.986 C 978.078 542.417 974.858 542.769 971.348 542.769 C 967.848 542.769 964.618 542.417 964.178 541.986 Z M 1038.02 535.013 C 1035.88 534.199 1036.89 530.947 1039.83 529.181 C 1040.9 528.536 1041.78 527.668 1041.78 527.253 C 1041.78 526.838 1042.61 526.308 1043.61 526.076 C 1047.08 525.279 1050.53 526.457 1052.69 529.171 C 1055.51 532.727 1053.89 534.57 1047.38 535.217 C 1040.97 535.852 1040.18 535.834 1038.02 535.013 Z M 1045.63 512.161 C 1043.84 510.154 1044.1 507.088 1046.52 501.919 C 1047.79 499.212 1049.37 497.367 1050.43 497.367 C 1051.41 497.367 1052.22 497.014 1052.22 496.584 C 1052.22 496.153 1054.02 495.801 1056.23 495.801 C 1060.96 495.801 1067.87 499.485 1067.87 502.003 C 1067.87 502.898 1068.46 503.629 1069.17 503.629 C 1069.89 503.629 1070.48 504.51 1070.48 505.586 C 1070.48 507.008 1069.78 507.543 1067.92 507.543 C 1066.09 507.543 1064.94 508.391 1063.87 510.544 L 1062.37 513.545 L 1054.61 513.545 C 1048.53 513.545 1046.59 513.246 1045.63 512.161 Z M 950.298 461.154 C 947.998 460.605 946.308 459.335 945.198 457.323 C 944.288 455.667 943.058 454.313 942.448 454.313 C 941.848 454.313 941.358 453.08 941.358 451.573 C 941.358 450.066 941.948 448.833 942.658 448.833 C 943.378 448.833 943.968 447.424 943.968 445.702 C 943.968 443.441 944.508 442.571 945.918 442.571 C 946.998 442.571 947.878 442.923 947.878 443.354 C 947.878 443.784 949.638 444.136 951.788 444.136 C 955.818 444.136 956.288 443.569 954.878 440.418 C 954.298 439.108 953.128 438.657 950.328 438.657 C 946.988 438.657 946.558 438.373 946.418 436.113 C 946.328 434.714 946.378 433.076 946.518 432.473 C 946.828 431.147 949.808 429.263 951.588 429.263 C 952.298 429.263 953.868 427.481 955.078 425.302 C 957.138 421.586 957.128 421.25 955.058 419.877 C 952.358 418.082 948.098 418.163 946.418 420.041 C 944.008 422.741 938.748 420.756 938.748 417.149 C 938.748 416.457 937.578 415.134 936.138 414.21 C 934.238 412.986 933.528 411.447 933.528 408.55 C 933.528 404.839 933.238 404.474 929.168 403.159 C 925.868 402.093 924.928 401.331 925.318 400.045 C 926.038 397.659 917.348 393.463 914.558 394.852 C 913.078 395.588 912.238 395.581 910.708 394.82 C 907.898 393.419 908.268 390.835 911.358 390.35 C 913.978 389.94 914.958 388.134 912.838 387.644 C 910.918 387.203 909.688 383.861 911.448 383.861 C 914.278 383.861 917.878 380.538 917.878 377.926 C 917.878 374.75 914.968 372.902 909.958 372.902 C 907.858 372.902 906.138 372.554 906.138 372.128 C 906.138 370.909 910.448 368.205 912.398 368.205 C 915.438 368.205 918.068 365.949 917.638 363.707 C 917.228 361.554 917.218 361.551 908.008 361.798 C 901.548 361.971 898.348 361.736 897.348 361.015 C 896.218 360.196 896.898 359.986 900.708 359.986 L 905.488 359.986 L 905.878 355.157 C 906.218 350.872 905.958 350.272 903.588 349.821 C 901.598 349.441 900.928 348.644 900.928 346.671 C 900.928 345.219 900.278 343.791 899.488 343.497 C 898.698 343.204 897.198 341.738 896.158 340.24 C 895.108 338.742 893.558 336.992 892.698 336.352 C 888.038 332.866 883.588 330.631 881.318 330.631 C 879.788 330.631 878.758 330.101 878.758 329.316 C 867.138 308.054 853.718 286.894 841.388 265.658 C 838.998 261.079 838.938 260.52 840.808 260.07 C 843.828 259.343 855.268 260.149 860.038 261.427 C 862.298 262.032 864.798 262.527 865.578 262.527 C 866.368 262.527 867.018 263.408 867.018 264.484 C 867.018 266.05 867.668 266.441 870.278 266.441 C 872.698 266.441 873.538 266.855 873.538 268.059 C 873.538 269.456 876.538 271.518 884.558 275.639 C 885.608 276.177 887.078 276.618 887.828 276.618 C 888.578 276.618 889.188 276.956 889.188 277.369 C 889.188 277.782 891.538 278.542 894.408 279.058 C 897.268 279.574 899.618 280.469 899.618 281.047 C 899.618 281.624 900.668 282.097 901.938 282.097 C 903.218 282.097 905.108 282.802 906.138 283.663 C 908.488 285.617 915.008 285.774 916.198 283.905 C 916.678 283.165 916.368 282.446 915.498 282.273 C 914.648 282.103 914.238 281.682 914.598 281.338 C 914.948 280.994 912.458 280.293 909.058 279.78 C 902.988 278.865 898.318 277.072 898.318 275.657 C 898.318 274.461 894.918 272.811 891.348 272.273 C 889.498 271.994 887.648 271.137 887.238 270.37 C 886.828 269.603 885.348 268.175 883.928 267.197 C 882.408 266.14 881.358 264.277 881.358 262.603 C 881.348 260.567 880.288 259.105 877.498 257.323 C 875.388 255.968 873.278 253.957 872.818 252.854 C 871.518 249.754 869.118 249.004 862.158 249.523 C 858.728 249.779 852.508 250.212 848.328 250.485 C 843.718 250.787 840.448 251.405 840.038 252.058 C 839.658 252.65 838.068 253.134 836.498 253.134 C 834.038 253.134 833.128 252.133 829.908 245.893 C 824.298 238.721 822.478 230.243 815.918 223.387 C 815.328 223.387 814.848 222.703 814.848 221.868 C 814.848 221.032 814.358 220.167 813.758 219.944 C 806.018 251.215 791.438 283.323 784.168 314.583 C 783.118 319.787 781.808 321.237 778.168 321.237 C 775.918 321.237 775.218 321.935 776.048 323.369 C 776.228 323.68 777.778 323.825 779.488 323.69 C 782.078 323.486 782.438 323.69 781.598 324.885 C 781.038 325.677 780.628 326.925 780.678 327.659 C 780.728 328.392 779.548 329.223 778.068 329.506 C 776.118 329.878 775.828 330.188 777.028 330.633 C 778.968 331.353 779.278 337.611 777.408 338.346 C 776.698 338.623 775.778 340.171 775.348 341.786 C 774.758 344.048 775.018 344.721 776.478 344.721 C 777.528 344.721 778.998 345.528 779.748 346.514 C 780.498 347.501 782.388 348.646 783.958 349.058 C 787.428 349.974 788.878 354.897 785.678 354.897 C 784.598 354.897 783.538 355.69 783.308 356.659 C 783.028 357.843 781.838 358.509 779.688 358.692 C 777.918 358.841 775.818 359.501 775.018 360.158 C 773.968 361.017 772.678 361.172 770.408 360.709 C 768.668 360.356 766.798 360.137 766.258 360.222 C 765.728 360.307 765.288 360.025 765.288 359.594 C 765.288 359.164 764.408 358.811 763.328 358.811 C 762.258 358.811 761.368 358.283 761.368 357.637 C 761.368 356.817 759.998 356.463 756.808 356.463 C 753.158 356.463 752.248 356.768 752.248 357.982 C 752.248 358.818 752.858 359.728 753.598 360.005 C 755.938 360.872 750.228 369.12 745.928 371.082 C 743.338 372.262 736.588 372.446 736.588 371.336 C 736.588 370.906 735.418 370.553 733.988 370.553 C 732.548 370.553 731.378 370.176 731.378 369.715 C 731.378 367.825 727.518 366.841 718.288 366.381 C 703.848 365.659 696.698 364.723 694.198 363.226 C 692.478 362.19 691.558 362.093 690.158 362.794 C 687.788 363.972 687.848 365.673 690.288 367.143 C 693.208 368.891 692.668 371.315 688.898 373.411 C 684.098 376.082 685.038 378.53 691.188 379.4 C 695.038 379.944 696.168 380.531 696.828 382.343 C 697.288 383.587 697.288 384.966 696.828 385.407 C 695.598 386.602 687.898 386.376 684.998 385.06 C 681.258 383.36 677.898 383.562 677.898 385.487 C 677.898 387.546 684.708 391.689 688.088 391.689 C 689.498 391.689 691.648 392.605 692.868 393.724 C 694.568 395.288 695.868 395.67 698.448 395.373 C 703.468 394.797 710.438 397.144 710.478 399.425 C 710.528 402.583 706.328 404.042 698.458 403.601 C 694.688 403.389 691.398 402.912 691.158 402.541 C 690.928 402.169 689.898 401.865 688.878 401.865 C 687.858 401.865 687.028 401.537 687.028 401.135 C 687.028 400.734 685.888 400.187 684.488 399.921 C 683.088 399.655 681.578 398.745 681.138 397.9 C 680.688 397.055 679.798 396.557 679.158 396.794 C 678.518 397.032 676.798 396.508 675.338 395.631 C 673.878 394.755 671.578 394.037 670.218 394.037 C 668.858 394.037 667.408 393.509 666.998 392.863 C 666.408 391.941 663.748 391.689 654.618 391.689 L 642.988 391.689 L 642.348 394.233 C 642.008 395.632 642.458 397.411 643.348 398.186 C 644.858 399.493 645.038 399.451 645.818 397.599 C 646.568 395.798 647.278 395.603 653.068 395.603 C 660.068 395.603 660.268 395.685 661.448 399.126 C 662.288 401.582 660.048 404.711 658.778 402.844 C 658.418 402.306 657.538 401.865 656.828 401.865 C 656.128 401.865 654.668 401.337 653.588 400.691 C 650.578 398.885 647.908 399.253 647.908 401.474 C 647.908 402.692 647.168 403.431 645.948 403.431 C 644.868 403.431 643.988 403.079 643.988 402.648 C 643.988 402.218 642.808 401.865 641.348 401.865 C 638.878 401.865 638.378 402.449 637.048 406.938 C 636.918 407.371 639.238 407.601 642.358 407.465 C 645.698 407.321 647.908 407.561 647.908 408.068 C 647.908 408.531 648.718 408.911 649.708 408.911 C 651.808 408.911 655.728 412.21 655.728 413.971 C 655.728 414.651 656.858 415.173 658.338 415.173 C 660.238 415.173 660.948 415.695 660.948 417.103 C 660.948 419.137 664.698 424.602 666.678 425.466 C 667.318 425.745 667.488 427.066 667.038 428.401 C 666.578 429.788 666.778 430.829 667.498 430.829 C 668.198 430.829 668.768 432.062 668.768 433.569 C 668.768 435.344 669.388 436.308 670.528 436.308 C 671.498 436.308 673.638 437.013 675.288 437.874 C 676.948 438.735 678.798 439.44 679.408 439.44 C 680.008 439.44 680.508 440.103 680.508 440.914 C 680.508 441.73 681.678 442.571 683.118 442.798 C 684.638 443.036 685.728 443.865 685.728 444.782 C 685.728 448.138 687.068 448.833 693.548 448.833 C 700.128 448.833 702.198 449.969 700.708 452.773 C 699.278 455.487 689.268 455.241 686.478 452.423 C 683.798 449.719 678.618 446.485 676.958 446.485 C 676.038 446.485 675.288 446.133 675.288 445.702 C 675.288 445.272 673.628 444.919 671.588 444.919 C 668.908 444.919 667.478 444.381 666.398 442.962 C 665.388 441.628 663.868 441.005 661.628 441.005 C 659.818 441.005 658.438 440.741 658.568 440.418 C 658.978 439.366 651.998 430.829 650.718 430.829 C 650.038 430.829 648.098 429.954 646.408 428.885 C 644.718 427.816 641.838 426.936 640.008 426.928 C 635.688 426.911 629.668 425.219 629.658 424.016 C 629.648 422.941 616.838 423.499 614.708 424.667 C 614.028 425.042 612.418 425.349 611.128 425.349 C 609.108 425.349 608.778 424.645 608.778 420.418 C 608.778 417.626 608.098 415.078 607.218 414.547 C 606.348 414.029 602.208 413.607 597.968 413.607 C 590.748 413.607 590.208 413.477 588.898 411.397 C 588.138 410.182 585.958 408.774 584.058 408.27 C 581.798 407.668 579.658 406.006 577.848 403.434 C 573.708 397.556 571.708 398.473 566.728 408.519 C 565.108 411.775 564.608 412.17 563.718 410.868 C 562.018 408.353 557.618 406.424 554.688 406.908 C 548.788 407.885 541.608 408.255 543.428 407.488 C 545.568 406.586 548.528 401.8 547.778 400.453 C 547.038 399.12 542.688 399.293 541.788 400.691 C 541.318 401.426 539.328 401.865 536.458 401.865 C 532.308 401.865 531.588 402.212 528.728 405.584 C 526.998 407.629 525.228 409.214 524.788 409.106 C 522.778 408.607 521.398 409.015 521.398 410.109 C 521.398 410.769 520.568 411.498 519.568 411.729 C 518.558 411.961 517.368 413.32 516.928 414.749 C 516.078 417.445 512.758 418.67 509.518 417.472 C 508.118 416.95 508.208 416.314 510.008 414.045 C 511.228 412.513 512.818 411.259 513.548 411.259 C 514.278 411.259 514.878 410.22 514.878 408.949 C 514.878 407.679 515.608 406.358 516.508 406.014 C 518.308 405.321 521.398 402.278 521.398 401.191 C 521.398 400.808 519.538 400.273 517.268 400.001 C 512.558 399.435 509.168 396.984 509.068 394.074 C 509.018 392.512 508.258 392.028 505.548 391.84 C 501.908 391.588 498.308 388.053 499.638 386.053 C 500.078 385.398 500.358 385.523 500.428 386.405 C 500.578 388.419 503.718 388.073 506.538 385.731 C 507.898 384.607 509.778 383.198 510.728 382.6 C 511.678 382.002 512.008 381.513 511.458 381.513 C 510.918 381.513 511.758 380.794 513.318 379.916 C 516.398 378.2 517.138 376.033 514.658 376.033 C 513.818 376.033 513.518 375.8 513.998 375.516 C 514.468 375.231 513.538 374.606 511.928 374.126 C 510.318 373.647 508.808 372.435 508.568 371.435 C 508.088 369.419 512.158 366.639 515.588 366.639 C 516.758 366.639 518.368 365.583 519.188 364.291 C 520.018 362.971 521.618 361.943 522.838 361.943 C 524.078 361.943 525.378 361.097 525.838 359.986 C 526.768 357.765 525.528 353.94 524.058 354.486 C 523.518 354.684 522.428 353.524 521.618 351.908 C 520.328 349.319 519.448 348.857 514.238 348.02 C 506.128 346.718 503.038 346.845 499.228 348.635 C 497.428 349.477 495.238 350.174 494.348 350.183 C 493.458 350.193 492.358 351.61 491.898 353.332 L 491.068 356.463 L 452.088 356.463 L 413.108 356.463 C 444.788 249.142 477.548 140.522 509.108 32.776 L 512.978 17.12 L 528.698 16.901 L 544.418 16.682 L 545.958 18.706 C 547.638 20.925 550.088 20.653 550.088 18.248 C 550.088 16.762 551.688 16.728 621.818 16.728 L 693.548 16.728 L 693.508 18.49 C 693.468 20.447 690.728 22.991 688.678 22.991 C 687.938 22.991 686.658 24.632 685.808 26.637 C 684.968 28.643 683.438 31.011 682.398 31.9 C 679.568 34.324 679.948 37.081 683.118 37.081 C 684.558 37.081 685.728 36.713 685.728 36.263 C 685.728 35.813 687.218 34.549 689.038 33.456 C 691.138 32.196 692.078 30.953 691.608 30.062 C 691.148 29.179 691.658 28.473 692.998 28.164 C 694.508 27.817 694.898 27.118 694.338 25.778 C 693.908 24.735 694.078 23.065 694.718 22.067 C 696.108 19.906 700.558 16.726 702.188 16.734 C 703.488 16.741 706.598 20.429 706.598 21.973 C 706.598 22.642 708.418 22.991 711.908 22.991 C 716.898 22.991 717.208 23.124 716.988 25.143 C 716.528 29.373 717.038 31.691 718.328 31.21 C 719.048 30.944 719.638 31.076 719.638 31.503 C 719.638 31.929 718.508 32.493 717.138 32.755 C 715.758 33.017 713.998 34.326 713.228 35.664 C 711.468 38.689 711.378 38.395 714.248 38.847 C 716.448 39.192 716.578 39.678 715.558 43.83 C 713.338 52.89 713.078 53.422 710.458 53.921 C 708.138 54.363 708.088 54.525 709.918 55.628 C 711.038 56.298 711.768 57.595 711.558 58.51 C 711.208 59.964 710.378 60.156 704.968 60.03 L 698.778 59.886 L 701.058 61.767 C 703.858 64.076 705.368 64.152 708.248 62.131 C 711.038 60.177 711.928 60.177 715.428 62.131 C 717.518 63.304 720.028 63.696 725.418 63.696 C 732.428 63.696 732.628 63.758 733.718 66.24 C 734.598 68.254 735.418 68.733 737.668 68.54 C 739.228 68.405 740.508 68.669 740.508 69.127 C 740.508 69.584 742.268 69.959 744.418 69.959 C 747.028 69.959 748.328 70.35 748.328 71.133 C 748.328 71.975 749.758 72.307 753.398 72.307 C 759.158 72.307 758.718 72.942 761.368 60.565 C 763.828 49.084 763.938 48.823 766.328 48.823 C 768.568 48.823 770.828 46.394 772.348 42.365 C 773.018 40.583 773.858 40.212 777.208 40.212 C 781.048 40.212 781.218 40.34 780.448 42.652 C 779.668 44.996 779.778 45.07 783.218 44.539 C 790.498 43.42 797.888 43.172 797.888 44.047 C 797.888 44.603 801.598 44.909 808.328 44.909 C 816.728 44.909 818.758 44.681 818.758 43.735 C 818.758 43.089 819.328 42.561 820.038 42.561 C 820.738 42.561 821.198 41.025 821.058 39.148 C 820.898 36.869 821.528 35.308 822.958 34.451 C 825.268 33.06 833.108 32.673 833.108 33.95 C 833.108 34.38 833.988 34.733 835.058 34.733 C 836.138 34.733 837.018 35.207 837.018 35.787 C 837.018 37.386 841.848 40.437 842.848 39.468 C 843.308 39.016 845.128 38.647 846.878 38.647 C 849.518 38.647 850.058 39.032 850.058 40.908 C 850.058 43.448 854.998 47.507 856.118 45.888 C 856.498 45.338 859.058 44.909 861.958 44.909 C 865.358 44.909 868.098 44.362 869.988 43.309 L 872.848 41.708 L 868.998 37.438 C 866.878 35.089 864.648 33.167 864.028 33.167 C 862.188 33.167 859.188 31.018 859.188 29.7 C 859.188 29.024 860.148 28.47 861.308 28.47 C 864.688 28.47 863.078 20.936 859.378 19.379 C 854.528 17.344 856.278 16.728 866.878 16.728 C 875.428 16.728 877.338 16.96 878.168 18.098 C 878.718 18.852 879.048 19.908 878.898 20.447 C 878.758 21 879.988 21.425 881.748 21.425 C 883.858 21.425 885.398 22.114 886.538 23.578 C 887.628 24.965 888.448 25.355 888.858 24.675 C 889.678 23.299 886.598 19.859 884.538 19.859 C 883.198 19.859 881.358 18.237 881.358 17.056 C 881.358 16.162 898.668 16.829 900.258 17.785 C 901.268 18.389 906.598 19.071 912.728 19.377 C 918.618 19.672 924.498 20.253 925.788 20.669 C 927.078 21.085 929.608 21.425 931.408 21.425 C 933.208 21.425 935.048 21.777 935.488 22.208 C 935.928 22.638 937.748 22.991 939.518 22.991 C 941.288 22.991 943.078 23.519 943.498 24.165 C 943.908 24.811 945.068 25.339 946.078 25.339 C 947.088 25.339 948.928 25.668 950.178 26.071 C 951.428 26.473 954.308 27.252 956.588 27.802 C 958.868 28.352 960.428 29.098 960.058 29.46 C 959.678 29.822 961.188 30.529 963.408 31.031 C 965.628 31.534 967.438 32.22 967.438 32.556 C 967.438 32.892 968.398 33.167 969.578 33.167 C 970.748 33.167 973.468 34.4 975.608 35.907 C 977.758 37.414 980.068 38.647 980.738 38.647 C 982.258 38.647 985.698 40.648 985.698 41.534 C 985.698 41.891 987.738 43.238 990.238 44.525 C 992.728 45.813 994.788 47.145 994.798 47.485 C 994.828 48.119 999.568 52.347 1002.13 54.019 C 1002.91 54.532 1004.32 56.063 1005.26 57.42 C 1007.1 60.091 1009.12 59.389 1009.16 56.064 C 1009.17 55.095 1009.76 54.303 1010.48 54.303 C 1011.2 54.303 1011.79 53.79 1011.79 53.164 C 1011.79 52.538 1013.25 51.145 1015.05 50.068 C 1016.84 48.992 1018.31 47.743 1018.31 47.293 C 1018.31 46.843 1020.03 46.475 1022.14 46.475 C 1024.25 46.475 1026.33 46.136 1026.75 45.722 C 1027.25 45.24 1028.72 45.24 1030.83 45.722 C 1032.64 46.136 1036.08 46.475 1038.47 46.475 C 1041.12 46.475 1043.1 46.931 1043.56 47.649 C 1043.97 48.295 1045.5 48.823 1046.95 48.823 C 1050.01 48.823 1056.13 51.768 1056.13 53.242 C 1056.13 53.795 1057.38 54.649 1058.91 55.139 C 1061.41 55.944 1061.62 56.515 1061.02 61.001 C 1060.6 64.088 1059.55 66.45 1058.24 67.238 C 1057.08 67.935 1056.13 68.832 1056.13 69.232 C 1056.13 69.632 1055.25 69.959 1054.17 69.959 C 1053.1 69.959 1052.22 70.51 1052.22 71.185 C 1052.22 72.232 1050.21 72.383 1038.39 72.22 C 1028.37 72.082 1024.39 71.745 1023.91 70.994 C 1023.54 70.425 1022.43 69.959 1021.43 69.959 C 1020.43 69.959 1019.61 69.606 1019.61 69.176 C 1019.61 68.745 1018.73 68.393 1017.66 68.393 C 1016.58 68.393 1015.7 67.982 1015.7 67.48 C 1015.7 66.977 1015.35 66.778 1014.92 67.036 C 1014.49 67.293 1015.37 70.654 1016.87 74.504 C 1018.38 78.353 1019.61 82.428 1019.61 83.559 C 1019.61 84.689 1020.2 85.615 1020.92 85.615 C 1021.73 85.615 1022.22 90.181 1022.22 97.748 C 1022.22 104.421 1021.71 109.881 1021.09 109.881 C 1020.48 109.881 1019.58 111.907 1019.1 114.382 C 1017.91 120.599 1011.8 135.714 1010.48 135.714 C 1009.89 135.714 1007.79 138.268 1005.82 141.389 C 1003.85 144.51 1001.86 147.24 1001.4 147.456 C 1000.94 147.671 999.318 149.08 997.798 150.587 C 994.838 153.514 995.598 155.211 1000.33 156.277 C 1004.3 157.17 1005.1 164.677 1001.23 164.677 C 1000.48 164.677 998.948 165.224 997.838 165.892 C 996.318 166.801 993.648 167.048 987.208 166.871 L 978.598 166.634 L 975.948 169.568 C 974.498 171.181 972.828 172.502 972.238 172.503 C 970.858 172.506 967.448 174.548 967.428 175.385 C 967.418 175.739 965.338 176.834 962.798 177.82 C 960.258 178.806 957.808 180.215 957.348 180.951 C 956.268 182.665 954.618 183.587 950.158 184.967 C 948.188 185.578 946.568 186.506 946.568 187.03 C 946.568 187.554 944.668 188.55 942.338 189.243 C 936.648 190.935 933.528 192.451 933.528 193.531 C 933.528 194.022 932.598 194.424 931.448 194.424 C 930.308 194.424 927.808 195.082 925.908 195.887 C 924.008 196.691 921.118 197.597 919.488 197.9 C 917.868 198.203 916.838 198.747 917.218 199.11 C 917.588 199.473 917.258 199.897 916.478 200.053 C 915.478 200.254 915.458 200.9 916.428 202.273 C 917.188 203.337 918.738 206.234 919.888 208.71 C 921.038 211.185 922.518 213.211 923.188 213.211 C 923.858 213.211 924.408 213.651 924.408 214.189 C 924.408 214.727 925.028 216.489 925.778 218.103 C 927.108 220.991 927.238 221.039 933.588 221.039 C 938.468 221.039 940.048 221.327 940.048 222.213 C 940.048 222.859 940.898 223.387 941.918 223.387 C 944.438 223.387 945.698 226.073 944.688 229.296 C 943.988 231.55 943.198 232.013 939.348 232.447 C 934.168 233.031 934.238 232.895 936.698 237.06 C 937.718 238.797 939.308 241.891 940.238 243.936 C 941.168 245.981 942.358 247.654 942.888 247.654 C 943.418 247.654 944.228 248.887 944.708 250.394 C 945.318 252.376 946.238 253.134 948.018 253.134 C 949.378 253.134 950.488 253.486 950.488 253.916 C 950.488 254.347 951.658 254.699 953.098 254.699 C 954.528 254.699 955.698 255.051 955.698 255.482 C 955.698 255.912 956.878 256.265 958.308 256.265 C 959.998 256.265 960.918 256.787 960.918 257.747 C 960.918 260.421 964.398 260.209 966.938 257.379 C 968.258 255.905 970.048 254.699 970.908 254.699 C 971.778 254.699 972.818 254.083 973.238 253.329 C 974.268 251.45 981.148 246.871 982.938 246.871 C 983.738 246.871 984.398 246.503 984.398 246.053 C 984.398 245.218 990.228 241.392 991.498 241.392 C 991.888 241.392 993.878 240.335 995.938 239.043 C 997.998 237.752 1000.35 236.695 1001.17 236.695 C 1001.99 236.695 1002.66 236.343 1002.66 235.912 C 1002.66 235.481 1003.47 235.129 1004.47 235.129 C 1005.47 235.129 1006.63 234.601 1007.04 233.955 C 1007.45 233.309 1008.69 232.781 1009.79 232.781 C 1010.89 232.781 1011.79 232.517 1011.8 232.194 C 1011.81 231.585 1017.99 229.65 1019.93 229.65 C 1020.53 229.65 1022.28 228.945 1023.82 228.084 C 1025.36 227.223 1027.98 226.518 1029.64 226.518 C 1031.3 226.518 1032.65 226.166 1032.65 225.736 C 1032.65 225.305 1034.67 224.953 1037.14 224.953 C 1039.61 224.953 1041.99 224.601 1042.44 224.17 C 1042.88 223.739 1045.63 223.387 1048.54 223.387 C 1053.84 223.387 1053.85 223.393 1052.98 225.931 C 1052.51 227.331 1051.75 230.061 1051.3 231.998 C 1050.35 236.085 1048.63 237.055 1040.15 238.294 C 1036.43 238.838 1033.96 239.637 1033.96 240.295 C 1033.96 240.943 1032.62 241.392 1030.7 241.392 C 1028.9 241.392 1027.44 241.658 1027.44 241.983 C 1027.44 242.309 1025.53 243.071 1023.2 243.678 C 1020.87 244.284 1017.04 245.691 1014.69 246.804 C 1006.42 250.721 988.818 261.386 985.918 264.24 C 983.098 267.013 983.068 267.19 985.278 268.741 C 986.548 269.629 988.358 270.355 989.308 270.355 C 991.798 270.355 996.978 273.58 997.798 275.64 C 998.188 276.609 997.968 277.205 997.318 276.964 C 996.668 276.723 996.138 276.018 996.138 275.397 C 996.138 274.565 994.418 274.269 989.608 274.269 C 985.998 274.269 983.088 274.629 983.088 275.077 C 983.088 275.522 981.768 276.208 980.158 276.603 L 977.218 277.32 L 980.158 277.843 C 981.768 278.131 983.088 278.677 983.088 279.057 C 983.088 279.438 985.828 279.749 989.188 279.749 C 992.878 279.749 996.168 280.23 997.528 280.97 C 999.648 282.122 999.608 282.302 996.828 284.102 C 995.208 285.152 992.898 286.011 991.708 286.011 C 990.508 286.011 989.198 286.539 988.778 287.185 C 988.298 287.943 986.278 288.359 983.088 288.359 C 979.908 288.359 977.888 287.943 977.408 287.185 C 976.988 286.539 975.438 286.011 973.958 286.011 C 972.478 286.011 969.888 285.469 968.198 284.807 C 965.278 283.659 965.098 283.699 964.268 285.685 C 963.788 286.829 962.608 288.243 961.638 288.825 C 960.668 289.408 958.238 292.976 956.258 296.754 C 954.268 300.533 952.218 303.8 951.708 304.015 C 950.418 304.554 945.718 318.888 944.718 325.347 L 943.888 330.631 L 951.598 330.631 C 960.198 330.631 968.748 332.391 968.748 334.164 C 968.748 334.804 969.878 335.327 971.268 335.327 C 972.648 335.327 974.158 336.032 974.618 336.893 C 975.068 337.754 976.278 338.459 977.308 338.459 C 978.338 338.459 979.178 338.987 979.178 339.633 C 979.178 340.279 980.058 340.807 981.138 340.807 C 982.208 340.807 983.088 341.488 983.088 342.32 C 983.088 343.152 984.268 344.056 985.698 344.33 C 987.138 344.603 988.308 345.331 988.308 345.948 C 988.308 346.565 989.148 347.069 990.168 347.069 C 993.368 347.069 997.158 350.844 998.108 354.968 C 998.618 357.211 999.798 359.104 1000.83 359.342 C 1001.84 359.573 1002.66 360.252 1002.66 360.852 C 1002.66 361.452 1003.85 361.943 1005.31 361.943 C 1006.76 361.943 1008.29 362.471 1008.71 363.117 C 1009.12 363.763 1010.21 364.291 1011.13 364.291 C 1012.06 364.291 1013.15 364.819 1013.56 365.465 C 1014.05 366.233 1016.08 366.639 1019.43 366.639 C 1023.75 366.639 1024.67 366.932 1025.34 368.534 C 1025.77 369.576 1025.8 370.949 1025.39 371.584 C 1024.51 372.964 1019.17 373.713 1016.76 372.796 C 1015.82 372.437 1013.73 372.138 1012.11 372.131 C 1010.5 372.124 1009.18 371.767 1009.18 371.336 C 1009.18 370.906 1008.3 370.553 1007.22 370.553 C 1006.15 370.553 1005.26 370.025 1005.26 369.379 C 1005.26 368.604 1003.97 368.205 1001.46 368.205 C 996.598 368.205 993.338 368.953 994.258 369.853 C 994.658 370.238 994.078 370.553 992.968 370.553 C 990.338 370.553 985.698 372.95 985.698 374.306 C 985.698 374.887 986.438 375.801 987.328 376.337 C 989.348 377.547 996.968 379.186 997.918 378.616 C 998.298 378.386 998.998 379.119 999.468 380.246 C 1000.1 381.742 1001.17 382.295 1003.45 382.295 C 1005.17 382.295 1006.57 382.637 1006.57 383.054 C 1006.57 383.471 1007.45 383.609 1008.53 383.361 C 1009.61 383.112 1011.95 383.13 1013.75 383.4 C 1016.42 383.803 1017 384.367 1017 386.552 C 1017 390.857 1015.95 391.689 1010.49 391.689 C 1006.67 391.689 1005.42 391.34 1004.89 390.123 C 1004.12 388.358 1001.06 388.058 998.998 389.545 C 996.828 391.116 999.978 397.169 1002.97 397.169 C 1004.28 397.169 1005.69 397.697 1006.1 398.343 C 1006.51 398.989 1007.96 399.517 1009.32 399.517 C 1010.68 399.517 1011.79 399.827 1011.79 400.205 C 1011.79 400.584 1014.13 402.346 1017 404.12 C 1021.94 407.173 1023.68 408.763 1021.01 407.771 C 1020.34 407.524 1019.44 408.002 1019 408.833 C 1018.04 410.647 1019.43 414.39 1021.06 414.39 C 1021.7 414.39 1022.22 414.968 1022.22 415.674 C 1022.22 417.182 1018.57 419.027 1015.51 419.062 C 1013.1 419.09 1011.79 420.645 1011.79 423.456 C 1011.79 424.617 1011.03 425.349 1009.83 425.349 C 1008.61 425.349 1007.87 426.089 1007.87 427.306 C 1007.87 428.561 1007.14 429.263 1005.83 429.263 C 1004.32 429.263 1004.01 429.724 1004.66 431.025 C 1005.89 433.502 1009 436.308 1010.51 436.308 C 1012.64 436.308 1012.02 444.106 1009.79 445.447 C 1008.69 446.106 1007.1 448.203 1006.25 450.107 C 1004.8 453.348 1004.29 453.643 998.228 454.724 C 990.638 456.077 987.468 456.176 986.348 455.096 C 985.908 454.665 984.408 454.313 983.018 454.313 C 981.618 454.313 980.488 454.665 980.488 455.096 C 980.488 455.526 981.068 455.878 981.788 455.878 C 984.388 455.878 982.928 459.435 979.768 460.815 C 975.868 462.521 965.248 462.425 965.858 460.69 C 966.528 458.77 964.648 456.57 961.778 455.923 C 959.598 455.43 958.608 455.662 957.378 456.952 C 956.508 457.868 955.778 459.411 955.748 460.38 C 955.698 462.31 955.358 462.358 950.298 461.154 Z M 677.898 339.652 C 677.898 339.067 678.438 338.472 679.088 338.328 C 679.738 338.185 680.558 336.952 680.918 335.589 C 681.268 334.226 683.168 326.476 685.138 318.367 C 688.878 306.307 692.308 294.309 695.628 282.19 C 697.968 273.827 697.968 273.747 694.858 273.26 C 691.918 272.799 691.258 270.355 694.058 270.355 C 695.058 270.355 696.248 269.474 696.698 268.398 C 697.148 267.322 698.258 266.441 699.178 266.441 C 707.918 239.7 722.638 207.399 723.928 180.621 C 723.508 178.981 722.158 177.814 719.838 177.098 C 714.098 175.322 712.468 174.076 714.008 172.618 C 714.748 171.91 716.178 171.378 717.168 171.436 C 720.678 171.64 724.858 172.695 724.858 173.379 C 724.858 173.76 725.738 174.071 726.808 174.071 C 727.888 174.071 728.768 173.707 728.768 173.261 C 728.768 172.816 729.998 167.654 731.508 161.79 C 734.008 152.08 734.058 151.067 732.158 150.428 C 731.008 150.042 730.068 149.215 730.068 148.591 C 730.068 147.888 728.768 147.456 726.658 147.456 C 723.658 147.456 723.328 147.709 723.918 149.569 C 724.798 152.342 723.438 154.226 717.788 158.023 C 713.928 160.612 712.898 160.951 711.848 159.98 C 711.138 159.335 710.888 158.19 711.278 157.436 C 711.788 156.456 711.268 156.066 709.458 156.066 C 707.688 156.066 706.688 156.773 706.138 158.415 C 705.448 160.475 704.808 160.763 700.898 160.763 C 694.298 160.763 692.368 156.372 697.738 153.574 C 701.878 151.422 699.498 149.486 692.348 149.169 C 686.018 148.889 683.118 149.98 683.118 152.64 C 683.118 153.772 682.348 154.501 681.158 154.501 C 680.088 154.501 677.888 155.293 676.268 156.262 C 673.778 157.76 673.388 158.727 673.688 162.72 C 674.088 168.022 671.348 183.464 670.008 183.464 C 669.528 183.464 668.438 187.18 667.578 191.721 C 666.728 196.263 665.708 200.49 665.308 201.115 C 664.698 202.07 658.908 202.254 629.178 202.264 C 609.708 202.27 593.088 202.537 592.258 202.858 C 591.418 203.178 590.538 204.661 590.298 206.155 C 589.998 208.028 588.958 209.14 586.938 209.74 C 585.328 210.219 584.398 210.844 584.878 211.128 C 585.348 211.412 584.358 211.645 582.678 211.645 C 576.448 211.645 571.068 213.444 568.828 216.278 C 567.628 217.799 565.848 219.517 564.888 220.097 C 563.918 220.676 563.128 221.818 563.128 222.633 C 563.128 223.448 562.028 224.47 560.668 224.905 C 559.318 225.339 557.838 226.584 557.388 227.672 C 556.778 229.13 555.698 229.65 553.278 229.65 C 547.088 230.188 534.958 280.357 533.188 284.741 C 532.638 284.407 530.538 291.785 525.778 310.908 L 524.938 314.277 L 536.328 314.127 L 547.718 313.976 L 546.918 311.931 C 544.588 305.941 544.528 304.045 546.658 303.555 C 547.828 303.285 548.778 302.423 548.778 301.639 C 548.778 299.636 552.308 297.753 556.048 297.753 C 557.938 297.753 559.218 297.297 559.218 296.628 C 559.218 295.932 560.828 295.411 563.458 295.259 C 566.768 295.067 568.118 294.462 569.648 292.486 C 572.348 288.998 576.168 289.046 576.168 292.569 C 576.168 295.308 578.958 297.482 581.328 296.6 C 582.078 296.322 582.698 295.264 582.698 294.248 C 582.698 290.897 584.048 289.925 588.698 289.925 C 592.888 289.925 593.128 290.072 593.128 292.665 C 593.128 294.578 592.538 295.405 591.168 295.405 C 590.098 295.405 589.218 295.933 589.218 296.579 C 589.218 297.225 588.668 297.753 587.998 297.753 C 587.328 297.753 587.048 298.634 587.368 299.71 C 587.848 301.295 587.438 301.667 585.188 301.667 C 583.198 301.667 582.638 302.015 583.208 302.905 C 583.638 303.586 583.998 304.467 583.998 304.862 C 583.998 305.258 586.098 305.581 588.658 305.581 C 594.318 305.581 596.958 307.026 597.938 310.661 C 598.648 313.253 598.968 313.409 603.728 313.409 C 606.508 313.409 608.778 313.057 608.778 312.626 C 608.778 312.196 608.188 311.843 607.478 311.843 C 606.758 311.843 606.168 311.315 606.168 310.669 C 606.168 310.023 605.288 309.495 604.218 309.495 C 603.138 309.495 602.258 309.122 602.258 308.666 C 602.258 308.21 601.668 308.055 600.958 308.321 C 600.178 308.609 599.648 307.677 599.648 306.019 C 599.648 304.173 600.258 303.233 601.448 303.233 C 602.438 303.233 603.978 302.176 604.868 300.884 C 606.378 298.689 610.078 297.578 610.078 299.319 C 610.078 299.749 611.818 300.101 613.938 300.101 C 617.308 300.101 617.898 300.444 618.648 302.841 C 619.118 304.348 620.028 305.581 620.658 305.581 C 621.298 305.581 621.818 306.462 621.818 307.538 C 621.818 308.614 621.238 309.495 620.518 309.495 C 619.798 309.495 619.208 310 619.208 310.617 C 619.208 311.233 618.008 311.968 616.528 312.249 C 615.058 312.529 614.078 313.17 614.358 313.671 C 615.008 314.852 634.858 315.388 634.858 314.225 C 634.858 313.776 637.208 313.409 640.078 313.409 C 644.778 313.409 645.298 313.605 645.298 315.366 C 645.298 316.442 645.818 317.323 646.458 317.323 C 647.098 317.323 647.988 316.442 648.438 315.366 C 649.038 313.942 650.128 313.409 652.468 313.409 C 654.788 313.409 655.908 312.877 656.478 311.497 C 656.968 310.333 658.378 309.491 660.088 309.344 C 662.298 309.155 662.988 308.484 663.308 306.214 C 663.628 303.871 664.438 303.131 667.578 302.3 C 670.358 301.563 671.818 300.451 672.768 298.34 C 673.898 295.834 674.628 295.405 677.748 295.405 C 682.968 295.405 686.608 297.991 684.638 300.3 C 682.588 302.697 680.178 304.912 678.228 306.191 C 677.328 306.778 676.598 308.066 676.598 309.054 C 676.598 311.423 671.848 314.975 668.678 314.975 C 666.038 314.975 665.638 315.595 666.958 317.65 C 667.528 318.545 669.608 318.906 674.458 318.95 C 678.148 318.984 680.428 319.19 679.528 319.407 C 678.638 319.624 677.898 320.653 677.898 321.694 C 677.898 322.734 678.638 323.591 679.528 323.597 C 680.618 323.605 680.508 323.862 679.208 324.368 C 677.468 325.043 677.468 325.131 679.208 325.163 C 680.748 325.191 680.678 325.367 678.878 325.997 C 677.628 326.435 676.598 327.481 676.598 328.321 C 676.598 329.161 676.008 329.848 675.288 329.848 C 673.878 329.848 673.438 340.216 674.818 341.047 C 676.018 341.761 677.898 340.906 677.898 339.652 Z M 540.378 288.185 C 539.258 287.228 538.348 285.515 538.348 284.377 C 538.348 281.977 542.858 278.183 545.708 278.183 C 547.978 278.183 551.388 280.033 551.388 281.258 C 551.388 281.72 551.978 282.097 552.698 282.097 C 553.418 282.097 553.998 282.978 553.998 284.054 C 553.998 285.13 553.418 286.011 552.698 286.011 C 551.978 286.011 551.388 286.539 551.388 287.185 C 551.388 287.831 550.508 288.359 549.438 288.359 C 548.358 288.359 547.478 288.712 547.478 289.142 C 547.478 290.612 542.418 289.929 540.378 288.185 Z M 601.808 287.148 C 598.098 284.987 597.038 283.758 597.038 281.612 C 597.038 278.909 599.388 276.618 602.168 276.618 C 602.928 276.618 603.558 276.269 603.558 275.844 C 603.558 274.012 608.238 271.921 612.328 271.921 C 614.678 271.921 616.598 271.568 616.598 271.138 C 616.598 270.707 616.028 270.355 615.328 270.355 C 613.258 270.355 612.428 266.954 613.918 264.604 C 615.158 262.642 615.818 262.46 620.838 262.678 L 626.388 262.919 L 626.778 266.587 C 627.108 269.607 626.708 270.406 624.548 271.1 C 621.768 271.991 622.138 274.269 625.048 274.269 C 625.958 274.269 627.058 275.59 627.508 277.205 C 628.678 281.463 628.518 284.445 627.128 284.445 C 626.458 284.445 625.498 285.222 624.998 286.17 C 623.438 289.126 621.018 289.925 613.638 289.925 C 607.308 289.925 606.068 289.635 601.808 287.148 Z M 588.018 284.572 C 586.618 282.998 587.528 279.749 589.368 279.749 C 589.998 279.749 590.518 280.277 590.518 280.923 C 590.518 281.569 591.108 282.097 591.818 282.097 C 592.538 282.097 593.128 282.978 593.128 284.054 C 593.128 286.374 589.918 286.699 588.018 284.572 Z M 677.558 283.195 C 675.118 281.73 682.848 276.618 687.508 276.618 C 692.048 276.618 692.018 278.597 687.438 281.467 C 684.218 283.489 679.438 284.324 677.558 283.195 Z M 588.668 272.975 C 587.358 270.926 590.368 266.441 593.058 266.441 C 596.168 266.441 597.748 271.606 595.118 273.185 C 592.678 274.65 589.678 274.552 588.668 272.975 Z M 671.378 330.155 C 671.378 329.556 670.208 329.065 668.768 329.065 C 666.318 329.065 665.228 330.59 666.948 331.62 C 668.218 332.382 671.378 331.336 671.378 330.155 Z M 769.178 330.435 C 769.168 329.466 768.728 328.288 768.198 327.816 C 766.068 325.909 756.158 325.713 756.158 327.577 C 756.158 329.286 762.058 332.196 765.518 332.196 C 768.468 332.196 769.198 331.848 769.178 330.435 Z M 754.568 317.655 C 752.928 315.489 750.288 315.17 749.118 316.996 C 748.058 318.655 748.038 318.601 750.428 320.034 C 753.578 321.927 756.528 320.234 754.568 317.655 Z M 733.658 315.264 C 735.388 314.986 736.588 314.185 736.588 313.318 C 736.588 312.507 737.178 311.843 737.898 311.843 C 738.618 311.843 739.198 310.828 739.198 309.586 C 739.198 306.787 735.788 306.071 729.078 307.465 C 723.358 308.653 721.578 310.153 722.708 312.839 C 723.738 315.311 727.788 316.208 733.658 315.264 Z M 515.418 308.608 C 515.658 308.45 516.128 306.472 516.468 304.211 C 517.008 300.678 516.778 300.101 514.818 300.101 C 513.568 300.101 512.208 299.573 511.788 298.927 C 510.878 297.493 508.348 297.369 508.348 298.759 C 508.348 299.311 506.588 300.388 504.438 301.151 C 501.368 302.239 500.528 303.086 500.528 305.077 C 500.528 308.664 502.718 309.697 509.398 309.262 C 512.478 309.06 515.188 308.766 515.418 308.608 Z M 557.328 216.937 C 558.808 210.35 559.138 204.663 558.048 204.26 C 556.768 203.783 554.018 208.399 554.008 211.058 C 554.008 211.812 553.418 212.428 552.698 212.428 C 550.778 212.428 551.088 218.493 553.018 218.919 C 554.908 219.333 557.008 218.367 557.328 216.937 Z M 549.088 201.469 C 549.978 200.608 551.948 199.903 553.458 199.903 C 557.558 199.903 560.348 194.445 557.998 191.031 C 557.048 189.668 556.008 187.483 555.688 186.176 C 554.948 183.246 559.498 174.87 562.338 173.913 C 563.498 173.526 564.438 172.876 564.438 172.466 C 564.438 170.863 560.258 171.856 556.038 174.462 C 553.608 175.969 550.728 177.202 549.658 177.202 C 548.578 177.202 547.488 177.574 547.238 178.027 C 546.988 178.481 545.618 178.954 544.198 179.077 C 542.698 179.206 541.438 180.015 541.198 180.991 C 540.938 182.032 539.838 182.682 538.338 182.682 C 536.998 182.682 535.528 183.034 535.088 183.464 C 534.648 183.895 532.968 184.247 531.358 184.247 C 529.758 184.247 527.738 184.67 526.868 185.187 C 524.548 186.581 524.848 195.601 527.268 197.052 C 528.338 197.697 529.218 198.603 529.218 199.065 C 529.218 199.526 530.398 199.903 531.828 199.903 C 533.258 199.903 534.438 200.255 534.438 200.686 C 534.438 201.117 535.578 201.469 536.968 201.469 C 538.358 201.469 539.858 201.821 540.308 202.252 C 541.708 203.61 547.388 203.104 549.088 201.469 Z M 641.388 192.075 C 641.388 191.645 642.468 191.292 643.778 191.292 C 646.148 191.292 649.208 188.397 649.208 186.167 C 649.208 185.542 649.768 185.03 650.458 185.03 C 652.268 185.03 653.548 179.997 652.558 176.811 L 651.698 174.071 L 643.238 174.071 C 636.928 174.071 634.588 174.368 634.028 175.245 C 633.618 175.891 632.568 176.419 631.688 176.419 C 626.008 176.419 620.768 185.072 624.938 187.574 C 626.098 188.266 627.038 189.386 627.038 190.062 C 627.038 190.758 628.138 191.292 629.568 191.292 C 630.958 191.292 632.468 191.645 632.908 192.075 C 633.348 192.506 635.438 192.858 637.548 192.858 C 639.658 192.858 641.388 192.506 641.388 192.075 Z M 571.718 169.374 C 574.538 169.374 573.918 167.263 570.958 166.799 C 567.718 166.29 566.588 167.288 567.818 169.577 C 568.348 170.569 568.998 170.906 569.308 170.353 C 569.618 169.814 570.698 169.374 571.718 169.374 Z M 850.058 170.157 C 850.058 169.726 851.498 169.374 853.248 169.374 C 854.998 169.374 856.788 169.022 857.238 168.591 C 857.678 168.161 859.768 167.808 861.878 167.808 C 863.988 167.808 865.708 167.456 865.708 167.026 C 865.708 166.595 866.848 166.243 868.238 166.243 C 869.638 166.243 871.138 165.891 871.578 165.46 C 872.018 165.03 873.528 164.677 874.918 164.677 C 876.308 164.677 877.448 164.235 877.448 163.694 C 877.448 163.153 879.358 162.208 881.688 161.594 C 884.018 160.98 887.478 159.485 889.388 158.272 C 891.288 157.059 893.238 156.066 893.718 156.066 C 894.198 156.066 895.498 155.523 896.608 154.858 C 898.418 153.768 898.388 153.499 896.308 152.118 C 895.038 151.276 893.058 150.586 891.918 150.586 C 888.648 150.584 882.798 147.131 881.138 144.228 C 880.308 142.774 879.068 141.362 878.388 141.089 C 876.458 140.324 877.048 134.398 879.328 131.662 C 881.868 128.6 881.918 127.103 879.468 127.103 C 876.638 127.103 875.578 122.278 877.648 118.83 C 879.818 115.208 884.808 113.795 895.408 113.795 C 903.478 113.795 910.028 115.109 910.048 116.731 C 910.048 117.269 911.258 117.709 912.718 117.709 C 914.188 117.709 916.808 118.563 918.548 119.606 C 921.568 121.415 926.648 122.884 927.698 122.251 C 929.178 121.367 931.128 110.312 930.358 107.224 C 929.648 104.365 928.938 103.619 926.928 103.619 C 924.988 103.619 924.398 103.072 924.398 101.271 C 924.398 99.979 923.818 98.922 923.098 98.922 C 922.378 98.922 921.788 98.218 921.788 97.357 C 921.788 96.496 922.378 95.791 923.098 95.791 C 923.818 95.791 924.398 95.347 924.398 94.805 C 924.398 94.263 925.578 93.379 927.008 92.841 C 928.448 92.304 929.628 91.25 929.638 90.5 C 929.678 87.829 923.908 78.569 922.208 78.569 C 921.258 78.569 920.488 77.916 920.488 77.118 C 920.488 76.32 919.018 74.717 917.228 73.555 C 915.438 72.394 913.968 71.109 913.968 70.701 C 913.968 70.293 913.088 69.959 912.008 69.959 C 910.938 69.959 910.058 69.662 910.058 69.299 C 910.058 68.936 907.418 67.824 904.188 66.827 C 900.958 65.831 898.318 64.762 898.318 64.451 C 898.318 64.141 894.758 63.089 890.418 62.114 C 884.628 60.814 879.498 60.318 871.208 60.257 L 859.908 60.174 C 850.878 96.823 836.808 132.9 827.978 169.57 C 827.898 170.771 829.248 170.94 838.978 170.94 C 845.498 170.94 850.058 170.617 850.058 170.157 Z M 909.288 89.92 C 908.188 87.289 909.668 84.049 911.968 84.049 C 912.998 84.049 914.408 83.438 915.108 82.691 C 916.248 81.464 916.638 81.54 919.178 83.474 C 920.718 84.651 922.818 85.615 923.838 85.615 C 924.948 85.615 925.708 86.39 925.708 87.508 C 925.708 91.294 924.558 91.877 917.108 91.877 C 910.728 91.877 910.028 91.704 909.288 89.92 Z M 885.278 84.98 C 881.268 83.664 880.668 83.063 880.328 80.047 C 879.768 75.046 881.908 73.713 890.428 73.752 C 894.258 73.77 898.008 74.157 898.768 74.611 C 899.518 75.066 901.428 75.438 902.988 75.438 C 906.918 75.438 909.568 80.79 906.018 81.57 C 905.368 81.714 904.838 82.245 904.838 82.752 C 904.838 85.648 891.818 87.131 885.278 84.98 Z M 584.648 166.634 C 584.648 166.204 583.328 165.739 581.718 165.601 C 579.698 165.429 578.778 165.751 578.778 166.634 C 578.778 167.517 579.698 167.839 581.718 167.667 C 583.328 167.53 584.648 167.065 584.648 166.634 Z M 663.588 159.178 C 664.848 158.306 666.598 156.545 667.478 155.264 C 668.368 153.983 669.748 152.933 670.558 152.929 C 671.938 152.923 675.288 149.483 675.288 148.082 C 675.288 147.738 673.168 147.456 670.578 147.456 C 666.498 147.456 665.948 147.243 666.538 145.89 C 666.948 144.953 666.578 144.325 665.628 144.325 C 663.018 144.325 658.338 140.552 658.338 138.448 C 658.338 137.374 658.808 136.497 659.378 136.497 C 659.958 136.497 661.168 135.264 662.078 133.757 C 662.978 132.25 664.568 131.017 665.598 131.017 C 666.628 131.017 667.468 130.665 667.468 130.234 C 667.468 129.804 668.868 129.451 670.588 129.451 C 672.308 129.451 674.048 128.923 674.458 128.277 C 674.878 127.631 676.408 127.103 677.858 127.103 C 680.078 127.103 680.508 126.597 680.508 123.972 C 680.508 122.25 679.928 120.841 679.208 120.841 C 678.488 120.841 677.898 120.136 677.898 119.275 C 677.898 118.231 677.028 117.709 675.288 117.709 C 673.858 117.709 672.688 117.198 672.688 116.574 C 672.688 115.95 671.838 115.156 670.808 114.81 C 669.778 114.464 668.638 113.17 668.258 111.935 C 667.418 109.13 667.238 109.032 661.988 108.393 C 658.548 107.974 657.608 107.443 657.278 105.744 C 657.048 104.575 656.388 103.619 655.798 103.619 C 655.218 103.619 654.068 102.019 653.248 100.062 C 652.428 98.106 651.178 96.718 650.478 96.977 C 649.778 97.237 649.208 97.076 649.208 96.62 C 649.208 96.164 648.448 95.791 647.518 95.791 C 643.858 95.791 640.818 85.616 644.118 84.394 C 645.578 83.851 651.618 85.383 653.548 86.788 C 654.248 87.296 654.858 87.228 655.288 86.593 C 655.648 86.055 657.068 85.615 658.448 85.615 C 660.248 85.615 660.948 85.064 660.948 83.658 C 660.948 82.581 660.358 81.701 659.648 81.701 C 657.638 81.701 658.098 76.255 660.198 74.991 C 662.978 73.324 664.708 73.628 665.678 75.953 C 666.458 77.804 666.728 77.891 668.128 76.736 C 668.998 76.022 670.248 75.438 670.908 75.438 C 671.568 75.438 673.698 73.589 675.638 71.329 C 677.578 69.068 679.178 67.55 679.188 67.956 C 679.198 68.361 680.118 68.008 681.248 67.173 C 682.688 66.095 683.478 65.938 683.958 66.632 C 684.738 67.756 689.438 67.911 692.098 66.899 C 693.248 66.463 693.608 65.54 693.088 64.367 C 691.158 59.996 693.288 60.19 644.728 59.962 L 599.708 59.751 L 599.078 61.528 C 598.728 62.505 597.148 68.236 595.558 74.264 C 593.978 80.292 592.298 85.399 591.838 85.615 C 591.068 85.975 589.848 90.27 584.388 111.838 C 583.298 116.144 581.998 119.842 581.498 120.058 C 580.998 120.273 578.908 127.142 576.838 135.322 C 574.768 143.503 572.688 150.372 572.208 150.587 C 570.978 151.141 569.388 159.093 570.328 160.006 C 570.808 160.47 588.568 160.763 616.198 160.763 C 659.858 160.763 661.368 160.713 663.588 159.178 Z M 637.468 77.339 C 637.468 76.663 636.588 75.581 635.518 74.935 C 632.638 73.211 633.118 70.932 636.828 68.708 C 639.618 67.035 641.088 66.781 646.828 66.982 C 652.988 67.199 653.678 67.417 654.848 69.528 C 655.758 71.175 655.688 71.923 654.618 72.137 C 653.798 72.302 653.118 72.948 653.118 73.571 C 653.118 74.194 652.268 74.902 651.218 75.144 C 650.168 75.385 648.958 76.255 648.518 77.076 C 647.478 79.045 637.468 79.283 637.468 77.339 Z M 701.128 78.365 C 701.398 77.538 700.768 77.004 699.518 77.004 C 698.388 77.004 697.468 77.151 697.468 77.331 C 697.468 77.511 697.088 78.251 696.618 78.976 C 695.988 79.968 696.388 80.224 698.238 80.01 C 699.588 79.853 700.888 79.113 701.128 78.365 Z M 730.728 79.352 C 732.238 77.885 730.058 76.994 727.398 77.991 C 725.998 78.516 724.858 79.214 724.858 79.541 C 724.858 80.421 729.788 80.262 730.728 79.352 Z M 765.288 63.995 C 765.288 62.89 764.718 62.249 763.978 62.522 C 763.268 62.788 762.678 63.886 762.678 64.963 C 762.678 66.068 763.248 66.709 763.978 66.436 C 764.698 66.17 765.288 65.072 765.288 63.995 Z M 669.098 49.299 C 670.358 48.727 671.378 47.901 671.378 47.463 C 671.378 47.025 672.258 46.228 673.338 45.692 C 675.448 44.638 676.058 40.212 674.088 40.212 C 673.428 40.212 672.508 41.269 672.028 42.561 C 671.468 44.117 670.378 44.909 668.808 44.909 C 666.318 44.909 664.858 46.378 664.858 48.887 C 664.858 50.637 665.938 50.741 669.098 49.299 Z M 710.508 41.46 C 710.508 39.961 709.978 39.66 707.898 39.985 C 706.458 40.212 705.288 41.053 705.288 41.869 C 705.288 42.822 706.218 43.343 707.898 43.343 C 709.788 43.343 710.508 42.822 710.508 41.46 Z M 703.988 37.472 C 703.988 36.827 703.398 36.298 702.678 36.298 C 701.968 36.298 701.378 36.827 701.378 37.472 C 701.378 38.118 701.968 38.647 702.678 38.647 C 703.398 38.647 703.988 38.118 703.988 37.472 Z M 674.368 33.88 C 674.518 32.842 674.058 31.817 673.338 31.601 C 672.608 31.382 671.848 32.584 671.618 34.341 C 671.318 36.624 671.598 37.241 672.648 36.619 C 673.448 36.15 674.218 34.917 674.368 33.88 Z M 902.228 31.601 C 902.228 30.732 901.358 30.036 900.268 30.036 C 898.288 30.036 897.598 31.692 899.188 32.645 C 900.838 33.638 902.228 33.161 902.228 31.601 Z M 281.257 454.311 C 278.658 453.487 276.205 452.06 275.804 451.141 C 275.067 449.448 278.595 444.191 280.493 444.156 C 281.061 444.145 282.786 443.432 284.326 442.571 C 287.294 440.911 298.372 440.293 298.372 441.788 C 298.372 442.219 299.188 442.571 300.187 442.571 C 302.43 442.571 304.005 446.027 302.803 448.313 C 301.119 451.517 292.241 455.937 287.677 455.844 C 286.744 455.825 283.855 455.135 281.257 454.311 Z M 650.838 442.546 C 649.108 442.128 647.908 441.168 647.908 440.198 C 647.908 438.819 648.578 438.597 652.148 438.803 C 655.678 439.007 656.448 439.407 656.798 441.201 C 657.238 443.504 655.978 443.787 650.838 442.546 Z M 177.366 426.126 C 175.73 424.407 173.894 423.001 173.285 423.001 C 170.947 423.001 169.093 418.659 170.489 416.454 C 171.602 414.699 171.278 413.647 168.677 410.566 C 165.895 407.271 165.597 406.11 166.228 401.013 C 166.955 395.149 165.078 388.558 162.682 388.558 C 161.992 388.558 161.428 387.579 161.428 386.382 C 161.428 385.118 160.355 383.742 158.867 383.099 C 157.459 382.49 155.945 381.003 155.503 379.795 C 155.061 378.587 154.196 377.599 153.581 377.599 C 152.966 377.599 152.28 376.454 152.055 375.054 C 151.649 372.528 151.598 372.51 144.586 372.51 C 140.1 372.51 137.326 372.154 136.978 371.532 C 136.677 370.994 135.599 370.553 134.582 370.553 C 133.566 370.553 132.735 370.141 132.735 369.637 C 132.735 369.132 131.78 368.087 130.613 367.313 C 128.814 366.119 128.715 365.374 129.961 362.403 C 132.669 355.948 135.593 356.463 96.216 356.463 C 72.045 356.463 61.002 356.726 61.002 357.302 C 61.002 359.219 57.031 360.447 51.399 360.272 C 44.012 360.043 42.413 359.272 39.446 354.506 C 38.105 352.353 36.625 350.416 36.158 350.201 C 34.249 349.322 32.309 346.25 32.309 344.106 C 32.309 340.824 34.866 336.893 37.002 336.893 C 38.007 336.893 38.83 336.541 38.83 336.11 C 38.83 335.68 39.941 335.327 41.299 335.327 C 42.657 335.327 44.074 334.848 44.449 334.263 C 44.827 333.671 48.06 332.965 51.737 332.672 L 58.345 332.146 L 57.518 327.279 C 57.063 324.602 56.303 322.235 55.827 322.02 C 55.352 321.805 53.3 313.703 51.266 304.015 C 49.233 294.328 47.192 286.226 46.732 286.011 C 46.271 285.796 44.555 279.103 42.919 271.138 C 38.748 250.829 37.34 245.306 36.336 245.306 C 35.856 245.306 33.77 247.331 31.701 249.807 L -68.527 356.463 L -194.95 356.463 L -321.38 356.463 L -221.7 16.728 L -69.265 16.728 L 83.174 16.728 L 83.174 18.639 C 83.174 19.69 83.663 20.731 84.26 20.953 C 84.858 21.174 86.103 25.428 87.027 30.405 C 88.526 38.476 90.549 42.197 92.009 39.568 C 92.682 38.358 98.134 38.39 101.629 39.625 C 108.598 42.088 113.171 45.886 113.171 49.209 C 113.171 50.396 113.729 51.057 114.491 50.774 C 115.224 50.502 116.166 51.351 116.61 52.685 C 117.05 54.005 117.861 55.085 118.412 55.085 C 121.051 55.085 120.928 58.128 118.151 61.531 C 116.021 64.143 114.338 65.241 112.454 65.25 C 110.983 65.256 109.127 65.654 108.328 66.133 C 107.53 66.613 104.478 66.868 101.546 66.7 C 95.122 66.332 95.304 65.362 98.803 81.309 C 100.22 87.767 101.392 93.668 101.407 94.421 C 101.465 97.447 104.938 95.431 109.194 89.898 C 111.669 86.681 114.054 84.049 114.494 84.049 C 114.933 84.049 116.099 82.816 117.084 81.309 C 118.069 79.802 119.352 78.569 119.936 78.569 C 120.519 78.569 120.997 77.919 120.997 77.124 C 120.997 76.328 122.229 74.831 123.734 73.797 C 125.24 72.762 127.958 70.154 129.774 68.002 C 131.591 65.849 133.53 63.912 134.083 63.696 C 134.636 63.481 136.581 61.279 138.405 58.804 C 140.229 56.328 142.34 54.303 143.097 54.303 C 143.854 54.303 144.469 53.686 144.464 52.933 C 144.455 51.55 137.152 48.04 134.284 48.04 C 131.3 48.04 132.778 45.286 136.583 43.756 C 138.695 42.907 140.731 41.498 141.107 40.625 C 142.003 38.543 147.535 37.081 154.514 37.081 C 158.506 37.081 160.124 36.759 160.124 35.963 C 160.124 35.348 161.025 34.303 162.127 33.642 C 163.228 32.981 165.989 30.05 168.262 27.128 C 170.535 24.207 173.449 21.134 174.737 20.299 C 176.025 19.464 177.078 18.39 177.078 17.912 C 177.078 16.986 184.276 15.163 187.931 15.163 C 189.135 15.163 190.121 14.81 190.121 14.38 C 190.121 13.949 191.001 13.597 192.077 13.597 C 193.411 13.597 194.039 12.788 194.051 11.053 C 194.077 7.334 195.391 4.986 197.446 4.986 C 199.513 4.986 199.909 2.192 197.946 1.464 C 193.973 -0.01 199.008 -8.307 203.88 -8.316 C 205.351 -8.319 207.273 -8.753 208.152 -9.28 C 209.412 -10.037 210.289 -10.037 212.307 -9.28 C 213.714 -8.753 215.754 -8.321 216.84 -8.321 C 217.925 -8.321 218.814 -7.969 218.814 -7.538 C 218.814 -6.155 223.393 -6.704 225.335 -8.321 C 226.369 -9.182 227.966 -9.887 228.883 -9.887 C 229.801 -9.887 230.552 -10.415 230.552 -11.061 C 230.552 -11.713 231.711 -12.235 233.16 -12.235 C 234.595 -12.235 235.769 -12.559 235.769 -12.956 C 235.769 -13.352 239.584 -13.921 244.246 -14.221 C 248.909 -14.521 252.724 -15.077 252.724 -15.458 C 252.724 -15.838 262.408 -16.149 274.243 -16.149 C 293.163 -16.149 295.763 -15.997 295.763 -14.888 C 295.763 -13.88 296.645 -13.726 300.147 -14.12 C 303.264 -14.471 305.007 -14.27 306.176 -13.425 C 307.081 -12.77 308.629 -12.235 309.617 -12.235 C 310.605 -12.235 311.414 -11.71 311.414 -11.068 C 311.414 -10.426 313.48 -9.105 316.005 -8.133 C 318.53 -7.16 320.941 -5.572 321.363 -4.603 C 321.785 -3.634 322.654 -2.842 323.293 -2.842 C 323.933 -2.842 324.456 -2.313 324.456 -1.667 C 324.456 -1.022 325.583 -0.493 326.961 -0.493 C 328.703 -0.493 329.737 0.248 330.357 1.941 C 330.847 3.28 332.197 5.041 333.359 5.855 C 335.755 7.535 340.107 7.843 340.107 6.333 C 340.107 5.783 341.281 4.824 342.715 4.204 C 345.836 2.854 345.966 2.129 343.368 0.569 C 341.124 -0.778 340.806 -2.059 342.715 -2.059 C 343.433 -2.059 344.02 -2.587 344.02 -3.233 C 344.02 -4.691 353.148 -4.878 355.498 -3.468 C 356.718 -2.737 357.058 -2.737 357.058 -3.468 C 357.058 -4.93 361.868 -4.572 362.838 -3.037 C 365.778 1.649 370.448 3.492 372.238 0.681 C 372.698 -0.038 374.678 -0.493 377.338 -0.493 C 379.728 -0.493 382.048 -0.846 382.498 -1.276 C 382.938 -1.707 384.438 -2.059 385.828 -2.059 C 387.228 -2.059 388.358 -2.587 388.358 -3.233 C 388.358 -3.879 387.908 -4.407 387.348 -4.407 C 386.788 -4.407 385.588 -5.376 384.688 -6.56 C 381.198 -11.134 379.838 -12.235 377.708 -12.235 C 375.138 -12.235 372.888 -15.532 375.148 -15.984 C 375.958 -16.147 376.628 -16.753 376.628 -17.331 C 376.628 -17.91 377.588 -18.497 378.768 -18.636 C 380.038 -18.787 381.068 -19.815 381.308 -21.177 C 382.048 -25.367 384.518 -27.891 387.868 -27.891 C 389.578 -27.891 390.968 -27.449 390.968 -26.908 C 390.968 -26.367 392.798 -25.44 395.028 -24.848 C 398.478 -23.932 399.258 -23.933 400.228 -24.852 C 401.998 -26.531 401.628 -27.108 398.798 -27.108 C 397.058 -27.108 396.188 -27.63 396.188 -28.674 C 396.188 -29.544 395.318 -30.24 394.228 -30.24 C 393.148 -30.24 392.278 -30.934 392.278 -31.789 C 392.278 -33.393 396.068 -39.725 397.438 -40.416 C 397.868 -40.631 398.838 -41.681 399.608 -42.748 L 400.998 -44.689 L 402.668 -42.748 C 404.628 -40.481 410.468 -37.354 412.818 -37.313 C 414.538 -37.283 414.978 -39.458 413.658 -41.522 C 413.228 -42.2 412.348 -42.561 411.708 -42.322 C 411.058 -42.084 410.538 -42.262 410.538 -42.718 C 410.538 -43.174 409.798 -43.555 408.908 -43.565 C 408.008 -43.574 405.908 -44.214 404.238 -44.986 C 401.198 -46.387 401.198 -46.399 403.348 -50.84 C 404.578 -53.374 406.248 -55.289 407.238 -55.289 C 408.198 -55.289 409.588 -56.346 410.338 -57.638 C 411.088 -58.929 412.318 -59.986 413.078 -59.986 C 413.828 -59.986 414.448 -60.887 414.448 -61.989 C 414.448 -63.125 415.008 -63.783 415.748 -63.509 C 416.498 -63.233 417.058 -63.91 417.058 -65.082 C 417.058 -66.769 417.588 -67.095 419.988 -66.89 C 421.608 -66.752 423.508 -65.847 424.218 -64.878 C 424.918 -63.91 426.028 -63.117 426.678 -63.117 C 428.968 -63.117 431.318 -60.34 431.308 -57.638 C 431.298 -53.623 426.928 -37.101 426.018 -37.644 C 425.598 -37.899 424.858 -36.074 424.378 -33.587 C 423.898 -31.1 422.278 -24.441 420.788 -18.789 C 418.398 -9.749 417.788 -8.557 415.758 -8.877 C 412.878 -9.328 411.748 -8.321 412.688 -6.163 C 413.118 -5.157 414.108 -4.68 415.228 -4.937 C 416.438 -5.216 417.058 -4.801 417.058 -3.708 C 417.058 -2.801 416.578 -2.059 415.998 -2.059 C 415.418 -2.059 414.218 1.2 413.328 5.182 C 412.438 9.165 411.408 13.392 411.018 14.576 L 410.328 16.728 L 454.778 16.728 C 489.458 16.728 499.228 16.943 499.228 17.707 C 499.258 20.134 494.858 36.731 494.098 37.081 C 493.638 37.296 492.218 41.876 490.938 47.257 C 489.668 52.639 488.338 57.747 487.998 58.608 C 487.378 60.139 486.388 60.17 443.348 60.027 C 419.148 59.946 398.738 60.122 398.008 60.418 C 388.628 88.623 380.048 116.749 372.638 145.107 C 368.198 161.769 368.258 160.326 371.878 161.488 C 375.398 162.619 376.758 164.591 375.698 167.026 C 374.868 168.944 373.048 169.014 369.798 167.253 C 367.938 166.238 367.098 166.147 366.348 166.877 C 365.798 167.406 364.008 173.381 362.358 180.153 C 343.007 237.988 330.294 297.395 310.599 355.093 C 309.981 356.367 306.455 356.463 260.461 356.463 C 212.575 356.463 210.988 356.415 210.988 354.963 C 210.988 354.137 211.483 353.345 212.088 353.201 C 218.499 334.795 224.767 316.163 226.149 297.362 L 226.665 285.62 L 230.738 283.519 C 233.475 282.107 234.538 280.993 233.98 280.121 C 233.524 279.407 233.995 276.83 235.028 274.393 C 256.35 215.396 266.162 154.304 289.376 95.791 C 291.643 95.791 290.515 92.759 288.075 92.294 C 286.527 92 285.278 90.784 284.735 89.045 C 284.092 86.99 283.35 86.385 281.883 86.723 C 280.792 86.975 279.654 87.18 279.354 87.18 C 279.054 87.18 278.808 87.729 278.808 88.401 C 278.808 89.072 279.395 89.403 280.112 89.137 C 280.83 88.871 281.417 89.379 281.417 90.265 C 281.417 91.176 280.566 91.877 279.46 91.877 C 278.384 91.877 277.504 92.229 277.504 92.66 C 277.504 93.09 276.917 93.443 276.2 93.443 C 275.482 93.443 274.896 92.738 274.896 91.877 C 274.896 90.729 274.026 90.311 271.635 90.311 C 269.842 90.311 268.334 90.576 268.286 90.898 C 268.237 91.221 267.813 93.775 267.345 96.574 C 266.876 99.372 266.568 105.45 266.661 110.08 C 266.826 118.356 266.776 118.507 263.692 118.971 C 256.932 119.99 254.789 117.21 258.03 111.629 C 259.154 109.694 258.978 108.724 257.121 106.62 C 255.854 105.185 254.786 103.522 254.749 102.924 C 254.63 101.05 250.627 100.041 248.169 101.266 C 246.562 102.066 246.219 103.034 246.839 105.017 C 247.449 106.97 247.073 108.089 245.445 109.169 C 243.599 110.393 243.343 111.657 243.955 116.519 C 244.768 122.964 243.195 127.886 240.323 127.886 C 238.027 127.886 235.352 133.286 235.217 138.192 C 235.162 140.201 234.676 142.109 234.138 142.432 C 233.6 142.755 233.16 144.48 233.16 146.265 C 233.16 148.994 232.51 149.798 229.069 151.325 C 225.401 152.953 224.855 153.009 223.787 151.864 C 223.133 151.161 221.672 150.587 220.542 150.587 C 218.937 150.587 218.666 150.052 219.303 148.141 C 219.751 146.795 220.118 145.034 220.118 144.227 C 220.118 143.419 220.998 142.759 222.074 142.759 C 223.433 142.759 224.031 141.939 224.031 140.075 C 224.031 138.599 224.911 136.863 225.987 136.217 C 227.254 135.457 227.943 133.519 227.943 130.718 C 227.943 126.728 229.823 122.599 232.093 121.6 C 232.612 121.372 233.201 117.467 233.403 112.921 C 233.707 106.06 233.401 104.435 231.602 103.355 C 230.409 102.639 228.805 102.053 228.037 102.053 C 226.345 102.053 226.341 101.55 227.975 94.767 C 229.585 88.083 228.383 86.397 222.007 86.397 C 218.114 86.397 217.161 86.783 215.317 89.104 C 214.135 90.592 212.775 91.665 212.296 91.487 C 211.818 91.309 210.088 93.614 208.452 96.609 C 206.816 99.603 204.957 102.053 204.321 102.053 C 203.684 102.053 203.163 102.596 203.163 103.26 C 203.163 103.924 202.049 105.185 200.687 106.062 C 199.325 106.94 197.835 109.163 197.375 111.003 C 196.84 113.144 195.383 114.953 193.33 116.024 C 191.565 116.945 190.121 118.512 190.121 119.505 C 190.121 120.498 189.497 121.685 188.734 122.142 C 187.972 122.6 187.296 124.079 187.232 125.43 C 187.168 126.781 186.583 127.886 185.933 127.886 C 185.282 127.886 185.113 128.238 185.556 128.669 C 186.025 129.124 184.715 129.451 182.418 129.451 C 179.823 129.451 178.002 128.922 177.093 127.902 C 175.741 126.386 176.541 122.407 178.198 122.405 C 178.658 122.405 180.673 121.559 182.675 120.525 C 185.997 118.81 191.425 111.532 191.425 108.792 C 191.425 108.171 192.003 107.546 192.71 107.402 C 193.416 107.259 194.539 105.391 195.204 103.251 C 195.869 101.11 197.051 99.232 197.832 99.076 C 198.612 98.919 199.25 98.309 199.25 97.718 C 199.25 97.128 200.718 95.764 202.511 94.688 C 206.654 92.201 206.603 91.877 202.068 91.877 C 199.384 91.877 197.956 92.415 196.879 93.834 C 196.062 94.91 194.644 95.791 193.728 95.791 C 192.811 95.791 191.282 96.848 190.33 98.139 C 188.336 100.843 185.9 101.106 182.17 99.02 C 179.711 97.645 179.684 97.47 181.742 96.235 C 182.949 95.51 184.232 93.346 184.593 91.425 C 185.479 86.709 182.51 87.369 178.249 92.837 C 176.529 95.044 174.535 97.228 173.818 97.69 C 173.101 98.152 170.521 100.82 168.085 103.619 C 165.649 106.417 163.233 108.883 162.717 109.099 C 162.201 109.314 160.122 111.601 158.098 114.182 C 156.073 116.762 153.5 119.467 152.379 120.192 C 151.259 120.918 148.933 123.65 147.211 126.264 C 145.489 128.878 143.561 131.017 142.926 131.017 C 142.291 131.017 140.663 132.57 139.307 134.468 C 137.952 136.366 136.065 138.215 135.115 138.578 C 134.164 138.94 131.626 141.497 129.474 144.26 C 127.322 147.023 124.975 149.681 124.257 150.167 C 121.3 152.169 118.388 156.346 118.388 158.586 C 118.388 162.508 122.612 181.475 123.579 181.899 C 124.071 182.114 125.433 186.87 126.607 192.467 C 127.78 198.064 129.737 207.399 130.956 213.211 C 132.174 219.023 133.577 223.955 134.074 224.17 C 134.571 224.385 136.64 232.487 138.673 242.174 C 140.705 251.861 142.762 259.963 143.244 260.179 C 143.726 260.394 144.546 262.651 145.068 265.194 C 146.344 271.416 146.786 271.921 150.975 271.921 C 153.762 271.921 154.961 272.459 156.211 274.269 C 157.102 275.561 158.641 276.618 159.63 276.618 C 160.619 276.618 161.428 276.97 161.428 277.4 C 161.428 277.831 162.59 278.183 164.011 278.183 C 165.627 278.183 166.88 278.864 167.355 280.001 C 167.837 281.153 169.74 282.171 172.555 282.782 C 176.027 283.536 177.286 284.376 178.333 286.64 C 182.104 294.788 176.96 304.736 168.477 305.703 C 166.801 305.894 165.876 306.748 165.635 308.328 C 164.84 313.531 164.194 314.245 160.746 313.726 C 156.976 313.158 156.261 314.893 159.471 316.82 C 161.842 318.243 161.924 319.215 159.843 321.216 C 158.598 322.412 158.598 323.306 159.843 325.371 C 160.714 326.818 161.428 329.65 161.428 331.665 C 161.428 333.679 161.968 335.327 162.628 335.327 C 164.261 335.327 165.643 339.439 165.632 344.262 C 165.627 346.452 166.211 348.91 166.931 349.725 C 167.651 350.54 168.354 354.415 168.494 358.336 C 168.758 365.722 171.519 375.25 173.396 375.25 C 173.987 375.25 174.47 376.796 174.47 378.685 C 174.47 380.574 175.937 385.159 177.731 388.873 C 179.997 393.567 180.991 397.533 180.991 401.877 C 180.991 405.522 181.535 408.128 182.295 408.128 C 183.013 408.128 183.6 408.744 183.601 409.498 C 183.602 410.251 185.069 411.891 186.862 413.142 C 190.675 415.803 190.752 416.25 188.164 420.652 C 187.088 422.483 186.208 425.169 186.208 426.622 C 186.208 428.841 185.739 429.262 183.274 429.257 C 181.222 429.253 179.444 428.311 177.366 426.126 Z M -99.89 313.547 C -60.55 272.984 -21.233 231.996 17.658 191.655 C 23.238 188.009 21.745 184.384 19.421 173.347 C 10.544 144.022 5.336 114.257 -2.956 84.832 C -4.694 77.922 -11.155 35.267 -18.312 39.558 C -20.42 46.204 -20.774 53.219 -24.771 59.391 C -25.383 59.891 -45.496 60.174 -80.507 60.174 L -135.28 60.174 L -165.52 160.763 L -69.421 160.763 C -71.699 172.945 -77.328 185.236 -81.159 197.491 C -83.414 202.676 -78.02 202.252 -130.69 202.252 L -178.64 202.252 C -188.16 235.665 -196.13 269.239 -207.69 302.45 C -209.28 306.145 -211.36 313.279 -210.44 313.833 C -209.42 314.444 -101.44 314.164 -99.89 313.547 Z M 194.989 78.374 C 196.88 76.922 199.268 72.307 198.128 72.307 C 197.585 72.307 195.926 73.892 194.441 75.83 C 191.893 79.155 192.187 80.524 194.989 78.374 Z M 417.548 -12.86 C 417.898 -13.203 417.698 -13.959 417.098 -14.539 C 415.638 -15.965 411.668 -14.983 412.658 -13.439 C 413.468 -12.164 416.468 -11.81 417.548 -12.86 Z M 404.808 -21.301 C 404.368 -21.982 404.018 -22.863 404.018 -23.258 C 404.018 -23.654 403.138 -23.977 402.058 -23.977 C 399.678 -23.977 399.528 -22.736 401.728 -21.234 C 403.938 -19.733 405.778 -19.773 404.808 -21.301 Z M 424.218 -43.352 C 423.708 -44.105 422.998 -45.313 422.648 -46.037 C 421.808 -47.783 418.358 -48.555 418.358 -46.997 C 418.358 -45.599 422.408 -42.042 424.038 -42.006 C 424.658 -41.993 424.738 -42.598 424.218 -43.352 Z M 417.528 -50.201 C 417.988 -50.916 417.528 -51.375 416.358 -51.375 C 415.308 -51.375 414.448 -50.847 414.448 -50.201 C 414.448 -49.555 414.968 -49.027 415.608 -49.027 C 416.258 -49.027 417.118 -49.555 417.528 -50.201 Z M 670.408 406.826 C 669.508 406.609 668.768 405.587 668.768 404.555 C 668.768 403.217 669.688 402.54 671.958 402.198 C 675.828 401.615 677.898 402.28 677.898 404.103 C 677.898 406.577 674.488 407.816 670.408 406.826 Z M 1034.51 406.627 C 1034.21 406.448 1033.96 405.655 1033.96 404.866 C 1033.96 403.875 1032.99 403.431 1030.84 403.431 C 1028.24 403.431 1027.63 402.97 1027.19 400.667 C 1026.89 399.147 1026.92 397.738 1027.26 397.536 C 1027.6 397.334 1030.42 397.169 1033.52 397.169 C 1037.68 397.169 1039.18 397.48 1039.18 398.343 C 1039.18 398.989 1040.04 399.517 1041.1 399.517 C 1043.72 399.517 1047.03 403.581 1046.12 405.671 C 1045.5 407.102 1044.57 407.336 1040.22 407.161 C 1037.38 407.047 1034.81 406.807 1034.51 406.627 Z M 1019.91 404.204 C 1017.76 402.141 1017.89 401.083 1020.3 401.083 C 1022.83 401.083 1024.09 402.963 1022.62 404.538 C 1021.65 405.576 1021.28 405.531 1019.91 404.204 Z M 456.188 396.943 C 450.808 395.321 450.898 387.775 456.288 387.775 C 457.748 387.775 458.578 387.423 458.138 386.992 C 457.698 386.562 457.958 386.209 458.718 386.209 C 459.478 386.209 460.098 386.562 460.098 386.992 C 460.098 387.423 461.768 387.775 463.808 387.775 C 471.178 387.775 474.048 392.139 469.128 395.889 C 466.138 398.174 461.508 398.551 456.188 396.943 Z M 1038.85 394.253 C 1036.85 394.075 1035.26 393.436 1035.26 392.811 C 1035.26 392.194 1034.38 391.689 1033.31 391.689 C 1032.23 391.689 1031.35 391.299 1031.35 390.823 C 1031.35 390.347 1029.88 389.265 1028.09 388.418 C 1024.37 386.663 1023.96 385.055 1026.78 383.359 C 1029.86 381.513 1034.36 382.366 1036.57 385.214 C 1037.73 386.717 1039.51 387.748 1040.95 387.758 C 1042.56 387.769 1043.12 388.168 1042.62 388.949 C 1042.15 389.679 1042.62 390.123 1043.87 390.123 C 1045.27 390.123 1045.75 390.749 1045.46 392.216 C 1045.01 394.497 1044.24 394.734 1038.85 394.253 Z M 467.598 385.622 C 467.338 385.299 466.978 383.937 466.788 382.595 C 466.418 379.895 468.848 379.038 474.888 379.732 C 477.248 380.003 478.448 380.762 479.028 382.359 C 479.488 383.595 479.478 384.966 479.028 385.407 C 478.078 386.326 468.318 386.509 467.598 385.622 Z M 710.348 382.879 C 708.468 382.431 705.948 381.066 704.748 379.846 C 702.858 377.925 702.788 377.178 704.208 374.286 C 706.378 369.862 708.238 368.861 715.128 368.395 C 719.658 368.088 721.068 368.278 721.708 369.279 C 722.158 369.98 723.338 370.553 724.338 370.553 C 725.338 370.553 727.308 371.243 728.708 372.086 C 731.698 373.88 731.388 378.215 728.168 379.627 C 727.068 380.113 726.158 380.786 726.158 381.121 C 726.158 383.453 717.018 384.469 710.348 382.879 Z M 1061.35 380.73 C 1059.87 379.074 1061.56 376.033 1063.96 376.033 C 1066.17 376.033 1068.18 379.169 1066.67 380.265 C 1065.91 380.815 1065.67 381.497 1066.14 381.78 C 1066.61 382.064 1066.04 382.295 1064.87 382.295 C 1063.7 382.295 1062.11 381.591 1061.35 380.73 Z M -540.77 18.098 C -540.12 16.822 -536.33 16.728 -485.29 16.728 C -462.34 16.974 -439.14 16.039 -416.58 18.968 C -332.64 28.772 -304.99 72.695 -285.91 120.792 C -284.85 124.283 -291.41 121.546 -284.43 127.103 C -259.96 248.386 -358.77 352.489 -526.05 355.741 C -528.64 356.138 -555.56 356.463 -585.87 356.463 L -640.97 356.463 C -607.23 243.724 -574.11 130.89 -540.77 18.098 Z M -463.85 70.651 L -532.7 303.441 C -407.85 354.432 -299.28 61.348 -463.85 70.651 Z M 330.344 350.425 C 327.281 349.94 323.152 347.27 323.152 345.775 C 323.152 345.196 321.978 344.721 320.544 344.721 C 317.645 344.721 317.033 343.538 319.565 342.829 C 320.87 342.464 320.87 342.281 319.565 341.916 C 315.024 340.644 321.931 332.979 327.618 332.979 C 331.551 332.979 335.063 331.356 336.928 328.676 C 338.648 326.207 344.753 323.585 348.785 323.585 C 349.751 323.585 350.541 323.202 350.541 322.732 C 350.541 321.376 356.128 318.943 359.318 318.915 C 360.938 318.9 363.158 318.027 364.358 316.932 C 365.558 315.833 367.738 314.975 369.338 314.975 C 370.908 314.975 372.748 314.665 373.428 314.287 C 374.108 313.908 376.878 313.363 379.578 313.075 C 383.358 312.671 384.658 312.828 385.258 313.759 C 385.678 314.422 386.558 314.771 387.198 314.533 C 387.838 314.294 388.358 314.972 388.358 316.037 C 388.358 318.45 386.858 318.786 378.298 318.288 C 371.548 317.895 371.428 317.926 365.578 321.646 C 362.328 323.711 359.668 325.696 359.668 326.058 C 359.668 326.42 358.908 326.717 357.988 326.717 C 357.058 326.717 355.588 328.307 354.728 330.25 C 352.868 334.42 352.708 336.893 354.288 336.893 C 354.918 336.893 355.798 337.986 356.238 339.322 C 357.738 343.8 349.562 350.193 342.322 350.211 C 340.028 350.217 336.977 350.36 335.542 350.529 C 334.108 350.697 331.768 350.651 330.344 350.425 Z M 999.038 308.272 C 998.408 307.599 996.828 306.955 995.538 306.84 C 989.698 306.326 984.118 300.529 985.458 296.35 C 985.768 295.363 988.068 293.294 990.558 291.753 C 994.818 289.12 995.458 288.981 1001.1 289.446 C 1004.41 289.718 1007.7 290.289 1008.41 290.715 C 1009.12 291.142 1011.05 291.491 1012.7 291.491 C 1014.35 291.491 1015.7 291.89 1015.7 292.378 C 1015.7 292.866 1017.12 294.011 1018.85 294.922 C 1023.42 297.325 1023.94 302.799 1019.68 303.611 C 1018.28 303.878 1016.73 304.869 1016.23 305.814 C 1014.88 308.369 1011.77 309.442 1005.66 309.47 C 1002.01 309.487 999.798 309.086 999.038 308.272 Z M 963.528 235.362 C 962.448 235.108 961.098 234.423 960.528 233.84 C 959.958 233.258 958.698 232.781 957.738 232.781 C 954.418 232.781 953.098 227.614 955.968 225.892 C 957.178 225.162 956.728 224.953 953.948 224.953 C 950.578 224.953 943.968 221.765 943.968 220.142 C 943.968 219.774 943.148 219.473 942.148 219.473 C 939.708 219.473 938.748 217.726 938.768 213.342 C 938.778 210.695 939.138 210.012 940.048 210.862 C 940.988 211.73 941.318 211.766 941.338 211.002 C 941.358 209.601 944.628 207.731 947.058 207.731 C 948.138 207.731 949.388 207.379 949.828 206.948 C 950.918 205.899 955.698 205.961 962.908 207.118 C 967.298 207.823 969.028 208.535 969.588 209.858 C 970.018 210.895 971.318 211.645 972.688 211.645 C 973.988 211.645 975.978 211.858 977.108 212.118 C 979.448 212.658 981.648 210.223 979.548 209.414 C 978.818 209.134 977.828 208.15 977.358 207.226 C 976.308 205.223 980.178 199.903 982.678 199.903 C 983.628 199.903 984.398 199.526 984.398 199.065 C 984.398 197.718 987.908 195.989 990.648 195.989 C 992.598 195.989 993.028 195.57 992.558 194.103 C 992.228 193.066 990.848 192.042 989.488 191.828 C 985.848 191.257 985.938 184.785 989.608 183.243 C 991.038 182.642 991.818 181.917 991.338 181.633 C 990.868 181.349 991.168 181.116 992.008 181.116 C 994.338 181.116 993.808 178.954 991.248 177.978 C 989.608 177.357 989.428 176.994 990.588 176.7 C 991.488 176.474 992.218 175.919 992.218 175.467 C 992.218 174.077 999.228 170.942 1002.33 170.941 C 1004.48 170.94 1005.26 170.481 1005.26 169.234 C 1005.26 166.559 1008.22 162.329 1010.09 162.329 C 1011.02 162.329 1011.79 161.977 1011.79 161.546 C 1011.79 161.111 1015.28 160.763 1019.67 160.763 C 1028.7 160.763 1031.41 161.836 1033.84 166.36 C 1035.82 170.044 1034.47 173.21 1030.53 174.109 C 1028.83 174.497 1027.44 175.352 1027.44 176.008 C 1027.44 177.363 1027.45 177.363 1019.94 176.49 C 1014.94 175.91 1014.4 175.997 1014.4 177.38 C 1014.4 178.224 1015.47 179.083 1016.78 179.289 C 1018.1 179.495 1020.01 180.376 1021.02 181.246 C 1022.04 182.116 1023.86 183.528 1025.07 184.385 C 1026.29 185.241 1027.68 187.057 1028.17 188.421 C 1028.67 189.785 1029.73 191.192 1030.53 191.548 C 1031.6 192.018 1031.56 192.303 1030.37 192.591 C 1029.48 192.81 1028.74 193.468 1028.74 194.053 C 1028.74 195.766 1023.33 197.555 1018.16 197.555 C 1015.1 197.555 1013.1 197.98 1012.62 198.729 C 1012.21 199.375 1012.34 199.903 1012.92 199.903 C 1014.22 199.903 1017 203.45 1017 205.106 C 1017 208.337 1012.6 211.781 1006.38 213.411 C 1002.9 214.323 1000.05 215.356 1000.05 215.706 C 1000.05 216.056 999.128 216.342 998.008 216.342 C 996.898 216.342 996.338 216.694 996.788 217.125 C 997.228 217.555 996.678 217.908 995.558 217.908 C 994.388 217.908 993.528 218.579 993.528 219.498 C 993.528 220.372 992.648 221.291 991.568 221.539 C 990.498 221.786 989.608 222.606 989.608 223.36 C 989.608 224.339 988.028 224.933 984.068 225.441 C 978.868 226.107 978.518 226.321 978.398 228.879 C 978.208 233.098 976.618 235.128 973.488 235.14 C 971.958 235.146 969.528 235.302 968.088 235.488 C 966.658 235.673 964.608 235.617 963.528 235.362 Z M 1110.48 194.561 C 1106.19 194.266 1099.25 190.081 1099.23 187.77 C 1099.22 186.909 1100.89 185.059 1102.95 183.66 C 1106.06 181.541 1107.61 181.116 1112.23 181.116 C 1116.28 181.116 1118.43 181.57 1120.21 182.801 C 1124.24 185.589 1123.13 189.267 1118.1 189.841 C 1116.67 190.003 1115.31 190.749 1115.07 191.497 C 1114.74 192.505 1115.5 192.858 1117.99 192.858 C 1119.83 192.858 1121.34 193.17 1121.34 193.552 C 1121.34 194.382 1115.61 194.914 1110.48 194.561 Z M 966.198 188.6 C 965.348 187.98 964.828 186.483 965.068 185.273 C 965.428 183.374 966.118 183.041 970.138 182.839 C 974.068 182.64 975.028 182.919 976.338 184.645 C 978.488 187.473 976.328 189.727 971.468 189.727 C 969.428 189.727 967.058 189.22 966.198 188.6 Z M 1036.05 185.159 C 1035.68 184.799 1035.83 183.478 1036.38 182.223 C 1037.82 178.975 1042.22 178.748 1044.33 181.812 C 1045.22 183.099 1045.56 184.526 1045.09 184.983 C 1044.08 185.965 1037.02 186.102 1036.05 185.159 Z M 202.185 179.815 C 200.353 179.371 199.912 174.071 201.707 174.071 C 202.709 174.071 203.674 172.78 204.213 170.716 C 204.419 169.928 207.932 167.808 209.032 167.808 C 211.037 167.808 213.267 165.581 214.145 162.701 C 215.291 158.944 218.178 156.066 220.8 156.066 C 222.304 156.066 222.726 157.196 222.726 161.211 C 222.726 166.669 221.137 168.558 216.735 168.329 C 214.922 168.235 214.137 168.786 213.834 170.366 C 213.606 171.557 212.872 172.329 212.204 172.081 C 211.535 171.833 210.988 172.685 210.988 173.974 C 210.988 179.06 207.801 181.175 202.185 179.815 Z M 1086.13 171.722 C 1086.13 171.292 1084.95 170.94 1083.52 170.94 C 1082.07 170.94 1080.91 170.418 1080.91 169.765 C 1080.91 169.12 1080.12 168.591 1079.16 168.591 C 1076.39 168.591 1072.95 165.84 1071.76 162.67 C 1070.85 160.239 1071.19 159.267 1073.88 156.713 C 1075.65 155.034 1077.54 153.828 1078.1 154.034 C 1078.65 154.239 1080.18 153.548 1081.49 152.497 C 1083.62 150.797 1084.87 150.587 1092.83 150.587 C 1098.32 150.587 1101.78 150.911 1101.78 151.426 C 1101.78 152.303 1105.09 154.577 1106.3 154.529 C 1109.73 154.391 1110.85 154.716 1111.56 156.066 C 1112.07 157.041 1113.53 157.632 1115.42 157.632 C 1118.51 157.632 1120.04 158.939 1120.04 161.578 C 1120.04 163.411 1114.24 166.822 1108.62 168.288 C 1106.29 168.897 1104.39 169.743 1104.39 170.167 C 1104.39 170.592 1102.07 170.94 1099.25 170.94 C 1096.42 170.94 1093.74 171.292 1093.3 171.722 C 1092.86 172.153 1091.06 172.505 1089.31 172.505 C 1087.56 172.505 1086.13 172.153 1086.13 171.722 Z M 160.124 151.762 C 158.831 150.826 158.831 150.112 160.123 148.239 C 161.015 146.947 162.151 145.89 162.649 145.89 C 163.996 145.89 167.949 140.595 167.949 138.791 C 167.949 136.797 171.775 133.241 173.308 133.81 C 173.947 134.047 174.47 133.843 174.47 133.357 C 174.47 132.871 175.791 132.586 177.405 132.724 C 179.455 132.899 180.253 133.446 180.054 134.54 C 179.273 138.827 177.825 141.326 175.102 143.089 C 173.455 144.156 171.419 146.28 170.579 147.808 C 169.738 149.336 168.509 150.587 167.848 150.587 C 167.186 150.587 166.645 151.115 166.645 151.761 C 166.645 153.191 165.154 153.267 162.801 151.957 C 161.396 151.174 161.229 151.174 161.965 151.957 C 163.235 153.307 162.094 153.186 160.124 151.762 Z M 410.068 151.761 C 409.648 151.115 408.118 150.587 406.668 150.587 C 405.208 150.587 404.018 150.235 404.018 149.804 C 404.018 149.374 402.508 149.021 400.658 149.021 C 397.288 149.021 393.578 147.447 393.578 146.011 C 393.578 145.586 393.038 145.12 392.378 144.977 C 391.708 144.833 390.978 144.199 390.748 143.567 C 390.418 142.694 391.418 142.474 394.888 142.654 C 397.398 142.784 400.008 143.213 400.688 143.608 C 401.368 144.002 403.168 144.325 404.678 144.325 C 406.198 144.325 408.628 144.993 410.088 145.81 C 411.548 146.627 413.868 147.422 415.228 147.578 C 416.948 147.773 417.838 148.64 418.118 150.398 C 418.498 152.742 418.238 152.935 414.668 152.935 C 412.448 152.935 410.498 152.438 410.068 151.761 Z M 719.638 57.183 C 719.638 55.424 723.038 54.165 727.058 54.442 C 729.718 54.625 730.728 55.125 730.728 56.26 C 730.728 57.542 729.718 57.869 725.178 58.066 C 721.048 58.245 719.638 58.021 719.638 57.183 Z M 430.098 -65.857 C 429.268 -67.364 427.758 -68.597 426.738 -68.597 C 424.328 -68.597 424.128 -75.327 426.508 -75.909 C 429.008 -76.516 425.148 -77.899 419.338 -78.482 C 414.988 -78.919 414.448 -79.225 414.448 -81.268 C 414.448 -82.598 414.998 -83.359 415.748 -83.079 C 416.498 -82.801 417.058 -83.506 417.058 -84.73 C 417.058 -85.904 417.708 -89.095 418.498 -91.821 L 419.938 -96.778 L 431.678 -96.778 C 443.198 -96.778 443.408 -96.744 442.708 -95.016 C 442.308 -94.048 440.688 -87.707 439.088 -80.926 C 437.498 -74.145 435.698 -68.597 435.098 -68.597 C 434.498 -68.597 434.008 -67.364 434.008 -65.857 C 434.008 -64.35 433.468 -63.117 432.808 -63.117 C 432.148 -63.117 430.928 -64.35 430.098 -65.857 Z" id="path2384" style="fill-opacity: 1; fill: rgb(255, 255, 255);"/>
  </g>
</svg>