<?xml version="1.0" standalone="no"?>
<!DOCTYPE svg PUBLIC "-//W3C//DTD SVG 20010904//EN"
 "http://www.w3.org/TR/2001/REC-SVG-20010904/DTD/svg10.dtd">
<svg version="1.0" xmlns="http://www.w3.org/2000/svg"
 width="1600.000000pt" height="1080.000000pt" viewBox="0 0 1600.000000 1080.000000"
 preserveAspectRatio="xMidYMid meet">
<metadata>
Created by potrace 1.16, written by Peter Selinger 2001-2019
</metadata>
<g transform="translate(0.000000,1080.000000) scale(0.100000,-0.100000)"
fill="#000000" stroke="none">
<path d="M0 5400 l0 -5400 8000 0 8000 0 0 5400 0 5400 -2642 -1 c-2276 -1
-2636 -3 -2593 -15 28 -7 62 -14 78 -14 15 0 27 -5 27 -10 0 -13 -73 -7 -155
11 -34 8 -59 9 -63 3 -11 -15 -32 -15 -26 0 3 7 -2 16 -11 20 -9 3 -14 2 -11
-2 2 -4 -2 -16 -9 -26 -14 -18 -15 -18 -26 8 l-12 26 -646 -1 c-355 -1 -638
-3 -628 -6 20 -5 22 -19 4 -26 -18 -7 -96 8 -109 21 -13 13 -48 3 -42 -13 9
-22 -21 -23 -77 -2 -51 20 -76 21 -421 24 -287 2 -368 0 -374 -9 -4 -7 -4 -10
0 -6 10 9 143 -29 170 -48 20 -14 19 -15 -16 -10 -98 15 -114 19 -126 28 -7 6
-15 8 -19 5 -3 -3 -18 0 -33 8 -15 8 -29 13 -31 11 -11 -10 -78 -13 -76 -3 1
6 -3 11 -10 12 -6 0 -15 3 -19 8 -11 11 -274 9 -274 -3 0 -5 -7 -10 -16 -10
-8 0 -12 -4 -9 -10 3 -5 -3 -10 -14 -10 -11 0 -23 5 -26 10 -3 6 -15 10 -26
10 -10 0 -19 -4 -19 -10 0 -5 5 -10 11 -10 6 0 3 -7 -6 -16 -9 -9 -19 -13 -23
-10 -3 4 0 11 8 16 13 8 12 10 -2 10 -10 0 -18 7 -18 15 0 8 -4 15 -10 15 -5
0 -10 -11 -10 -24 0 -30 -13 -35 -64 -25 -46 8 -71 0 -105 -31 -21 -20 -21
-24 -7 -32 9 -5 25 -6 36 -3 18 6 18 8 5 21 -8 9 -15 16 -15 17 0 1 28 0 62
-3 36 -3 63 -10 66 -17 5 -16 -54 -18 -63 -3 -8 13 -25 3 -25 -13 0 -7 19 -13
51 -14 l51 -2 -6 32 c-4 20 -3 27 3 18 5 -7 14 -10 20 -7 7 5 10 2 9 -6 -2 -8
6 -13 19 -12 13 0 21 -2 18 -4 -11 -11 75 -49 126 -56 29 -4 58 -11 64 -16 5
-4 19 -10 30 -13 13 -4 9 -5 -10 -4 -17 1 -35 -2 -40 -5 -12 -7 -58 -3 -95 8
l-25 7 19 -22 c15 -17 27 -20 48 -16 35 8 36 2 3 -19 -15 -10 -31 -13 -38 -9
-44 28 -147 44 -147 22 0 -6 -8 -8 -19 -4 -25 8 -35 -9 -15 -25 11 -10 18 -10
26 -2 9 9 17 7 35 -10 14 -13 40 -23 71 -26 43 -4 51 -1 65 18 18 26 39 18 35
-13 -3 -19 5 -23 62 -35 36 -7 82 -14 102 -16 21 -1 40 -5 44 -8 3 -4 17 -3
29 2 30 11 89 -15 81 -36 -3 -8 -1 -14 3 -14 5 0 11 -7 14 -14 4 -10 1 -13 -9
-9 -7 3 -14 9 -14 13 0 4 -11 19 -25 34 -21 23 -27 25 -44 14 -11 -6 -17 -17
-14 -23 3 -5 0 -4 -8 3 -20 18 -47 15 -59 -8 -13 -24 -48 -27 -57 -5 -3 9 3
22 13 31 18 14 16 14 -16 8 -19 -4 -60 -7 -90 -8 -46 -1 -55 -4 -54 -18 2 -20
-9 -23 -35 -8 -11 6 -30 6 -49 1 -23 -7 -32 -6 -36 5 -3 9 -20 14 -46 14 -23
0 -50 5 -60 10 -11 6 -21 6 -24 1 -6 -9 45 -31 73 -31 9 0 27 -6 41 -13 14 -7
41 -14 60 -15 43 -3 59 -7 84 -17 10 -5 38 -9 62 -9 24 -1 44 -4 44 -7 0 -7
103 -24 128 -22 6 0 12 -7 12 -18 0 -10 5 -21 10 -24 6 -3 10 1 10 10 0 13 8
15 53 9 28 -4 68 -13 89 -20 20 -7 39 -10 42 -7 3 3 13 2 23 -2 30 -13 46 -16
107 -21 32 -3 67 -9 77 -14 10 -6 27 -10 38 -10 15 0 21 -7 21 -22 1 -21 2
-22 14 -5 14 18 36 23 36 8 0 -4 -9 -20 -20 -34 -23 -29 -84 -46 -109 -30 -10
7 -30 5 -60 -4 -50 -15 -58 -11 -63 32 -3 26 -10 32 -48 45 -25 8 -54 20 -65
26 -23 13 -83 26 -139 30 -21 1 -42 7 -45 13 -8 12 -51 3 -51 -10 0 -5 -9 -9
-20 -9 -11 0 -20 4 -20 9 0 5 -21 8 -47 6 -60 -5 -86 2 -79 21 3 8 -1 14 -9
14 -8 0 -15 -4 -15 -10 0 -5 -11 -10 -25 -10 -14 0 -25 -4 -25 -10 0 -5 -7
-10 -15 -10 -8 0 -15 6 -15 14 0 7 -15 16 -32 20 -18 3 -46 9 -62 12 -22 5
-27 4 -21 -6 6 -9 3 -10 -15 0 -20 11 -21 10 -15 -12 10 -30 7 -29 43 -22 18
4 29 10 26 15 -3 5 6 4 20 -2 20 -9 24 -17 20 -35 -5 -20 -3 -22 23 -19 15 2
38 -3 50 -11 12 -8 33 -14 46 -14 13 0 32 -6 43 -14 18 -14 18 -15 -8 -21 -15
-4 -31 -4 -37 -1 -19 12 -141 18 -141 6 0 -16 42 -29 67 -19 16 6 21 5 17 -4
-5 -14 -51 -37 -72 -37 -7 0 -12 -6 -10 -12 3 -8 22 -13 45 -14 22 0 46 -4 53
-9 7 -4 65 -9 129 -11 316 -10 367 -13 385 -20 12 -4 17 -4 13 2 -3 6 8 8 29
6 19 -2 34 -7 34 -11 0 -9 -14 -10 -282 -12 -120 -2 -218 -5 -218 -8 1 -16 88
-48 117 -44 24 4 34 1 39 -11 5 -13 9 -14 21 -4 11 9 17 9 25 -3 7 -11 11 -11
15 -1 4 10 8 10 21 0 9 -7 13 -8 9 -2 -3 6 4 16 16 21 25 12 207 8 252 -5 21
-6 33 -5 40 4 8 10 19 11 51 2 31 -9 44 -19 54 -42 7 -17 12 -37 11 -43 -1 -7
2 -13 8 -13 5 0 15 -16 21 -35 6 -19 15 -33 20 -30 5 3 12 0 15 -5 4 -6 19 -9
35 -5 28 6 43 -3 110 -65 15 -14 47 -35 71 -48 57 -29 92 -59 84 -72 -3 -5 -1
-10 6 -10 7 0 10 -3 7 -6 -4 -3 -19 1 -35 9 -15 8 -44 17 -63 20 -39 8 -42 12
40 -53 60 -47 66 -55 47 -58 -10 -2 -15 -7 -12 -12 3 -5 12 -7 19 -4 8 3 30
-2 51 -10 37 -16 61 -13 50 5 -4 5 0 9 7 9 10 0 9 3 -2 11 -13 9 -13 10 0 6 8
-2 15 -12 15 -23 0 -10 7 -19 15 -19 8 -1 26 -7 38 -14 13 -7 34 -10 45 -7 30
7 100 -53 87 -74 -15 -23 -12 -29 18 -43 30 -13 42 -25 42 -46 0 -10 -6 -10
-26 4 -20 13 -29 14 -38 5 -8 -8 -7 -14 5 -23 10 -8 14 -19 9 -31 -5 -16 -8
-17 -21 -4 -23 24 -81 40 -90 26 -5 -8 -10 -1 -14 18 -13 56 -13 57 -48 50
-25 -5 -38 -1 -55 14 -24 22 -38 25 -47 10 -4 -6 7 -15 24 -21 17 -6 31 -14
31 -19 0 -13 -38 -18 -51 -6 -9 7 -8 5 1 -7 11 -14 22 -17 49 -12 24 4 31 3
22 -4 -11 -7 -7 -12 17 -25 17 -9 39 -16 50 -16 25 0 135 -44 169 -68 16 -10
50 -25 77 -33 48 -14 113 -70 101 -89 -9 -15 -54 14 -66 43 -6 15 -18 27 -25
27 -18 0 -18 -8 3 -28 16 -16 15 -17 -5 -20 -12 -2 -22 -8 -22 -13 0 -5 3 -8
8 -7 9 3 92 -50 92 -58 0 -4 -10 0 -23 9 -12 8 -43 18 -67 22 -25 4 -51 12
-58 18 -7 5 -29 12 -49 14 -21 2 -45 11 -55 20 -9 8 -23 13 -30 11 -7 -3 -21
6 -32 20 -11 14 -26 22 -36 19 -9 -2 -25 2 -35 9 -10 8 -28 14 -40 14 -12 0
-26 5 -32 11 -6 6 -17 9 -25 7 -8 -3 0 -13 22 -26 19 -12 39 -20 45 -19 17 6
37 -23 32 -44 -4 -15 3 -26 26 -40 21 -13 24 -18 11 -14 -22 6 -40 -17 -28
-36 8 -13 -16 -40 -28 -33 -5 3 -7 12 -4 20 4 12 2 12 -14 4 -23 -12 -46 -50
-30 -50 5 0 10 7 10 15 0 8 7 15 15 15 8 0 15 -4 15 -10 0 -5 4 -10 10 -10 18
0 48 -33 43 -46 -3 -8 2 -14 11 -14 10 0 16 -9 16 -25 0 -29 -3 -30 -34 -9
-16 10 -26 12 -31 5 -3 -6 -1 -11 4 -11 6 0 11 -4 11 -10 0 -5 8 -19 18 -30 9
-11 17 -31 18 -43 1 -12 4 -31 8 -42 7 -18 6 -18 -12 2 -11 12 -23 19 -27 15
-4 -4 -2 3 4 16 10 18 9 22 -4 22 -8 0 -15 6 -15 12 0 7 -7 2 -16 -11 -16 -23
-16 -25 19 -57 20 -19 38 -34 41 -34 3 0 31 -17 61 -37 57 -39 70 -67 35 -78
-11 -3 -20 -11 -20 -16 0 -13 11 -11 31 7 10 9 23 13 28 9 18 -11 12 -25 -10
-25 -11 0 -18 -4 -15 -9 3 -5 -1 -14 -9 -21 -8 -7 -15 -24 -15 -37 0 -25 0
-25 30 7 31 34 39 25 20 -25 -9 -23 -8 -25 10 -15 15 8 21 6 30 -10 6 -11 20
-20 30 -20 11 0 20 -5 20 -11 0 -6 7 -9 15 -5 9 3 15 0 15 -10 0 -8 5 -12 10
-9 6 4 17 1 25 -5 8 -6 18 -9 23 -6 5 3 22 1 38 -4 l29 -8 -34 -1 -34 -1 27
-25 c19 -18 22 -25 12 -25 -9 0 -16 5 -16 10 0 6 -7 10 -15 10 -8 0 -15 5 -15
11 0 6 -10 9 -23 8 -12 -1 -29 1 -37 4 -79 33 -126 38 -80 9 11 -7 20 -17 20
-23 0 -8 -5 -7 -15 1 -8 7 -15 8 -15 3 0 -12 62 -93 72 -93 4 0 5 -6 2 -14 -3
-7 6 -20 19 -29 38 -25 86 -76 76 -82 -4 -3 -18 6 -31 20 -12 14 -28 25 -35
25 -8 0 -11 5 -8 10 3 6 -1 10 -9 10 -9 0 -16 4 -16 8 0 10 -68 82 -77 82 -3
0 -11 7 -17 15 -7 9 -16 11 -24 7 -10 -7 -9 -16 3 -45 14 -34 14 -37 -3 -46
-10 -6 -28 -7 -40 -4 -28 7 -28 -4 0 -27 19 -15 20 -20 9 -34 -9 -10 -18 -13
-25 -7 -6 5 -20 11 -31 15 -18 5 -21 2 -20 -23 0 -16 4 -27 8 -24 4 3 13 0 20
-5 7 -6 28 -12 47 -14 23 -2 35 -8 35 -18 0 -8 -7 -13 -15 -12 -8 2 -71 5
-140 7 -69 2 -133 6 -142 10 -11 4 -18 3 -18 -5 0 -6 -4 -9 -9 -6 -5 4 -21 2
-36 -4 -24 -9 -26 -8 -20 11 7 21 7 21 -23 -1 -18 -14 -39 -21 -51 -17 -19 5
-72 -9 -98 -26 -6 -4 -14 -3 -18 3 -10 16 -29 12 -53 -10 -22 -21 -22 -21 -22
-1 0 14 -6 19 -20 18 -11 -1 -20 -6 -20 -13 0 -20 -38 -47 -59 -41 -11 3 -20
2 -19 -2 3 -10 -26 -51 -36 -51 -4 0 -2 8 5 17 12 15 12 16 -5 10 -10 -4 -25
-2 -32 4 -9 7 -14 8 -14 1 0 -6 6 -12 13 -15 20 -7 -11 -36 -33 -30 -11 3 -28
-4 -40 -15 -18 -17 -21 -27 -15 -54 l7 -33 -22 20 -23 20 7 -27 c3 -16 9 -39
12 -52 4 -19 1 -26 -18 -31 -12 -4 -25 -10 -28 -14 -3 -3 -25 -13 -50 -21 -55
-18 -67 -53 -26 -71 42 -19 47 -62 5 -52 -11 3 -27 16 -36 29 -15 23 -51 35
-37 13 4 -8 0 -8 -15 0 -15 8 -21 9 -21 1 0 -6 -5 -8 -10 -5 -6 3 -10 1 -10
-5 0 -7 -6 -10 -14 -7 -9 4 -13 -4 -14 -26 -1 -23 2 -27 8 -17 8 13 10 13 10
-1 0 -9 14 -30 31 -47 30 -30 32 -52 4 -52 -8 0 -19 8 -24 18 -9 15 -12 15
-21 2 -8 -13 -10 -13 -10 3 0 9 -3 17 -7 17 -14 -1 -43 -27 -43 -38 0 -6 -6
-13 -12 -15 -8 -4 -7 -6 4 -6 9 -1 18 4 20 11 3 7 12 9 22 5 12 -5 15 -11 8
-24 -5 -10 -8 -33 -6 -51 2 -20 0 -31 -6 -27 -6 3 -10 1 -10 -4 0 -6 4 -11 9
-11 5 0 7 -8 4 -19 -3 -10 0 -22 6 -25 7 -5 11 6 11 29 0 29 3 36 15 31 10 -3
15 1 16 12 0 9 3 12 5 5 3 -6 -3 -24 -13 -39 -17 -27 -17 -28 1 -21 15 6 17 4
12 -17 -4 -16 1 -32 14 -49 11 -14 20 -30 20 -36 0 -20 -40 -51 -65 -51 -21 0
-25 -5 -25 -30 0 -19 7 -33 20 -40 24 -13 26 -30 5 -30 -8 0 -15 -7 -15 -15 0
-8 -4 -15 -8 -15 -15 0 -34 -52 -23 -63 5 -5 7 -25 4 -43 -3 -19 -2 -34 3 -34
5 0 15 -10 22 -21 13 -20 12 -21 -12 -15 -31 8 -32 3 -8 -23 43 -48 54 -71 33
-71 -5 0 -11 -9 -14 -20 -5 -20 -27 -28 -27 -10 0 6 -9 10 -20 10 -16 0 -20
-6 -18 -28 1 -15 -1 -33 -6 -40 -5 -8 0 -12 14 -12 16 0 19 -5 15 -22 -9 -43
50 -85 101 -72 14 4 24 2 24 -5 0 -6 -9 -11 -20 -11 -27 0 -25 -12 5 -40 14
-13 25 -29 25 -37 0 -7 4 -13 10 -13 13 0 27 -28 33 -67 4 -26 1 -32 -17 -37
-12 -3 -29 -20 -37 -38 -8 -18 -20 -32 -28 -30 -16 3 -41 -16 -41 -33 0 -7 10
-16 23 -20 21 -7 20 -8 -8 -14 -16 -4 -32 -4 -35 -1 -11 11 -27 8 -27 -6 0 -7
4 -14 9 -14 5 0 6 -5 2 -11 -4 -8 -9 -7 -15 2 -7 11 -11 10 -23 -6 -8 -11 -12
-23 -10 -27 3 -5 -3 -8 -13 -8 -14 0 -15 -2 -4 -9 20 -13 -46 -76 -76 -73 -16
3 -24 -3 -27 -20 -3 -13 -7 -32 -9 -43 -3 -11 -5 -6 -6 14 -1 26 -4 32 -17 27
-9 -3 -18 -6 -20 -6 -2 0 -4 -7 -4 -15 0 -9 -6 -12 -17 -8 -10 3 -15 2 -11 -2
5 -5 -1 -14 -12 -22 -13 -10 -20 -26 -20 -49 0 -20 -11 -52 -26 -75 -16 -26
-22 -45 -16 -52 5 -7 9 -38 10 -71 3 -69 6 -76 32 -69 13 3 22 -1 26 -11 5
-12 10 -14 19 -6 10 8 17 6 28 -10 13 -19 16 -19 24 -6 7 12 13 10 35 -14 15
-16 23 -32 18 -35 -18 -11 -10 -26 9 -20 22 7 39 -24 19 -37 -20 -12 9 -10 34
3 11 6 31 8 44 5 19 -5 23 -12 20 -30 -2 -13 3 -34 11 -46 15 -21 15 -22 -6
-15 -15 5 -21 2 -21 -9 0 -9 5 -16 10 -16 6 0 10 -6 10 -14 0 -8 6 -17 13 -19
6 -3 3 -6 -8 -6 -15 -1 -17 -3 -6 -10 19 -12 6 -58 -19 -66 -11 -3 -20 -13
-20 -22 0 -9 6 -13 14 -10 10 4 13 1 9 -9 -3 -8 1 -14 11 -14 20 0 21 -14 1
-30 -16 -13 -21 -35 -6 -26 4 3 16 -3 26 -14 21 -23 35 -26 35 -6 0 8 7 16 15
20 10 3 17 -3 21 -22 4 -15 14 -37 22 -49 8 -13 10 -23 5 -23 -5 0 -18 -7 -29
-16 -10 -8 -13 -13 -6 -9 8 4 12 -2 12 -16 0 -12 -3 -19 -6 -16 -4 3 -18 -2
-32 -13 -13 -11 -29 -17 -34 -14 -6 4 -5 10 3 15 8 5 10 9 4 9 -19 0 -38 -18
-31 -29 6 -9 -7 -16 -17 -8 -2 1 -11 -4 -20 -11 -13 -11 -17 -10 -27 5 -8 13
-13 15 -17 5 -4 -10 -8 -10 -20 0 -12 10 -14 9 -12 -3 1 -7 -1 -22 -4 -32 -4
-9 -9 -24 -12 -32 -4 -13 -9 -14 -27 -4 -30 16 -51 -13 -46 -64 4 -47 -10 -43
-27 7 -8 21 -17 42 -22 47 -18 17 -113 15 -113 -4 0 -7 -9 -18 -19 -24 -18
-11 -33 -39 -75 -137 -22 -51 -31 -40 -17 21 6 26 12 71 13 98 l3 50 -65 0
c-36 0 -70 -4 -77 -8 -7 -5 -21 -6 -33 -2 -12 4 -27 1 -35 -5 -8 -6 -22 -9
-33 -6 -10 4 -33 -1 -51 -10 -19 -9 -54 -22 -80 -29 -33 -8 -46 -17 -45 -28 2
-19 -11 -23 -21 -7 -8 13 -45 -6 -63 -32 -7 -10 -20 -18 -29 -18 -8 0 -34 -10
-57 -21 -22 -12 -48 -25 -56 -29 -8 -4 -22 -20 -30 -36 -8 -16 -22 -30 -30
-32 -8 -2 -17 -8 -18 -13 -4 -11 -62 -42 -62 -33 0 3 11 15 24 25 14 11 31 33
40 49 13 27 13 29 -3 27 -10 -2 -40 -22 -66 -45 -26 -23 -52 -42 -57 -42 -6 0
-7 -7 -4 -16 6 -15 4 -15 -18 0 -23 15 -25 15 -31 -5 -4 -13 -1 -27 9 -38 14
-15 31 -17 158 -12 186 6 549 4 614 -4 45 -6 54 -4 72 15 18 19 21 20 35 5 14
-14 17 -14 25 2 9 15 14 13 45 -19 19 -20 38 -46 42 -57 8 -25 18 -27 35 -6 7
8 16 12 22 9 5 -3 15 0 23 6 8 7 37 13 65 13 31 1 50 6 50 14 0 20 21 26 34 8
18 -24 67 -27 85 -3 13 16 23 18 58 12 39 -6 44 -10 53 -45 6 -21 17 -42 24
-46 8 -5 15 -33 18 -73 3 -36 8 -72 12 -81 5 -12 -1 -20 -23 -29 -33 -13 -41
-34 -16 -44 15 -5 22 -27 8 -24 -8 1 -57 -17 -76 -29 -6 -3 -7 -1 -3 6 10 15
-22 27 -36 13 -8 -8 -15 -7 -25 6 -12 16 -14 16 -27 0 -17 -23 -26 -23 -26 0
0 9 -4 23 -9 31 -8 13 -12 13 -26 1 -13 -10 -18 -11 -24 -2 -9 15 -67 10 -83
-6 -15 -15 -38 -16 -38 -2 0 6 -5 10 -11 10 -6 0 -9 -9 -6 -20 3 -11 0 -23 -5
-27 -7 -3 -8 -1 -4 5 4 7 1 12 -8 12 -9 0 -16 8 -16 19 0 11 -5 23 -11 27 -8
4 -9 -1 -3 -17 4 -13 7 -45 6 -71 -1 -26 4 -66 12 -88 9 -25 11 -51 6 -72 l-8
-33 -1 33 c-1 43 -18 41 -23 -2 -6 -53 9 -196 23 -223 22 -42 29 -24 23 62 -4
59 -3 85 5 85 6 0 10 -3 9 -7 -5 -20 15 -93 28 -104 12 -10 14 -1 14 57 l1 69
25 -48 c14 -26 22 -52 19 -57 -3 -6 -2 -10 4 -10 5 0 11 -15 13 -32 2 -18 7
-31 12 -30 5 2 12 -2 17 -10 10 -15 41 -18 50 -5 9 13 29 -1 29 -20 0 -13 -8
-15 -47 -10 -30 4 -40 3 -28 -2 11 -5 29 -18 39 -30 24 -27 46 -27 46 -1 0 24
16 26 36 5 9 -9 11 -15 4 -15 -7 0 -10 -15 -7 -40 4 -38 -5 -52 -18 -30 -4 6
-11 8 -16 4 -6 -3 4 -19 20 -35 17 -16 31 -36 31 -44 0 -8 5 -15 10 -15 14 0
13 33 -2 48 -6 6 -9 15 -5 18 3 4 13 -1 22 -10 19 -19 35 -13 35 13 0 10 7 18
15 18 8 0 13 -3 11 -6 -2 -3 2 -22 9 -41 11 -34 12 -34 24 -12 10 18 9 22 -3
22 -10 0 -13 6 -10 15 8 19 24 19 24 0 0 -8 5 -15 10 -15 6 0 10 6 10 13 0 7
11 23 24 34 l24 21 5 -46 c3 -26 10 -48 16 -50 6 -2 11 -7 11 -12 0 -10 -59 5
-73 19 -6 6 -15 5 -23 -4 -16 -16 -19 -45 -4 -45 6 0 10 9 10 21 0 11 4 17 10
14 16 -10 12 -42 -6 -49 -32 -12 -55 -6 -64 19 -5 14 -15 25 -22 24 -10 0 -10
-2 0 -6 6 -2 12 -20 12 -38 0 -18 6 -36 13 -39 10 -5 10 -7 0 -12 -7 -3 -13
-15 -13 -27 -1 -20 -2 -20 -11 -4 -5 9 -8 21 -5 26 3 5 0 14 -8 20 -10 9 -12
2 -10 -39 1 -27 -2 -53 -7 -56 -15 -9 -61 5 -53 17 3 6 -1 18 -10 28 -16 17
-13 51 4 51 4 0 15 -11 23 -24 12 -17 13 -26 4 -35 -7 -7 -8 -11 0 -11 6 0 16
6 22 14 17 20 -41 76 -69 69 -13 -3 -20 0 -21 8 -1 8 -2 20 -3 28 0 8 -7 16
-14 19 -10 3 -11 -3 -6 -25 4 -15 11 -31 17 -34 5 -4 4 -15 -3 -29 -10 -18 -9
-24 1 -31 10 -6 10 -13 0 -36 -11 -25 -11 -29 8 -42 25 -16 27 -31 6 -31 -9 0
-15 -9 -15 -22 0 -12 -3 -18 -7 -15 -3 4 -14 0 -24 -9 -10 -9 -24 -14 -31 -11
-8 3 -5 6 7 6 16 1 17 3 5 11 -12 7 -11 12 5 30 31 35 1 42 -55 14 -59 -30
-63 -30 -54 -1 3 12 3 19 -1 15 -4 -4 -16 -3 -26 3 -15 7 -19 6 -19 -6 0 -8 4
-15 9 -15 5 0 11 -9 14 -21 4 -15 -1 -22 -19 -29 -13 -5 -31 -7 -41 -3 -11 4
-14 3 -9 -5 4 -7 4 -17 0 -23 -4 -8 -9 -7 -15 2 -4 8 -3 19 3 26 12 14 4 28
-15 28 -7 0 -11 11 -10 23 2 12 -2 22 -8 22 -12 0 -6 -89 7 -123 3 -8 -2 -17
-11 -21 -9 -3 -13 -2 -10 4 14 23 -8 31 -28 10 l-20 -22 -18 23 c-14 19 -20
21 -32 11 -12 -10 -16 -10 -20 0 -3 7 -6 3 -6 -10 -1 -20 -4 -21 -21 -12 -16
9 -20 8 -20 -5 0 -8 -4 -15 -10 -15 -5 0 -10 -4 -10 -9 0 -4 12 -6 26 -3 19 3
25 1 20 -7 -4 -6 -12 -9 -17 -5 -5 3 -18 0 -27 -7 -9 -7 -14 -9 -10 -5 4 5 -4
15 -18 23 -34 17 -37 17 -24 -6 14 -27 13 -31 -11 -31 -11 0 -29 10 -40 22
-10 13 -17 16 -14 8 8 -25 -10 -44 -31 -32 -14 8 -24 4 -47 -20 -28 -28 -55
-33 -49 -9 2 9 -3 9 -18 1 -12 -6 -20 -22 -21 -38 -1 -17 -3 -20 -6 -10 -2 10
-9 18 -14 18 -5 0 -9 9 -9 21 0 27 -35 21 -36 -6 -2 -36 -4 -39 -16 -27 -9 9
-14 7 -24 -6 -12 -16 -13 -15 -14 6 0 15 -6 22 -19 22 -28 0 -52 -11 -46 -20
3 -5 1 -11 -5 -15 -5 -3 -10 1 -10 9 0 10 -6 13 -15 10 -8 -4 -15 -13 -15 -21
0 -8 -4 -11 -10 -8 -5 3 -10 14 -10 23 0 12 -9 17 -30 17 -17 0 -28 -5 -26
-10 4 -11 -13 -29 -32 -33 -7 -1 -20 6 -31 17 -16 16 -26 17 -77 9 -32 -4 -99
-11 -149 -13 -49 -3 -101 -8 -115 -12 -14 -3 -37 -5 -52 -4 -14 1 -29 -2 -33
-8 -4 -7 16 -11 62 -11 82 0 144 -10 138 -21 -6 -9 -29 -11 -142 -13 -60 -1
-84 -5 -88 -15 -3 -8 0 -11 8 -8 8 3 28 2 46 -1 30 -7 31 -8 17 -27 -13 -17
-18 -18 -35 -8 -13 8 -22 9 -26 3 -3 -6 -19 -10 -34 -10 -32 0 -57 -24 -53
-51 3 -17 1 -17 -30 -5 -33 14 -47 13 -176 -14 -29 -6 -62 -20 -74 -32 -14
-14 -23 -17 -31 -9 -14 14 -47 14 -47 0 0 -6 9 -13 20 -16 11 -3 20 -13 20
-22 0 -13 -2 -13 -9 -2 -7 11 -9 11 -13 0 -4 -11 -10 -10 -26 5 -12 10 -19 23
-16 27 3 5 -14 9 -38 8 -24 0 -38 -3 -31 -5 7 -3 10 -11 7 -17 -3 -8 -34 -12
-95 -12 -50 0 -93 -3 -96 -7 -6 -12 -51 -10 -58 2 -9 15 -73 12 -130 -5 -38
-12 -73 -14 -147 -9 -58 4 -95 11 -92 16 4 6 19 7 35 4 60 -12 121 20 73 38
-9 3 -113 7 -232 7 -185 1 -206 3 -142 11 41 5 101 7 132 4 31 -3 59 -2 62 3
3 4 58 11 123 14 65 3 126 9 136 12 38 15 1 25 -90 25 -53 0 -94 2 -92 4 2 2
65 7 140 10 75 3 161 11 190 17 30 6 81 10 114 10 33 0 83 6 110 13 l50 13
-45 7 c-92 13 -771 13 -875 0 -118 -15 -290 -41 -323 -49 -14 -3 -21 -2 -18 4
8 12 134 42 256 61 36 5 90 14 120 20 30 6 100 17 155 25 55 8 127 23 159 35
33 11 67 20 77 20 10 0 21 5 25 11 4 7 0 9 -12 5 -11 -3 -75 -8 -144 -11 -69
-3 -170 -7 -225 -10 -101 -5 -98 -1 15 25 94 21 131 33 121 40 -6 3 17 6 52 7
69 1 132 10 162 23 11 5 43 11 70 13 28 3 77 14 110 25 33 12 95 28 138 37 42
10 80 21 83 26 3 5 9 7 14 4 5 -3 11 -1 15 5 4 7 -10 8 -42 4 -95 -12 -346
-27 -293 -18 77 13 144 39 174 67 11 9 32 17 48 17 17 0 27 5 26 13 -2 7 10
13 30 15 17 2 32 8 32 13 0 6 5 7 12 3 6 -4 8 -3 5 4 -4 5 -16 8 -26 5 -10 -3
-22 0 -25 6 -10 16 -26 14 -26 -3 0 -11 -9 -13 -37 -9 -21 2 -63 5 -93 5 -30
0 -48 3 -40 7 8 3 16 12 18 19 2 12 -25 17 -83 13 l-30 -1 39 21 c21 12 35 24
30 27 -6 4 -6 51 -1 117 4 61 9 180 11 265 2 86 8 156 13 157 11 4 5 61 -8 69
-5 3 -9 46 -9 95 0 68 3 91 14 95 20 8 26 40 13 69 -13 27 -27 33 -27 11 0
-16 -32 -15 -37 1 -4 12 25 38 33 30 6 -6 14 0 92 70 65 59 85 88 77 113 -7
24 -30 26 -39 5 -3 -8 -12 -15 -19 -15 -8 0 -20 -7 -27 -15 -7 -9 -20 -13 -27
-11 -8 3 -35 -5 -61 -19 -26 -14 -60 -25 -77 -25 -27 0 -28 1 -13 17 16 15 16
17 1 28 -18 14 -12 54 12 79 8 8 15 20 15 26 0 6 4 9 10 5 5 -3 6 -13 3 -21
-5 -14 -3 -14 15 -3 21 13 21 14 2 21 -11 4 -20 12 -20 17 0 5 -23 4 -55 -4
l-54 -12 22 23 c12 13 22 28 22 35 0 7 6 14 12 16 7 3 13 0 13 -6 0 -6 7 -11
15 -11 9 0 12 6 8 16 -5 13 -2 15 18 9 21 -7 22 -6 10 9 -16 18 -42 21 -58 5
-12 -12 -53 -3 -53 12 0 5 4 9 10 9 5 0 7 13 4 29 -4 16 -1 32 5 35 6 4 11 12
11 17 0 6 -4 8 -9 5 -5 -4 -16 -3 -25 0 -13 5 -13 8 3 25 12 13 16 29 13 46
-3 18 -1 24 7 19 6 -4 11 -14 11 -22 0 -8 7 -14 15 -14 8 0 15 4 15 9 0 16
-30 41 -49 41 -36 0 -29 13 22 38 29 14 54 29 55 34 2 4 10 8 18 8 8 0 14 5
14 11 0 7 -9 5 -24 -5 -34 -22 -96 -41 -128 -41 -16 1 -28 -3 -28 -7 0 -4 -9
-8 -20 -8 -11 0 -20 -5 -20 -11 0 -6 -6 -9 -14 -6 -7 3 -22 0 -32 -7 -27 -19
-66 -27 -61 -13 2 6 18 15 36 20 20 5 31 13 28 21 -3 8 7 13 31 14 23 2 44 12
59 28 25 28 30 45 11 42 -8 -2 -12 5 -10 15 2 10 -8 39 -22 64 -14 25 -26 47
-26 48 0 2 9 5 20 8 13 3 20 14 20 28 0 21 -1 22 -20 4 -19 -17 -20 -17 -20 1
-1 18 -1 18 -11 1 -6 -9 -7 -26 -4 -37 4 -11 2 -20 -4 -20 -6 0 -11 7 -11 16
0 8 -4 12 -10 9 -6 -3 -10 -2 -10 4 0 5 6 11 13 14 6 2 9 8 4 12 -4 5 -13 3
-19 -3 -7 -7 -26 -13 -42 -13 -24 -1 -26 -3 -8 -6 43 -8 21 -21 -35 -20 -69 1
-195 -22 -205 -37 -5 -8 -11 -7 -20 2 -16 16 -53 16 -70 0 -7 -7 -38 -14 -68
-14 -30 -1 -46 0 -35 3 11 3 25 9 30 13 6 5 46 16 89 25 44 9 83 18 88 21 5 3
41 9 81 14 40 5 92 14 117 20 25 6 65 13 90 16 25 4 59 12 75 18 51 22 98 34
154 41 32 4 61 15 73 27 14 14 23 17 32 8 9 -7 22 -7 37 -1 25 9 33 11 48 11
5 0 11 8 14 19 3 12 -1 18 -12 17 -9 0 -15 5 -13 12 3 16 -13 15 -27 -2 -9
-11 -9 -15 1 -19 9 -4 10 -6 1 -6 -13 -1 -39 38 -35 52 1 4 -2 7 -8 7 -5 0
-10 -11 -10 -25 0 -15 -7 -28 -17 -32 -10 -4 -21 -11 -25 -17 -4 -6 -11 -7
-15 -2 -4 5 -3 11 4 13 7 2 9 11 6 19 -3 8 -1 14 5 14 6 0 13 -6 15 -12 3 -8
6 -5 6 5 1 10 8 32 17 49 9 16 11 27 5 24 -11 -7 -15 5 -12 37 2 17 -23 24
-33 8 -3 -5 -20 -11 -38 -14 -18 -2 -62 -12 -98 -20 -36 -9 -110 -26 -165 -38
-55 -11 -109 -25 -120 -30 -11 -4 -72 -22 -135 -39 -63 -17 -136 -37 -163 -46
-26 -8 -71 -17 -100 -19 -28 -2 -44 -2 -34 1 9 3 17 13 17 22 0 15 2 15 11 2
7 -10 12 -11 15 -4 3 7 13 10 22 7 10 -2 49 8 87 22 39 15 84 30 100 35 l30 8
-30 2 c-28 2 -27 3 10 10 109 22 153 58 98 82 -15 7 -34 18 -41 25 -16 15 -96
17 -138 4 -52 -17 -84 -22 -84 -13 0 9 58 32 81 32 8 0 34 12 56 27 l42 27
-37 18 c-22 11 -27 15 -12 11 23 -5 24 -5 10 12 -11 14 -12 19 -3 22 15 5 18
43 3 43 -5 0 -10 -5 -10 -10 0 -6 -6 -5 -14 2 -8 7 -12 16 -9 21 2 4 -24 7
-58 7 -59 0 -85 -6 -234 -51 -33 -10 -82 -21 -110 -25 -27 -3 -69 -13 -92 -20
-22 -8 -85 -21 -140 -28 -54 -8 -150 -24 -213 -36 -63 -12 -126 -22 -140 -23
-14 -1 -29 -5 -35 -8 -5 -4 -35 -10 -66 -13 -31 -4 -81 -14 -110 -21 -30 -8
-77 -15 -106 -15 -30 0 -53 -5 -55 -12 -3 -7 -33 -13 -78 -15 -40 -1 -77 -8
-81 -14 -5 -8 -8 -8 -13 0 -9 13 -26 15 -26 2 0 -15 31 -21 52 -10 18 9 75 17
178 22 19 1 42 7 50 12 8 6 49 9 90 9 47 -1 68 1 55 6 -16 7 -13 9 15 9 26 1
31 -2 20 -9 -13 -8 -12 -10 3 -10 9 0 17 5 17 10 0 6 7 10 15 10 25 0 17 -14
-17 -29 -18 -8 -62 -16 -98 -18 -36 -1 -96 -7 -135 -13 -106 -15 -292 -23
-276 -12 20 15 -5 25 -29 12 -11 -6 -31 -8 -43 -5 -15 4 -18 3 -9 -3 9 -6 -30
-12 -109 -16 -82 -5 -125 -4 -132 3 -8 8 2 12 34 13 83 3 88 4 95 11 4 4 13 2
21 -4 7 -6 13 -7 13 -2 0 9 79 33 125 39 11 1 74 10 140 20 66 9 136 18 155
20 20 1 56 10 80 20 25 9 59 16 77 15 18 0 35 4 38 9 3 6 25 10 47 10 23 0 49
6 57 14 11 10 43 15 96 17 72 2 144 16 200 39 12 5 -21 7 -77 3 -68 -3 -98 -2
-98 6 0 6 -8 11 -17 11 -15 0 -16 -2 -3 -10 8 -5 12 -12 8 -15 -8 -9 -127 -10
-135 -2 -3 4 7 7 23 7 31 0 73 19 44 20 -8 1 3 8 25 16 23 8 81 16 137 17 54
1 98 4 98 7 0 3 24 5 52 5 39 0 53 4 53 14 0 10 -14 15 -50 15 -36 1 -50 5
-50 15 0 14 30 24 195 64 36 9 110 27 165 40 145 36 204 54 221 68 12 10 12
14 -6 26 -11 8 -20 25 -20 39 0 15 -6 24 -16 24 -11 0 -14 5 -10 16 3 9 6 18
6 20 0 2 9 4 20 4 22 0 23 16 2 38 -7 8 -10 22 -7 32 8 24 -16 75 -26 58 -5
-8 -8 -5 -7 9 2 25 24 20 33 -8 4 -10 13 -19 21 -19 8 0 14 -9 14 -19 0 -11 5
-23 10 -26 6 -3 10 -15 10 -26 0 -27 25 -34 71 -19 42 14 53 33 17 28 -21 -3
-23 2 -26 45 -2 33 -7 47 -18 47 -7 0 -14 5 -14 11 0 5 5 7 10 4 6 -3 10 -2
10 4 0 15 -62 24 -92 12 -33 -13 -68 -3 -68 18 0 34 -25 71 -47 71 -13 0 -23
-4 -23 -10 0 -5 -15 -10 -34 -10 -19 0 -47 -5 -63 -11 -42 -17 -306 -48 -360
-43 -35 4 -44 2 -33 -5 12 -8 7 -11 -20 -10 -19 0 -29 3 -22 6 6 2 12 12 12
20 0 13 9 15 50 10 28 -3 50 -3 50 1 0 7 43 19 145 41 22 5 102 19 179 32 76
12 144 28 151 35 7 7 34 12 62 12 61 -2 79 7 59 28 -19 18 -28 18 -71 -3 -30
-14 -39 -15 -56 -4 -15 9 -43 10 -100 5 -66 -5 -79 -4 -79 8 0 11 16 17 58 21
32 4 66 9 75 13 23 8 22 27 0 20 -23 -6 -271 -34 -341 -38 -65 -4 -68 7 -4 16
26 4 115 18 199 32 83 13 154 24 157 24 3 0 6 5 6 11 0 12 -9 11 -185 -11
-263 -33 -342 -41 -465 -50 -326 -21 -393 -23 -387 -13 4 6 51 14 104 17 252
18 541 54 683 85 25 5 88 15 140 21 52 6 99 15 103 19 4 4 5 20 1 36 -7 27 -7
27 -73 21 -179 -17 -186 -17 -171 -7 8 6 27 11 43 11 15 0 27 4 27 9 0 15 -38
23 -78 17 -20 -4 -43 -2 -50 2 -8 6 47 14 143 22 86 8 158 18 161 22 6 9 8 19
20 88 3 19 8 42 11 50 3 8 8 33 10 55 2 22 9 44 14 49 5 6 9 18 9 28 0 10 5
18 11 18 7 0 9 -17 4 -52 -4 -38 -3 -49 4 -38 9 13 11 13 11 -2 0 -9 -4 -20
-10 -23 -6 -3 -10 -26 -10 -51 0 -24 -4 -44 -10 -44 -5 0 -10 -5 -10 -11 0 -5
4 -7 10 -4 6 3 10 -3 10 -14 0 -12 -4 -21 -10 -21 -19 0 -10 -17 15 -28 35
-16 70 -15 104 3 16 8 31 11 35 8 3 -4 6 10 6 30 0 30 4 37 20 37 13 0 20 7
20 19 0 10 9 21 20 24 11 3 20 12 20 21 0 9 8 16 18 16 10 0 37 14 59 30 l42
31 12 -23 c7 -12 11 -40 11 -61 -1 -21 2 -36 7 -32 12 7 24 -72 18 -114 -3
-18 -14 -42 -24 -53 -18 -20 -18 -20 27 -15 65 7 81 12 90 27 4 7 15 10 24 7
9 -4 37 -4 62 0 37 5 45 9 41 24 -3 10 2 20 9 23 12 5 12 9 2 26 -11 18 -10
23 2 33 10 8 15 32 16 77 2 106 22 252 35 260 6 5 9 17 7 28 -3 12 1 31 10 43
14 20 14 23 -3 35 -13 10 -19 29 -21 69 -4 70 -16 91 -55 99 -40 8 -51 1 -43
-30 4 -14 2 -24 -4 -24 -6 0 -12 12 -14 28 l-3 27 -17 -30 c-16 -29 -17 -29
-16 -5 4 76 -9 102 -29 58 -11 -23 -11 -23 -18 4 -12 48 1 71 52 95 26 12 50
18 53 14 6 -10 27 -2 59 21 19 14 24 27 26 77 1 34 7 67 13 74 7 7 7 18 2 27
-5 9 -3 21 6 34 8 11 14 27 14 34 0 8 6 28 14 45 30 67 42 202 21 224 -11 10
-14 10 -18 0 -3 -7 -6 -5 -6 5 -1 19 -49 37 -60 22 -8 -12 -24 -15 -94 -17
-32 -1 -61 1 -64 6 -2 4 -8 5 -13 2 -4 -2 -52 -7 -106 -10 -55 -3 -114 -8
-131 -11 -21 -4 -33 -2 -33 5 0 14 -47 14 -55 0 -4 -6 -13 -8 -21 -5 -19 7
-84 -24 -84 -40 0 -7 -8 -10 -22 -6 -16 4 -19 2 -13 -8 6 -9 4 -11 -5 -5 -13
8 -2 21 40 45 19 11 2 43 -26 49 -10 2 -22 8 -25 13 -4 6 -21 5 -47 -3 -33 -9
-44 -9 -56 0 -8 7 -20 10 -25 6 -6 -3 -113 -7 -238 -9 -171 -3 -217 -1 -185 7
26 6 42 16 42 25 0 9 7 13 20 9 11 -3 18 -1 14 4 -7 12 38 11 72 -1 20 -8 31
-7 43 4 10 8 30 12 55 9 21 -2 44 1 52 8 11 9 14 8 14 -2 0 -11 2 -11 9 1 6 9
28 15 59 16 27 0 54 4 60 8 6 3 32 8 59 11 52 5 186 24 351 49 57 9 113 21
123 27 11 5 28 7 38 4 13 -4 25 3 40 22 16 22 20 24 21 11 0 -28 30 -22 30 6
0 36 17 41 34 9 15 -28 16 -28 22 -5 7 25 34 30 34 7 0 -8 7 -15 15 -15 9 0
12 6 9 15 -8 21 22 65 45 65 21 0 47 27 37 38 -5 4 -15 7 -24 8 -45 3 -52 5
-52 15 0 6 10 13 22 17 40 10 -11 20 -56 10 -23 -5 -61 -11 -86 -14 -130 -16
-512 -77 -620 -99 -41 -8 -92 -15 -112 -15 -20 0 -47 -4 -60 -8 -13 -5 -34 -5
-48 -1 -24 7 -24 7 5 8 17 1 50 7 75 15 25 7 77 16 115 20 65 7 193 28 360 61
39 7 102 19 140 25 39 7 80 16 93 21 12 5 48 12 80 15 31 3 64 8 72 11 21 8
30 11 73 22 21 5 41 11 43 14 10 10 -323 -9 -413 -23 -164 -26 -200 -32 -231
-42 -29 -9 -31 -11 -16 -22 14 -11 10 -13 -31 -14 -26 -1 -51 -4 -55 -7 -12
-7 -152 -34 -230 -44 -91 -11 -160 -29 -181 -47 -8 -8 -21 -14 -27 -14 -7 0
-12 -4 -12 -9 0 -12 -87 -44 -134 -48 -23 -1 -79 -5 -124 -8 -72 -3 -82 -2
-72 10 8 10 31 15 66 15 29 0 56 5 59 10 10 16 -19 22 -49 10 -15 -5 -65 -13
-112 -16 -76 -6 -84 -5 -78 10 4 12 1 16 -15 16 -12 0 -21 5 -21 10 0 6 6 10
14 10 8 0 23 11 34 25 11 14 25 25 32 25 15 0 68 30 94 53 11 9 24 17 28 17 5
0 6 5 3 10 -8 13 71 49 106 50 35 0 161 32 228 58 30 12 58 19 63 16 4 -3 8
-1 8 4 0 5 15 12 33 16 17 3 55 12 82 20 133 38 163 46 205 57 25 6 54 15 65
20 20 8 244 76 340 104 27 8 51 19 53 25 2 5 8 8 12 5 5 -3 42 6 82 20 40 14
73 25 73 25 0 -1 13 3 28 9 16 6 32 9 37 6 10 -6 70 49 70 64 0 23 -34 24 -76
2 -23 -13 -47 -20 -53 -17 -5 4 -12 2 -15 -3 -4 -5 -25 -12 -49 -16 -23 -4
-55 -14 -71 -22 -15 -8 -40 -17 -55 -20 -14 -2 -33 -11 -42 -19 -8 -8 -18 -12
-21 -9 -5 5 -125 -34 -239 -77 -36 -14 -84 -29 -107 -33 -22 -3 -78 -20 -124
-37 -46 -17 -103 -36 -128 -43 -25 -7 -92 -29 -150 -48 -138 -45 -239 -77
-247 -77 -15 0 31 39 53 44 39 10 29 29 -11 23 -19 -3 -35 -2 -35 4 0 5 9 9
20 9 11 0 20 5 20 10 0 6 7 10 15 10 19 0 153 67 172 86 12 12 11 14 -6 14
-12 0 -21 -4 -21 -9 0 -11 -57 -25 -91 -22 -14 1 -32 -5 -39 -14 -16 -19 -27
-19 -27 0 0 8 14 19 31 24 17 5 56 19 86 30 30 11 64 22 75 24 11 2 54 20 96
40 42 20 98 43 125 52 27 9 63 22 79 30 17 7 55 23 85 35 96 37 165 73 152 78
-8 2 -19 -1 -25 -7 -6 -6 -23 -11 -37 -11 -14 0 -30 -4 -35 -9 -6 -4 -50 -23
-100 -40 -49 -18 -99 -38 -110 -45 -11 -7 -38 -16 -60 -20 -22 -4 -46 -12 -52
-18 -13 -11 -43 -4 -43 9 0 13 72 47 123 59 4 1 17 2 30 3 18 1 19 3 7 12 -12
8 -11 9 6 4 13 -3 26 1 34 10 7 8 16 13 20 10 5 -3 11 -1 15 5 3 5 15 10 25
10 10 0 20 5 22 11 2 5 18 11 36 11 17 1 32 5 32 10 0 4 6 8 13 8 16 0 53 38
45 45 -9 10 -88 14 -93 5 -3 -5 -27 -12 -53 -16 -26 -5 -49 -8 -52 -9 -3 0
-15 -6 -27 -13 -12 -7 -44 -17 -70 -22 -27 -5 -59 -12 -73 -15 l-25 -6 25 12
c65 31 92 42 118 44 15 1 43 9 62 17 43 17 311 103 365 116 100 25 224 52 264
58 81 12 41 -18 -162 -120 -109 -54 -196 -101 -193 -103 7 -8 132 35 168 57
18 11 39 20 46 20 6 0 35 11 64 25 28 14 58 25 65 25 7 0 21 4 31 9 9 5 36 14
59 20 24 7 43 16 43 21 0 14 91 51 110 45 9 -3 25 3 36 13 11 10 24 17 30 15
6 -2 17 3 24 12 7 8 17 15 22 15 12 0 42 29 36 35 -10 11 -113 13 -124 4 -7
-6 -30 -9 -51 -7 -37 3 -36 3 22 16 122 27 224 64 218 79 -3 8 -12 12 -19 9
-8 -3 -14 1 -14 9 0 8 11 17 25 21 14 3 25 13 25 21 0 8 4 11 10 8 6 -4 7 1 3
11 -5 13 -3 15 8 9 12 -8 12 -6 0 8 -7 9 -17 14 -22 11 -5 -3 -9 -2 -9 3 0 16
80 53 117 54 21 0 32 3 25 6 -6 2 -9 10 -5 16 4 7 8 16 8 22 0 5 11 12 25 15
30 7 40 39 13 41 -10 1 -22 1 -28 0 -5 -1 4 10 20 24 l30 26 -47 -4 c-65 -5
-76 34 -13 45 11 1 27 11 36 21 9 9 21 17 27 17 6 0 14 4 17 10 4 7 -3 7 -20
0 -35 -13 -42 -13 -49 6 -4 10 -2 14 6 11 7 -2 21 0 32 5 15 8 16 12 5 19 -10
6 -11 9 -1 9 6 0 12 6 12 14 0 8 6 17 13 19 6 3 -3 3 -22 0 -24 -4 -32 -3 -27
5 4 7 12 12 17 12 6 0 19 10 29 23 16 19 21 20 39 9 13 -7 21 -8 21 -2 0 5 -5
10 -11 10 -5 0 -7 5 -4 10 13 21 27 9 23 -20 -4 -23 -1 -30 12 -30 29 0 84 22
106 41 11 11 23 16 27 13 4 -4 -1 -13 -11 -20 -14 -10 -15 -15 -4 -26 10 -10
17 -10 32 0 11 6 28 12 37 12 16 -1 16 -2 -2 -12 -28 -15 -28 -15 -20 -27 4
-7 13 -6 28 3 12 7 37 16 55 20 18 3 47 16 65 28 18 13 39 24 47 26 30 6 100
42 100 52 0 15 -20 12 -26 -4 -3 -8 -28 -20 -55 -26 -27 -7 -51 -16 -54 -20
-3 -4 -14 -6 -24 -3 -12 3 -35 -6 -58 -22 l-38 -27 30 27 c17 16 29 36 27 47
-3 19 13 25 23 8 9 -14 21 -5 28 19 3 14 1 18 -9 14 -8 -3 -11 -10 -7 -17 3
-6 -3 -3 -14 7 -12 10 -27 15 -37 11 -14 -5 -15 -9 -4 -15 10 -7 10 -9 0 -9
-7 0 -16 8 -20 18 -4 10 -19 18 -37 19 -16 2 -36 4 -42 5 -15 2 -18 18 -3 18
5 0 23 20 40 45 19 27 57 62 96 86 35 23 64 44 64 48 0 4 11 13 25 19 31 14
35 15 35 2 0 -5 -20 -21 -45 -36 -42 -24 -77 -64 -57 -64 20 0 78 25 110 47
39 26 62 21 36 -8 -12 -13 -14 -23 -7 -30 11 -11 29 5 35 31 2 8 15 26 31 39
15 14 27 29 27 33 0 12 -38 10 -45 -2 -8 -13 -25 -13 -25 -1 0 5 18 18 40 28
22 10 40 21 40 24 1 21 -127 20 -175 -1 -16 -7 -45 -19 -62 -27 -18 -8 -33
-19 -33 -25 0 -6 -3 -9 -6 -5 -7 7 -59 -11 -138 -47 -31 -14 -61 -26 -66 -26
-22 0 -7 16 35 39 30 16 44 29 41 38 -4 8 -1 11 5 8 6 -4 18 -1 27 7 22 18
121 65 175 82 9 3 17 9 17 14 0 9 -132 -30 -162 -48 -21 -12 -48 -13 -48 -2 1
15 48 39 144 71 79 27 103 32 117 23 12 -8 20 -8 24 -2 3 6 16 10 28 10 16 0
18 3 9 12 -9 9 -15 9 -24 0 -7 -7 -18 -12 -26 -12 -12 0 -12 3 -2 15 16 19 6
19 -67 -1 -32 -9 -83 -22 -113 -29 -37 -8 -56 -17 -58 -28 -4 -19 -28 -23 -34
-6 -3 8 -19 6 -55 -7 l-51 -19 25 -30 c16 -19 27 -26 30 -17 2 6 14 12 25 12
19 0 21 -24 2 -26 -5 0 -17 -4 -27 -9 -15 -6 -26 0 -47 25 l-28 32 -82 -27
c-74 -25 -86 -26 -126 -15 -24 7 -44 16 -44 19 0 9 107 61 126 61 8 0 12 -4 9
-10 -11 -17 115 14 167 41 10 5 23 9 29 9 6 0 22 9 36 20 39 30 58 27 36 -7
-14 -20 -14 -25 -3 -20 8 4 23 10 33 13 20 7 23 30 5 37 -21 7 -5 16 63 33 35
9 75 23 87 31 34 21 82 26 82 8 0 -8 5 -15 10 -15 6 0 10 6 10 14 0 24 58 31
81 10 19 -17 20 -17 25 3 4 13 17 23 33 26 16 4 33 17 41 34 21 39 34 51 64
59 14 3 26 12 26 20 0 17 -5 17 -50 4 -19 -6 -57 -12 -83 -14 -27 -2 -56 -11
-67 -21 -10 -9 -27 -14 -37 -11 -21 6 -121 -49 -104 -57 7 -4 7 -5 -1 -3 -7 1
-17 12 -23 25 -6 13 -17 21 -29 19 -26 -4 -33 -28 -8 -28 11 0 22 -9 25 -20 3
-11 0 -20 -6 -20 -7 0 -23 -3 -36 -7 -17 -4 -22 -3 -17 5 4 7 3 12 -2 12 -6 0
-13 -7 -16 -16 -3 -8 -10 -12 -16 -9 -5 3 -10 1 -10 -4 0 -6 -7 -11 -15 -11
-8 0 -15 4 -15 9 0 19 -216 -45 -265 -79 -5 -4 -53 -22 -105 -40 -52 -18 -106
-40 -120 -48 -45 -27 -105 -67 -110 -73 -15 -18 -140 -65 -140 -53 0 3 21 15
48 27 69 31 29 33 -70 3 -92 -28 -113 -31 -103 -15 4 6 9 8 12 5 3 -3 22 3 42
13 20 10 66 28 103 39 37 12 94 33 125 48 32 14 99 44 148 66 50 22 104 46
120 53 17 8 59 25 95 39 92 35 40 32 -61 -4 -46 -16 -149 -52 -229 -80 -80
-28 -179 -62 -220 -76 -77 -26 -148 -53 -280 -106 -41 -17 -97 -39 -125 -50
-27 -11 -78 -33 -113 -49 -34 -17 -71 -32 -81 -34 -11 -2 -32 -10 -48 -18 -15
-8 -55 -22 -88 -32 -33 -9 -74 -24 -92 -31 -17 -8 -37 -14 -45 -14 -16 0 -38
-19 -38 -33 0 -4 6 -5 13 0 6 4 14 8 17 9 25 5 67 18 75 24 6 4 51 18 100 29
50 12 96 24 103 26 28 10 9 -11 -20 -21 -18 -7 -85 -30 -148 -53 -204 -74
-469 -161 -491 -161 -11 0 -28 -4 -38 -9 -10 -6 -29 -11 -44 -13 -14 -2 -29
-7 -33 -11 -14 -14 -64 -8 -64 8 0 8 9 15 20 15 22 0 54 16 84 43 11 9 25 17
32 17 7 0 29 11 50 25 20 13 51 30 70 37 19 6 34 16 34 20 0 4 6 8 14 8 8 0
37 16 66 35 29 19 56 35 60 35 5 0 10 3 12 8 2 4 20 16 41 26 26 14 34 22 25
28 -10 6 -8 8 5 8 26 0 21 19 -9 30 -14 6 -22 14 -19 20 9 14 24 12 42 -6 9
-8 21 -13 29 -10 7 3 14 1 16 -5 4 -13 68 1 65 15 -1 6 6 10 17 8 10 -2 15 1
12 6 -3 6 5 13 19 16 14 4 25 10 25 14 0 15 78 92 82 80 5 -13 16 -9 73 27 22
14 49 28 60 32 17 6 90 43 163 82 37 21 93 43 97 39 2 -2 -17 -15 -43 -28 -26
-14 -48 -28 -50 -32 -2 -5 -8 -8 -13 -8 -6 0 -34 -15 -63 -34 -29 -18 -61 -36
-72 -40 -10 -3 -32 -18 -49 -33 -24 -23 -26 -28 -12 -31 9 -2 27 4 39 12 12 9
30 16 38 16 9 0 40 11 68 25 29 14 55 25 58 25 3 0 47 21 97 46 51 26 104 46
120 45 15 -1 27 4 27 9 0 6 4 9 9 5 6 -3 65 18 133 46 68 28 141 58 163 66 22
8 54 20 70 28 17 7 63 23 103 35 39 12 72 26 72 31 0 5 7 9 16 9 8 0 12 5 9
10 -3 6 2 10 13 10 10 0 22 3 26 7 4 5 38 18 74 30 l67 22 -114 -1 c-104 -1
-161 -12 -161 -30 0 -13 -61 -20 -75 -8 -8 6 -19 9 -25 5 -8 -5 -5 -11 6 -20
16 -11 11 -14 -37 -28 -30 -8 -70 -18 -89 -22 -19 -4 -48 -13 -65 -20 -67 -28
-96 -37 -102 -31 -5 5 81 49 99 51 3 0 10 3 14 8 4 4 15 7 25 7 10 0 21 5 25
12 5 8 -3 9 -27 5 -54 -10 -78 -15 -87 -21 -5 -3 -19 -7 -33 -10 -13 -3 -55
-16 -94 -29 -95 -33 -172 -54 -221 -62 -22 -3 -53 -17 -69 -31 -15 -13 -34
-24 -41 -24 -7 0 -17 -7 -22 -16 -7 -12 -19 -15 -40 -12 -19 3 -33 0 -36 -8
-5 -14 -71 -46 -141 -69 -51 -17 -142 -55 -250 -105 -33 -15 -71 -31 -85 -35
-14 -4 -36 -15 -50 -25 -22 -14 -53 -29 -70 -32 -3 -1 -20 -7 -39 -15 -18 -8
-35 -12 -38 -9 -2 2 5 7 16 11 12 3 19 10 17 14 -3 4 15 13 40 20 24 7 44 17
44 22 0 5 6 9 13 9 7 0 29 11 49 25 20 14 60 34 90 46 75 29 212 99 216 110 2
5 14 9 26 9 12 0 26 4 31 9 17 17 307 161 323 161 8 0 12 3 9 7 -17 16 -201
-2 -234 -24 -13 -9 -23 -12 -23 -9 0 3 -16 -1 -36 -9 -20 -8 -46 -14 -58 -14
-19 1 -18 2 4 9 53 15 70 23 70 30 0 5 10 11 22 13 13 2 2 5 -23 6 -29 0 -51
-4 -58 -13 -7 -8 -21 -12 -33 -8 -15 4 -19 2 -13 -8 6 -10 -1 -11 -31 -8 -39
5 -132 -17 -294 -67 -47 -15 -110 -30 -140 -34 -30 -5 -90 -16 -133 -26 -52
-11 -82 -14 -89 -7 -6 6 6 12 36 16 25 4 46 11 46 15 0 8 122 46 148 46 8 0
18 8 23 18 13 22 -11 33 -40 17 -12 -6 -21 -7 -21 -2 0 5 14 15 30 22 17 7 30
16 30 20 0 13 -114 18 -200 9 -96 -9 -137 2 -69 19 24 6 94 16 154 22 181 18
235 27 235 40 0 5 10 11 23 13 33 7 -170 -1 -225 -9 -27 -4 -48 -11 -48 -15 0
-5 -16 -9 -36 -9 -21 0 -33 4 -29 10 4 6 -35 10 -108 10 -109 0 -115 1 -110
20 3 10 17 23 32 29 17 6 -632 10 -1866 10 l-1893 1 0 -5400z m5605 4918 c-11
-6 -95 -44 -186 -83 -92 -39 -179 -79 -193 -88 -14 -9 -27 -17 -30 -17 -2 0
-25 -9 -51 -20 -28 -12 -44 -24 -39 -31 4 -6 9 -7 13 -2 3 5 38 19 76 32 39
12 139 47 224 77 84 30 160 54 168 54 24 0 5 -18 -27 -25 -17 -4 -30 -11 -30
-16 0 -6 -3 -8 -8 -5 -4 2 -32 -6 -62 -20 -30 -13 -65 -23 -77 -24 -12 0 -24
-4 -27 -8 -2 -4 -58 -25 -123 -46 -65 -21 -126 -43 -136 -48 -11 -5 -21 -7
-24 -4 -3 3 -17 -1 -32 -8 -14 -7 -32 -11 -40 -8 -8 3 -11 0 -7 -7 5 -7 -1
-11 -13 -11 -11 0 -50 -11 -87 -25 -76 -29 -74 -28 -74 -15 0 6 4 10 10 10 5
0 31 13 57 28 27 16 62 32 78 36 16 4 32 11 35 14 3 4 28 18 55 31 28 12 58
27 67 32 10 5 25 9 33 9 8 0 15 4 15 8 0 5 15 16 33 25 101 50 161 77 171 77
6 0 61 20 121 45 106 43 151 57 110 33z m90 -91 c-21 -14 -25 -16 -307 -132
-98 -41 -192 -84 -210 -97 -40 -29 -95 -49 -114 -41 -8 3 -20 1 -27 -5 -13
-11 -117 -52 -132 -52 -5 0 2 8 15 17 14 9 27 20 30 25 13 18 106 57 125 52
13 -3 50 8 91 26 108 49 124 56 199 85 39 14 84 32 100 40 17 7 68 27 115 45
47 17 92 36 100 40 24 14 36 11 15 -3z m3488 -1151 c16 -6 30 -21 34 -36 7
-30 31 -60 48 -60 13 0 55 -33 55 -44 0 -3 -7 -6 -15 -6 -8 0 -15 5 -15 10 0
6 -9 10 -20 10 -11 0 -20 -3 -20 -6 0 -9 41 -44 52 -44 4 0 8 -5 8 -11 0 -5
-6 -7 -12 -3 -7 4 -3 -4 10 -18 29 -32 28 -40 -3 -32 -14 3 -25 3 -25 -1 0 -8
26 -35 35 -35 4 0 13 -7 21 -15 8 -8 23 -19 32 -24 9 -5 14 -13 10 -17 -4 -4
-23 5 -43 20 -19 15 -35 23 -35 17 0 -11 -19 -9 -40 4 -8 6 -25 10 -36 10 -32
1 -18 -25 17 -32 25 -5 46 -29 35 -41 -3 -2 -19 1 -36 8 -18 7 -53 11 -86 8
-35 -3 -57 -1 -60 6 -2 6 0 34 5 61 5 27 6 54 3 60 -8 13 -3 47 10 62 7 9 6
20 -4 35 -12 18 -13 27 -4 41 8 13 8 20 -3 26 -10 6 -10 10 -1 16 7 4 9 17 6
31 -6 22 -4 24 21 18 16 -3 41 -11 56 -18z m982 -463 c19 -17 37 -28 41 -24 4
3 4 1 1 -6 -4 -6 -1 -17 6 -25 20 -21 89 -120 85 -123 -7 -6 -193 46 -196 55
-2 5 -10 10 -18 10 -18 0 -18 16 -1 23 7 2 29 3 50 1 27 -3 37 -1 37 10 0 18
-55 60 -102 77 -21 7 -38 17 -38 21 0 5 9 4 21 -2 31 -17 42 -7 19 17 -11 12
-20 24 -20 27 0 11 83 -33 115 -61z m322 -85 c7 -5 17 -7 22 -4 5 4 12 2 16
-4 3 -5 14 -10 24 -10 22 0 121 -49 121 -60 0 -5 -20 -16 -45 -26 -25 -9 -56
-27 -70 -40 -14 -13 -25 -19 -25 -15 0 11 -79 31 -96 24 -8 -3 -21 0 -29 7
-12 10 -13 16 -3 28 14 17 14 17 -38 -5 -19 -7 -14 16 18 85 19 41 21 42 57
36 20 -4 41 -11 48 -16z m293 -103 c0 -8 5 -15 12 -15 6 0 9 -3 5 -6 -8 -8 73
-85 104 -97 26 -10 -67 -7 -127 4 -32 6 -74 18 -93 26 -19 8 -51 18 -72 20
-22 3 -39 10 -39 14 0 5 5 9 11 9 5 0 8 4 5 9 -3 4 6 7 20 5 14 -1 36 7 52 20
33 27 69 38 76 22 2 -6 5 -3 5 7 1 15 5 16 21 7 11 -6 20 -17 20 -25z m187
-157 c23 -13 89 -49 148 -81 141 -77 166 -91 213 -121 22 -13 97 -54 168 -90
71 -36 122 -66 114 -67 -8 0 -4 -5 10 -9 22 -7 22 -8 5 -10 -11 -1 9 -8 45
-15 74 -15 135 -36 152 -53 16 -16 2 -15 -56 2 -25 8 -48 14 -49 14 -1 0 -37
7 -79 17 -46 10 -78 22 -78 29 0 13 -41 36 -64 36 -8 0 -34 11 -57 25 -24 14
-52 25 -61 25 -9 0 -37 9 -63 20 l-47 20 4 -30 c5 -31 -15 -43 -26 -15 -3 8
-12 12 -20 9 -8 -3 -17 -1 -21 5 -3 6 -15 11 -26 11 -11 0 -18 4 -14 9 9 15
-7 20 -76 22 -35 1 -71 5 -79 9 -62 30 -100 44 -128 47 -18 2 -45 9 -60 15
-26 12 -26 12 23 18 28 3 67 14 89 23 21 10 45 16 53 13 22 -9 36 3 22 20 -9
10 -9 17 0 28 16 19 -49 69 -86 64 -30 -3 -44 18 -16 25 10 3 18 5 19 6 0 0
19 -9 41 -21z m-6604 -287 c16 -6 16 -9 -7 -30 -21 -20 -23 -26 -13 -45 7 -11
16 -24 21 -27 5 -4 5 -12 2 -18 -4 -6 0 -11 9 -11 12 0 15 -6 10 -21 -4 -12
-8 -28 -9 -35 -1 -8 -6 -18 -12 -23 -13 -12 -118 -21 -133 -11 -7 4 -27 1 -43
-8 -25 -12 -39 -13 -83 -3 -29 7 -75 9 -101 6 -83 -10 -100 24 -24 46 22 7 37
16 34 20 -3 5 6 9 20 9 21 0 26 5 26 25 0 22 -3 25 -26 19 -17 -4 -29 -2 -35
7 -11 18 -11 32 0 25 5 -3 11 0 14 8 3 8 18 12 39 11 19 -1 44 5 59 16 16 11
43 18 70 18 47 -1 135 14 146 24 8 8 12 8 36 -2z m4394 -721 c86 -84 105 -90
308 -91 134 -1 164 -6 133 -25 -7 -5 -8 -3 -3 7 5 9 1 8 -11 -3 -13 -11 -24
-14 -35 -7 -11 6 -27 4 -47 -7 -18 -9 -60 -15 -101 -16 -38 -1 -70 -4 -69 -7
3 -26 -3 -33 -17 -21 -8 7 -23 9 -37 4 -33 -10 -68 -11 -68 -1 0 4 -4 6 -9 3
-5 -3 -15 1 -22 10 -8 10 -21 13 -36 9 -27 -6 -29 2 -6 27 9 10 13 21 10 25
-4 3 -15 -1 -25 -10 -10 -10 -24 -17 -30 -17 -7 0 -12 -4 -12 -10 0 -14 -27
-12 -34 3 -3 8 -9 6 -20 -7 -23 -28 -20 -37 9 -30 18 4 27 1 31 -10 8 -20 24
-21 24 -1 0 8 7 15 16 15 8 0 13 -4 9 -9 -3 -6 3 -15 13 -20 16 -8 18 -17 12
-48 -4 -23 -11 -37 -19 -35 -7 1 -11 -3 -8 -10 2 -7 11 -12 21 -10 10 2 16 -4
16 -17 0 -21 39 -39 69 -32 8 1 20 -3 25 -11 13 -17 76 -44 94 -40 6 2 17 -10
23 -25 6 -16 13 -23 17 -17 4 6 18 14 32 18 17 5 21 4 11 -2 -7 -5 -10 -15 -7
-21 4 -6 -3 -26 -15 -44 -13 -17 -16 -27 -8 -20 9 8 20 9 29 3 13 -8 12 -10
-2 -10 -10 0 -18 -7 -18 -16 0 -9 -5 -12 -12 -8 -8 5 -7 0 2 -11 12 -15 16
-16 18 -3 2 8 15 21 30 29 15 8 30 17 33 22 3 4 14 -5 26 -20 l20 -28 -31 -1
c-17 -1 -34 3 -37 9 -4 5 -10 0 -14 -13 -4 -12 -2 -27 4 -33 6 -6 11 -19 11
-29 0 -10 7 -18 15 -18 8 0 15 4 15 8 0 5 10 8 23 6 12 -1 26 -3 30 -3 5 -1 5
-6 2 -12 -4 -6 -31 -9 -61 -8 -29 2 -56 0 -60 -3 -3 -4 -29 -4 -58 -1 -32 3
-56 1 -60 -5 -3 -6 -20 -8 -36 -6 -17 3 -30 1 -30 -4 0 -11 71 -24 92 -18 7 2
27 7 45 10 26 4 31 3 26 -10 -5 -13 -1 -15 18 -9 13 4 27 13 31 19 5 7 8 5 8
-5 0 -9 -15 -24 -34 -34 -26 -14 -33 -25 -34 -49 0 -17 4 -36 10 -43 16 -19 1
-29 -22 -15 -14 9 -20 9 -23 -1 -2 -7 -8 -9 -12 -5 -4 4 -2 14 5 23 7 9 9 22
5 32 -5 10 -7 22 -6 26 3 14 -29 20 -43 8 -10 -8 -16 -9 -21 -1 -3 5 -11 10
-17 10 -7 0 -6 -5 1 -14 10 -11 7 -17 -11 -30 -12 -9 -18 -16 -14 -16 5 0 18
8 29 18 19 16 19 16 12 -7 -5 -16 -4 -21 4 -17 7 5 9 1 5 -8 -7 -18 -13 -19
-34 -6 -9 6 -17 5 -21 -2 -11 -17 -56 -1 -62 22 -7 25 -67 29 -67 4 0 -8 3
-13 8 -10 4 2 16 -3 27 -11 19 -15 19 -15 -5 -9 -14 3 -37 6 -52 6 -30 0 -40
20 -10 20 16 1 16 1 -1 11 -22 13 -37 4 -37 -22 0 -10 -4 -19 -10 -19 -5 0
-10 4 -10 9 0 4 -10 21 -21 35 -16 20 -24 24 -30 15 -10 -17 -39 6 -39 32 0
11 -5 16 -13 13 -7 -2 -28 2 -47 9 l-33 14 37 5 c21 2 39 1 42 -4 3 -4 15 1
26 12 22 21 38 26 38 13 0 -5 19 -9 43 -10 23 -1 36 1 29 3 -17 8 -5 24 13 17
20 -7 19 6 -2 29 -15 17 -15 21 -3 29 13 9 13 10 0 8 -33 -3 -42 1 -37 20 3
13 0 18 -8 15 -7 -3 -15 2 -18 10 -4 9 -2 16 3 16 21 0 9 27 -20 43 -16 10
-30 26 -30 36 0 10 -11 28 -25 41 -14 13 -25 29 -25 37 0 7 -5 13 -11 13 -6 0
-8 9 -4 21 5 16 4 19 -5 14 -13 -8 -30 11 -30 33 0 9 7 11 23 6 21 -6 21 -6 5
13 -10 11 -18 27 -18 35 0 9 -7 18 -15 22 -22 8 -18 34 6 38 12 2 29 14 38 27
15 24 15 24 -12 17 -26 -6 -28 -5 -22 15 5 16 3 20 -6 17 -8 -3 -22 -1 -33 4
-15 8 -16 12 -5 19 8 4 19 3 26 -3 7 -6 22 -8 33 -5 11 3 23 1 26 -4 3 -5 16
-6 30 -3 21 5 24 3 24 -23 0 -16 5 -34 10 -39 11 -11 -6 -64 -20 -64 -4 0 -7
-6 -7 -14 0 -8 6 -12 14 -9 8 3 12 8 9 10 -3 3 6 23 20 44 29 46 30 53 6 47
-13 -4 -18 1 -20 18 -1 18 3 24 17 24 11 0 21 6 24 13 2 6 8 9 12 5 4 -4 2
-14 -4 -22 -8 -10 -9 -16 -1 -21 5 -3 10 1 10 10 0 12 9 14 45 11 25 -2 45 0
45 5 0 5 -20 18 -45 29 -33 15 -45 26 -45 42 0 18 4 20 38 15 20 -3 31 -3 25
0 -7 2 -13 14 -13 26 0 18 2 19 10 7 8 -12 10 -9 10 13 0 15 1 27 3 27 2 0 35
-31 74 -70z m2680 -376 c145 -8 286 -17 315 -18 29 -2 197 -8 372 -15 175 -6
321 -13 324 -16 25 -25 -1341 40 -1403 67 -12 5 8 6 55 3 41 -3 193 -12 337
-21z m-7437 -243 c22 -6 19 -9 -25 -18 -132 -30 -210 -36 -365 -30 -93 4 -179
3 -207 -3 -54 -11 -477 -19 -461 -9 6 4 90 10 187 13 197 8 418 21 656 40 193
16 184 16 215 7z m4875 -402 c12 -12 65 -11 65 1 0 6 9 10 20 10 11 0 20 -4
20 -10 0 -5 11 -10 24 -10 14 0 28 5 31 10 9 15 34 12 51 -5 16 -16 59 -21 50
-6 -4 5 27 12 66 15 68 6 93 5 203 -9 22 -3 74 -6 115 -9 41 -2 93 -6 115 -9
74 -10 199 -18 345 -22 141 -4 233 -10 296 -20 17 -3 64 -7 104 -10 40 -3 76
-8 79 -11 3 -4 -37 -4 -89 -1 -86 5 -96 3 -96 -12 0 -13 6 -16 22 -13 12 2 30
-1 41 -7 16 -9 15 -10 -9 -11 -16 0 -28 -4 -28 -10 0 -9 42 -15 84 -11 10 0
24 -3 31 -9 7 -5 30 -9 53 -8 23 1 47 -3 54 -9 7 -5 38 -10 68 -11 30 -1 73
-9 95 -17 l40 -14 -65 5 c-36 3 -96 10 -134 16 -38 6 -92 12 -120 13 -28 2
-85 8 -126 13 -41 6 -122 15 -180 22 -58 6 -136 17 -175 25 -95 18 -195 26
-195 14 0 -5 8 -9 17 -9 9 0 32 -5 50 -12 27 -10 33 -17 33 -40 0 -26 3 -28
43 -28 23 -1 60 -7 82 -15 22 -8 51 -15 65 -16 l25 -1 -28 -10 c-15 -5 -25
-14 -21 -19 3 -5 -12 -8 -33 -8 -37 1 -37 2 -8 8 50 12 1 21 -85 16 -48 -3
-69 -1 -60 5 8 5 10 10 5 10 -6 0 -15 -4 -20 -8 -9 -8 -183 1 -230 12 -11 2
-31 5 -45 6 l-25 2 28 11 c15 6 27 14 27 19 0 12 -38 10 -46 -3 -4 -8 -9 -7
-16 2 -7 11 -11 11 -15 2 -2 -7 -13 -13 -23 -13 -10 0 -20 -6 -22 -12 -5 -15
-38 13 -38 31 0 6 -2 11 -4 11 -2 0 -13 3 -23 7 -17 7 -17 6 0 -12 27 -27 7
-33 -75 -22 -40 5 -93 10 -118 11 -25 1 -55 7 -68 14 -12 7 -27 10 -32 7 -5
-3 -19 -1 -30 5 -14 7 -26 8 -39 0 -15 -7 -23 -6 -35 5 -18 18 -36 19 -36 3 0
-9 -3 -8 -10 2 -6 10 -24 14 -57 13 -32 -1 -42 1 -32 8 9 6 -2 7 -33 3 -34 -5
-52 -2 -69 10 -13 9 -37 16 -54 16 -17 0 -36 5 -42 11 -7 7 -25 13 -40 14 -15
1 -39 3 -52 3 -35 3 -14 20 28 24 19 2 36 9 39 16 2 7 -2 10 -12 6 -9 -3 -16
-1 -16 5 0 6 15 12 33 13 70 3 156 14 164 22 6 5 89 -7 98 -15z m2425 -119 c0
-5 -3 -10 -8 -10 -8 0 -38 -61 -34 -72 3 -12 -291 -9 -308 2 -13 9 -13 11 0
20 20 13 39 12 20 -1 -12 -9 -12 -10 3 -5 10 3 30 6 43 6 13 0 24 4 24 9 0 8
-56 16 -190 27 -143 12 -111 21 65 18 105 -2 192 -4 195 -5 25 -4 127 4 135
12 12 12 55 12 55 -1z m870 -29 c63 -7 64 -7 28 -15 -21 -5 -44 -6 -51 -3 -7
3 -52 2 -100 -2 -48 -3 -87 -4 -87 -1 0 3 -19 4 -41 2 -32 -3 -40 -1 -34 8 5
9 4 11 -4 6 -18 -11 -321 5 -321 17 0 11 486 1 610 -12z m-575 -227 c66 -8
129 -15 140 -15 34 1 173 -29 202 -44 24 -12 140 -31 238 -40 87 -7 203 -32
220 -46 5 -5 27 -9 50 -9 22 -1 78 -7 125 -14 l85 -14 -58 -1 c-70 -1 -235 15
-296 30 -37 8 -45 7 -56 -7 -12 -17 -22 -17 -196 0 -101 9 -210 15 -241 13
-66 -5 -80 10 -15 16 23 2 20 3 -8 1 -27 -2 -54 -4 -60 -4 -18 -2 -158 9 -210
17 -27 4 -56 8 -64 8 -8 0 -16 5 -18 11 -3 8 11 9 46 3 57 -9 120 3 87 17 -19
7 -19 8 0 14 17 6 17 8 -6 20 -13 7 -37 13 -52 12 -16 0 -26 3 -24 7 3 4 -5 8
-17 8 -12 1 -23 7 -25 13 -2 5 -12 10 -23 10 -10 0 -19 5 -19 11 0 7 13 9 38
5 20 -3 91 -13 157 -22z m-2840 -4 c43 -11 88 -20 101 -20 13 0 26 -4 29 -10
3 -5 15 -10 26 -10 10 0 19 -4 19 -10 0 -5 7 -10 16 -10 9 0 14 -6 11 -13 -4
-10 2 -13 17 -10 13 3 30 -2 38 -11 9 -8 26 -18 39 -21 13 -3 35 -15 49 -26
25 -19 25 -19 -25 -1 -27 11 -56 17 -63 15 -7 -3 -24 2 -37 11 -13 9 -34 16
-45 16 -11 0 -28 4 -38 9 -9 5 -28 13 -42 19 -14 5 -47 20 -75 33 -27 13 -52
23 -55 24 -14 2 -63 34 -54 35 6 0 46 -9 89 -20z m-217 -407 c76 -84 114 -123
122 -123 5 0 14 -9 21 -21 10 -19 9 -20 -12 -14 -26 9 -40 21 -57 50 -11 19
-11 19 -12 -4 0 -13 10 -33 23 -44 22 -20 19 -20 -28 -1 -9 4 -15 1 -15 -8 0
-8 -7 -23 -16 -34 -8 -10 -13 -13 -9 -6 3 6 1 12 -4 12 -6 0 -11 -11 -11 -25
0 -25 -19 -36 -21 -12 0 6 -4 3 -9 -8 -13 -30 -12 -38 5 -31 9 3 15 0 15 -9 0
-14 -10 -18 -27 -12 -4 1 -10 -11 -13 -26 -5 -25 -7 -27 -24 -14 -16 11 -17
17 -7 36 7 12 14 32 16 43 3 12 9 24 14 28 17 10 23 72 9 81 -10 7 -8 9 5 9 9
0 17 -5 17 -12 0 -8 3 -9 10 -2 8 8 7 20 0 39 -8 22 -8 30 2 36 9 6 8 10 -5
15 -9 3 -14 10 -11 15 3 5 11 6 17 2 6 -4 2 6 -11 21 -38 49 -26 64 16 19z
m-398 -903 c10 0 20 -10 23 -21 4 -15 11 -20 22 -15 25 9 85 -23 85 -45 0 -11
-6 -22 -14 -25 -20 -8 -15 -54 7 -54 9 0 17 -5 17 -11 0 -6 -10 -9 -22 -7 -18
2 -24 11 -29 43 -3 22 -7 30 -8 17 0 -13 -5 -21 -10 -18 -14 9 -18 -62 -4 -76
8 -9 9 -18 3 -28 -6 -9 -10 -10 -10 -3 0 7 -9 21 -21 32 -13 12 -21 34 -23 64
-2 24 -8 52 -13 62 -6 10 -8 27 -6 39 3 12 -2 8 -12 -11 -10 -18 -22 -30 -27
-27 -5 3 -5 11 2 19 7 9 7 21 0 39 -13 36 -13 39 6 32 9 -3 24 -6 34 -6z
m-3220 -485 c0 -16 -52 -47 -118 -70 -42 -14 -86 -31 -97 -37 -14 -8 -20 -8
-23 2 -4 10 -6 10 -12 0 -5 -8 -16 -9 -31 -5 -23 8 -23 8 -4 16 16 6 17 8 3 8
-9 1 -24 -6 -32 -15 -12 -12 -26 -14 -57 -9 -24 4 -39 3 -36 -2 3 -5 -15 -9
-40 -10 -25 -1 -42 2 -37 6 11 10 111 42 121 39 12 -3 111 22 173 43 30 11 82
23 115 28 33 5 63 9 68 10 4 0 7 -1 7 -4z m3364 -151 c70 -78 146 -194 127
-194 -18 0 -8 -40 12 -46 25 -8 37 -19 61 -57 16 -24 16 -27 2 -21 -12 4 -16
0 -16 -15 0 -12 -5 -21 -11 -21 -7 0 -9 9 -6 21 4 16 2 19 -11 14 -9 -3 -14
-3 -10 0 3 3 -7 20 -22 37 -15 16 -40 53 -54 81 -15 29 -31 59 -36 67 -17 30
-40 88 -40 102 0 7 -14 37 -30 67 -17 30 -30 59 -30 65 0 6 12 -11 26 -39 15
-27 32 -55 38 -61z m-2150 -1291 c4 -4 -3 -15 -16 -25 -20 -15 -21 -19 -8 -28
8 -6 26 -13 40 -16 17 -4 26 -12 26 -25 0 -10 -2 -19 -4 -19 -10 0 -49 26 -64
43 -13 14 -24 18 -44 13 l-26 -7 23 -20 24 -21 -27 -23 c-22 -19 -28 -33 -28
-65 0 -37 2 -40 28 -40 16 0 38 -9 51 -21 14 -13 41 -22 76 -26 53 -6 55 -5
56 18 0 13 2 33 4 43 6 31 -5 39 -26 20 -18 -16 -19 -16 -19 9 0 30 -26 38
-36 12 -4 -8 -14 -15 -23 -15 -14 0 -14 2 -1 10 13 9 11 14 -12 35 -46 40 -35
58 18 30 16 -8 39 -15 52 -15 12 0 22 -6 22 -14 0 -8 14 -24 30 -36 30 -21 30
-23 15 -47 -21 -32 -9 -45 15 -16 17 22 20 22 54 8 20 -8 39 -15 43 -15 9 0 9
-6 -2 -37 -7 -21 -9 -22 -36 -7 -16 8 -29 19 -29 24 0 6 -7 10 -15 10 -19 0
-19 -8 3 -45 10 -16 18 -43 18 -60 -1 -25 4 -32 34 -42 19 -7 48 -13 64 -13
20 0 27 -4 23 -14 -4 -10 0 -12 14 -9 10 3 19 0 19 -6 0 -6 7 -11 15 -11 8 0
15 -5 15 -11 0 -7 -7 -8 -17 -4 -10 4 -38 14 -63 21 -25 7 -60 17 -78 23 -18
5 -30 6 -28 2 5 -7 -20 -10 -101 -11 -18 0 -35 -5 -38 -10 -9 -15 -25 -12 -25
5 0 9 6 12 17 8 11 -4 14 -3 9 5 -4 7 -17 12 -30 12 -24 0 -66 30 -66 48 0 5
-15 12 -32 16 -18 3 -53 9 -77 13 -50 9 -64 29 -29 42 18 8 19 10 5 10 -25 1
-51 28 -34 34 6 3 2 6 -11 6 -18 1 -22 5 -17 20 4 14 -2 21 -25 31 -16 7 -30
16 -30 21 0 14 15 11 41 -9 36 -28 57 -33 63 -16 10 26 7 34 -15 34 -16 0 -19
4 -14 23 4 12 12 27 18 32 7 7 8 5 4 -7 -3 -9 0 -19 8 -22 8 -3 25 -27 39 -53
14 -26 25 -42 26 -35 0 7 5 10 10 7 6 -4 10 5 10 19 0 14 -4 26 -9 26 -14 0
-23 37 -16 60 6 20 30 28 37 11 2 -4 12 -5 22 -1 18 6 17 9 -12 25 -37 22 -41
35 -12 35 11 0 20 4 20 9 0 5 15 18 33 29 37 23 41 25 51 15z m-193 -749 c20
-13 49 -34 64 -48 15 -14 34 -26 41 -26 8 0 31 -15 51 -32 21 -18 54 -41 73
-52 19 -10 40 -24 45 -30 6 -7 26 -23 45 -36 19 -13 44 -32 55 -42 24 -21 174
-142 223 -180 20 -16 40 -28 45 -28 6 0 19 -7 29 -17 21 -18 26 -22 143 -82
100 -52 137 -85 49 -46 -32 15 -84 39 -114 53 -106 48 -122 58 -205 122 -248
193 -291 226 -307 235 -9 6 -52 34 -94 63 -42 28 -80 52 -85 52 -4 0 -13 9
-19 20 -6 11 -16 20 -23 20 -15 0 -87 65 -87 79 0 13 24 4 71 -25z"/>
<path d="M6250 10786 c0 -6 -17 -11 -38 -12 -20 0 -58 -6 -83 -14 -36 -11 -45
-17 -42 -31 4 -13 -2 -20 -21 -25 -14 -3 -26 -10 -26 -15 0 -5 -9 -9 -20 -9
-11 0 -20 -4 -20 -10 0 -5 -9 -10 -20 -10 -11 0 -20 -4 -20 -9 0 -5 28 -1 63
10 34 10 90 24 125 30 34 6 65 15 68 20 3 5 20 9 38 9 19 0 39 6 45 14 6 8 26
16 44 19 52 9 135 31 142 39 4 4 -47 7 -114 6 -79 -1 -121 -5 -121 -12z"/>
<path d="M5185 8808 c-11 -11 -21 -14 -23 -9 -5 16 -30 13 -63 -6 -26 -16 -31
-16 -39 -3 -5 8 -10 10 -10 4 0 -6 -25 -14 -57 -17 -32 -3 -80 -12 -108 -20
-27 -9 -102 -30 -166 -47 -115 -32 -148 -44 -139 -54 7 -6 355 51 420 69 14 4
41 8 60 10 19 2 48 8 64 14 15 6 33 10 40 9 18 -4 56 26 56 44 0 25 -13 28
-35 6z"/>
<path d="M6645 8102 c-29 -15 -29 -15 -7 -25 12 -6 22 -17 22 -26 0 -13 -2
-13 -9 -3 -4 8 -12 14 -17 14 -5 0 -15 3 -22 6 -7 2 -26 -11 -42 -29 -28 -33
-29 -33 -30 -10 0 13 7 29 17 36 27 20 10 43 -29 37 -25 -4 -28 -7 -15 -11 17
-6 16 -8 -7 -21 -14 -7 -26 -17 -26 -21 0 -9 54 -49 67 -49 4 0 8 -13 8 -30 1
-34 -2 -35 -28 -16 -12 9 -14 16 -8 21 17 10 13 25 -8 25 -10 0 -21 7 -25 15
-3 8 -14 15 -25 15 -11 0 -21 6 -24 13 -4 10 -7 10 -18 0 -9 -9 -9 -13 -1 -13
6 0 16 -9 22 -19 9 -18 8 -19 -21 -11 -33 10 -34 6 -14 -42 7 -18 -32 -47 -44
-32 -7 11 -66 44 -76 44 -4 0 -5 -9 -2 -20 5 -21 -16 -29 -28 -10 -4 6 -11 7
-17 4 -5 -3 0 -11 13 -18 28 -14 36 -36 13 -36 -9 0 -14 -3 -10 -7 3 -4 -4
-13 -16 -20 -15 -8 -18 -12 -8 -13 13 0 13 -1 0 -11 -12 -8 -11 -9 5 -5 11 3
33 -3 50 -14 17 -11 26 -20 20 -20 -5 0 -3 -5 5 -10 12 -8 10 -10 -8 -10 -22
0 -22 -1 -7 -17 10 -10 34 -16 60 -17 l44 -1 -30 -15 c-16 -9 -27 -19 -23 -23
4 -4 -2 -7 -14 -7 -12 0 -22 -5 -22 -10 0 -6 -8 -5 -20 2 -15 9 -23 10 -28 2
-4 -6 -21 -11 -38 -10 -22 1 -31 -3 -30 -14 1 -11 -8 -14 -37 -12 -24 2 -43
-3 -53 -13 -9 -8 -19 -13 -24 -10 -4 3 -13 -2 -20 -10 -6 -7 -17 -12 -24 -9
-6 2 -20 -2 -30 -9 -13 -10 -30 -12 -51 -7 -29 7 -31 5 -27 -16 3 -19 0 -24
-17 -24 -11 0 -21 -4 -21 -10 0 -5 -11 -10 -25 -10 -19 0 -23 -4 -18 -17 4
-11 3 -14 -5 -9 -8 5 -12 -1 -12 -18 0 -19 -5 -26 -19 -26 -14 0 -18 -5 -14
-19 3 -12 -2 -21 -14 -25 -17 -7 -17 -8 2 -22 13 -10 16 -17 9 -22 -23 -14
-25 -48 -5 -67 20 -17 22 -17 61 3 22 11 43 16 45 11 3 -4 18 -4 33 2 21 8 29
7 38 -5 14 -19 31 -21 36 -4 3 9 26 13 66 14 33 0 59 -3 56 -8 -3 -4 -1 -8 4
-8 12 0 22 25 22 56 0 14 6 24 14 24 8 0 18 9 21 21 6 19 9 18 41 -13 18 -18
34 -38 34 -44 0 -7 21 -35 46 -63 39 -44 51 -51 83 -51 20 0 67 -3 104 -6 41
-4 73 -2 80 5 7 5 23 8 34 5 26 -7 117 21 138 43 9 8 13 23 10 33 -3 10 -1 21
5 25 5 3 10 15 10 26 0 10 7 19 15 19 8 0 15 -8 15 -17 0 -15 -2 -16 -10 -3
-7 12 -10 8 -10 -15 0 -23 3 -27 10 -15 5 8 10 11 10 5 0 -5 4 -3 10 5 5 8 12
11 16 7 4 -4 1 -15 -8 -24 -21 -25 -12 -53 18 -53 13 0 24 -4 24 -9 0 -10 25
-9 35 1 13 12 44 -4 38 -20 -5 -11 -3 -13 8 -6 20 12 49 15 49 5 0 -5 9 -11
20 -14 12 -3 20 0 20 8 0 7 20 18 44 24 34 8 46 17 54 38 5 16 13 36 17 46 5
12 2 17 -11 17 -17 0 -16 2 3 22 22 21 23 21 43 3 12 -11 21 -15 20 -10 -6 29
2 55 16 55 9 0 14 8 13 18 -5 57 -1 64 40 59 30 -3 43 0 56 15 15 18 15 21 -2
36 -10 9 -19 24 -21 32 -5 21 -41 58 -64 66 -10 3 -18 10 -18 16 0 12 -97 107
-103 101 -3 -2 -7 3 -10 11 -4 10 0 14 14 11 11 -2 19 2 19 10 0 8 5 17 12 21
8 5 9 2 5 -9 -3 -10 -2 -17 2 -17 5 0 12 6 14 13 3 6 6 2 6 -11 1 -13 -3 -21
-8 -17 -5 3 -12 1 -16 -5 -3 -5 3 -10 14 -10 12 0 21 7 21 16 0 8 5 12 10 9 6
-3 10 -1 10 4 0 6 -4 11 -8 11 -19 0 -120 107 -126 132 -4 15 -19 36 -34 45
-15 10 -33 23 -40 30 -17 17 -61 28 -70 18 -4 -4 -1 -10 6 -12 21 -8 13 -23
-13 -23 -14 0 -28 7 -31 15 -4 8 -10 12 -15 9 -5 -3 -9 -1 -9 4 0 5 -9 12 -21
15 -16 4 -18 3 -8 -9 7 -9 8 -14 1 -14 -6 0 -14 5 -17 10 -4 6 -15 8 -25 5
-10 -3 -24 0 -31 8 -16 14 -84 58 -90 56 -2 -1 -17 -8 -34 -17z"/>
<path d="M5750 8042 c-8 -3 -21 -11 -28 -19 -16 -16 -39 -17 -44 -3 -2 7 -19
3 -42 -8 -37 -18 -38 -20 -17 -27 15 -4 28 -1 40 9 20 18 31 12 31 -16 0 -10
-7 -18 -15 -18 -8 0 -15 -9 -15 -21 0 -13 4 -18 13 -13 6 3 -1 -5 -17 -20 -16
-14 -27 -28 -25 -31 8 -8 63 -8 82 0 10 4 17 3 17 -4 0 -6 18 -11 41 -11 36 0
41 2 36 20 -7 27 9 35 29 15 19 -19 38 -7 29 17 -9 22 -52 38 -98 36 -31 -1
-36 -4 -32 -19 5 -16 3 -16 -19 -6 -14 7 -26 17 -26 23 0 12 63 70 84 77 7 3
8 8 1 15 -5 5 -17 7 -25 4z"/>
<path d="M5015 6424 c-49 -7 -91 -13 -93 -13 -2 -1 6 -13 18 -28 19 -24 20
-28 6 -31 -18 -4 -22 -28 -5 -34 8 -3 9 -10 2 -23 -11 -21 -32 -80 -38 -105
-2 -8 -4 -17 -5 -20 -1 -3 -2 -8 -1 -12 2 -14 -17 -9 -34 8 -9 9 -19 13 -23 9
-4 -4 -1 -10 6 -12 7 -3 19 -12 28 -20 9 -9 31 -16 50 -15 l35 1 -7 -37 c-4
-20 -14 -42 -23 -49 -14 -11 -12 -12 14 -13 55 0 105 19 105 40 0 24 15 26 24
5 6 -18 36 -20 36 -3 0 6 7 20 17 30 15 17 14 18 -35 18 -29 0 -55 1 -59 3 -5
1 -12 -8 -18 -20 -11 -26 -25 -30 -25 -9 0 8 -6 16 -12 19 -19 7 -3 19 30 23
16 2 49 8 73 14 24 6 76 17 114 25 39 7 81 18 95 23 14 5 29 10 33 10 19 1 17
11 -2 17 -17 5 -19 9 -9 31 9 18 9 27 0 36 -22 22 -12 37 31 49 27 8 36 14 24
17 -10 2 -26 0 -35 -3 -9 -4 -41 -9 -71 -11 -29 -2 -58 -7 -65 -12 -6 -5 -36
-7 -66 -5 -31 2 -65 -2 -77 -9 -27 -14 -37 -7 -28 21 4 15 13 19 33 17 15 -2
20 -1 12 1 -8 3 -20 13 -26 21 -9 13 -15 14 -26 5 -16 -13 -61 -6 -52 8 3 5
23 9 45 9 22 0 39 5 39 11 0 6 7 9 15 5 8 -3 25 -2 37 3 40 15 3 17 -87 5z"/>
<path d="M7340 6095 c0 -5 -17 -10 -38 -10 -38 -1 -142 -42 -142 -57 0 -4 -7
-8 -15 -8 -25 0 -65 -23 -65 -38 0 -10 -8 -13 -23 -10 -20 4 -22 1 -19 -29 4
-27 1 -32 -12 -27 -9 3 -16 11 -16 17 0 8 -3 8 -11 0 -14 -14 15 -64 65 -111
20 -19 36 -38 36 -43 0 -15 54 -37 86 -34 32 2 84 31 84 45 0 5 9 12 20 15 11
4 34 18 50 32 21 17 42 25 68 25 20 0 47 5 59 11 24 11 33 7 37 -15 1 -7 5
-19 10 -26 7 -11 4 -12 -13 -3 -12 7 -27 8 -35 4 -12 -7 -11 -10 2 -23 14 -13
15 -12 9 3 -8 21 6 22 26 2 8 -8 17 -12 19 -9 3 3 8 -9 11 -26 8 -37 18 -38
34 -5 10 22 8 29 -12 51 l-24 26 21 29 c19 26 20 31 8 55 -23 42 -71 84 -130
112 -30 15 -59 27 -63 27 -4 0 -12 7 -17 15 -5 8 -10 11 -10 5z"/>
<path d="M5245 5901 c-6 -5 -44 -13 -85 -19 -78 -12 -180 -48 -180 -64 0 -5
-9 -6 -21 -3 -18 6 -20 4 -14 -17 4 -12 12 -24 16 -26 5 -2 9 -9 9 -15 0 -12
50 -40 57 -33 2 2 -7 16 -21 31 -15 16 -26 34 -26 41 0 22 28 16 42 -8 13 -25
14 -28 18 -55 1 -11 3 -13 7 -5 9 23 23 12 23 -18 0 -16 5 -30 11 -30 6 0 43
11 82 24 40 13 88 27 107 30 44 8 56 16 64 44 5 16 3 22 -7 22 -8 0 -18 7 -21
16 -9 23 -8 25 17 20 24 -4 55 28 38 38 -15 9 -80 -6 -85 -20 -3 -8 0 -14 6
-14 6 0 9 -2 6 -5 -3 -3 -13 -2 -22 1 -14 5 -15 9 -4 15 11 7 10 11 -2 19 -13
9 -12 10 4 8 10 -2 21 3 24 11 3 8 0 11 -7 7 -6 -4 -11 -2 -11 3 0 13 -13 14
-25 2z"/>
<path d="M5416 4344 c-3 -9 -4 -19 -1 -23 2 -5 -7 -19 -20 -31 -25 -24 -33
-64 -15 -75 6 -4 8 -11 5 -16 -4 -5 1 -12 9 -15 9 -3 16 -13 16 -22 0 -8 11
-30 25 -48 14 -18 25 -39 25 -46 0 -7 9 -24 20 -38 11 -14 20 -32 20 -40 1
-19 26 -52 36 -48 5 2 11 -8 14 -22 17 -75 63 -126 122 -135 25 -4 39 0 56 15
12 12 26 19 31 16 9 -6 126 20 157 36 12 5 31 7 43 3 28 -9 63 3 54 18 -5 9
-3 9 8 0 8 -7 26 -9 40 -6 32 8 81 42 74 53 -6 10 25 44 33 36 2 -3 -1 -12 -7
-20 -9 -11 -9 -16 0 -22 7 -4 17 0 24 9 9 12 15 13 23 5 15 -15 24 -6 26 25 1
21 4 23 19 15 10 -5 16 -16 13 -24 -3 -8 -1 -14 4 -14 6 0 10 8 10 18 0 10 5
23 11 29 9 9 8 16 -4 27 -10 10 -18 12 -22 6 -4 -6 -12 -5 -21 5 -9 8 -13 19
-10 24 4 5 -1 17 -10 25 -18 19 -4 22 15 4 8 -7 11 -8 8 -2 -3 6 1 23 9 38 18
36 18 36 -8 36 -19 0 -20 -2 -8 -10 12 -8 11 -10 -7 -10 -13 0 -23 6 -23 14 0
17 -48 27 -61 12 -6 -6 -19 -26 -30 -44 -11 -18 -33 -38 -49 -43 -16 -6 -28
-16 -27 -22 1 -6 -11 -13 -28 -17 -17 -3 -30 -11 -30 -20 0 -16 -14 -30 -29
-30 -5 0 -3 7 4 15 7 9 10 18 7 22 -4 3 -16 -6 -28 -21 -16 -21 -24 -24 -30
-15 -6 10 -14 8 -34 -11 -14 -13 -23 -30 -21 -37 3 -7 -2 -13 -10 -13 -11 0
-13 6 -9 21 6 19 5 20 -14 9 -12 -6 -30 -8 -40 -5 -25 7 -73 -15 -67 -31 3 -8
0 -11 -10 -7 -14 5 -20 43 -6 43 4 0 16 15 26 33 l18 32 -25 -30 c-36 -43 -42
-26 -10 31 27 48 27 49 4 34 -12 -8 -22 -19 -21 -23 1 -10 -51 -57 -62 -57
-15 0 -8 24 14 47 18 19 19 25 8 36 -10 9 -11 9 -6 0 4 -8 1 -13 -8 -13 -8 0
-18 -9 -21 -20 -8 -26 -21 -26 -28 1 -3 12 -10 18 -16 14 -6 -3 -11 -1 -11 4
0 6 4 11 8 11 7 0 18 16 40 63 2 4 0 7 -5 6 -21 -4 -33 2 -33 16 0 18 -12 19
-28 3 -9 -9 -12 -6 -12 15 0 15 -4 27 -10 27 -5 0 -10 7 -10 15 0 8 -4 15 -10
15 -5 0 -10 7 -10 15 0 8 5 15 10 15 6 0 10 -6 10 -12 0 -9 3 -8 9 2 6 8 8 17
5 21 -2 4 0 10 6 14 5 3 15 15 21 26 10 19 9 20 -10 9 -12 -6 -21 -15 -21 -20
0 -6 -6 -9 -12 -7 -7 1 -12 -4 -10 -10 3 -17 -17 -16 -48 1 -21 12 -24 20 -21
60 3 47 -2 58 -13 30z"/>
<path d="M7446 4215 c-4 -14 -11 -23 -17 -20 -18 12 -65 -48 -60 -77 0 -5 -4
-8 -10 -8 -7 0 -8 11 -4 30 7 33 0 37 -29 15 -16 -12 -17 -15 -4 -20 17 -7 20
-37 4 -47 -6 -4 -16 -2 -22 3 -8 7 -14 7 -18 0 -4 -5 -14 -8 -24 -6 -13 2 -18
-4 -20 -21 -1 -17 3 -24 15 -24 14 0 13 -3 -5 -20 -12 -12 -22 -25 -22 -30 0
-14 54 -12 68 2 17 17 15 38 -4 38 -14 0 -14 2 1 16 20 20 27 14 30 -26 2 -21
-4 -35 -18 -45 -21 -15 -21 -15 5 -15 14 0 28 7 32 15 6 16 36 21 36 6 0 -16
44 -21 60 -6 9 8 25 12 38 8 17 -4 22 -1 22 15 0 11 -6 23 -12 25 -10 4 -10 6
0 6 15 1 17 87 2 96 -5 3 -10 22 -10 41 0 19 -4 34 -10 34 -5 0 -7 6 -4 14 3
8 1 17 -4 20 -6 3 -13 -6 -16 -19z"/>
</g>
</svg>
