<?xml version="1.0" encoding="utf-8"?>
<svg xmlns="http://www.w3.org/2000/svg" viewBox="0 0 500 500">
  <g id="svg2" transform="matrix(0.255126, 0, 0, 0.278933, 175.548264, 213.610809)" style="">
    <path d="M 874.68 691.238 C 873.708 690.067 873.728 688.855 874.775 685.309 C 876.039 681.027 876.24 680.852 879.886 680.852 C 882.088 680.852 883.432 681.255 883.088 681.811 C 882.762 682.339 883.736 683.074 885.253 683.446 C 888.315 684.195 889.455 685.429 889.478 688.016 C 889.488 689.168 888.731 689.745 887.212 689.745 C 885.957 689.745 884.067 690.398 883.012 691.196 C 880.517 693.083 876.229 693.104 874.68 691.238 Z M 845.16 678.978 C 844.055 678.278 844.028 677.462 845.008 674.491 C 846.089 671.215 846.511 670.89 849.323 671.163 C 852.184 671.44 852.426 671.739 852.279 674.812 C 852.064 679.292 848.733 681.242 845.16 678.978 Z M 881.909 678.167 C 880.183 677.95 878.239 677.132 877.588 676.349 C 876.938 675.565 875.571 674.923 874.55 674.923 C 873.53 674.923 872.695 674.531 872.695 674.051 C 872.695 673.571 871.853 672.958 870.824 672.688 C 869.716 672.399 868.676 670.941 868.275 669.115 C 867.903 667.418 867.218 666.031 866.755 666.031 C 866.291 666.031 865.664 665.249 865.36 664.293 C 865.057 663.337 863.804 662.114 862.576 661.575 C 860.992 660.88 859.792 658.802 858.442 654.42 C 857.395 651.024 856.001 648.245 855.343 648.245 C 853.527 648.245 850.86 641.818 849.646 634.519 C 849.049 630.927 848.099 627.671 847.536 627.283 C 846.951 626.88 846.51 622.596 846.509 617.306 C 846.509 610.682 846.101 607.543 845.083 606.316 C 844.299 605.372 843.352 602.007 842.979 598.84 C 842.526 595.002 841.588 592.318 840.167 590.793 C 838.045 588.514 837.736 587.65 836.686 581.041 C 836.352 578.941 835.158 576.837 833.665 575.716 C 830.319 573.202 829.337 568.829 829.006 554.958 C 828.797 546.219 829.043 543.082 829.96 542.771 C 830.639 542.541 831.195 541.775 831.195 541.069 C 831.195 540.362 832.079 539.553 833.159 539.27 C 835.51 538.656 837.119 534.846 837.135 529.855 C 837.151 524.856 839.56 516.225 841.474 514.312 C 842.342 513.444 843.052 512.167 843.052 511.475 C 843.052 508.864 846.938 506.714 852.397 506.305 C 855.771 506.051 857.874 506.285 857.874 506.914 C 857.874 507.528 860.939 507.934 865.581 507.934 C 870.051 507.934 873.763 508.409 874.419 509.065 C 875.268 509.915 875.719 509.525 876.227 507.501 C 876.766 505.352 877.328 504.92 878.998 505.369 C 880.151 505.678 881.65 505.937 882.329 505.945 C 883.036 505.952 883.564 507.208 883.564 508.878 C 883.564 511.359 887.333 516.827 889.044 516.827 C 889.291 516.827 890.382 517.717 891.469 518.803 C 892.556 519.89 894.531 520.78 895.857 520.78 C 897.184 520.78 898.544 521.224 898.88 521.768 C 899.216 522.311 901.465 522.756 903.879 522.756 C 906.292 522.756 908.267 522.311 908.267 521.768 C 908.267 521.224 908.943 520.78 909.77 520.78 C 910.597 520.78 911.769 519.693 912.374 518.364 C 912.98 517.035 914.115 515.702 914.897 515.402 C 916.686 514.716 919.146 517.097 919.105 519.474 C 919.066 521.687 916.857 524.732 915.292 524.732 C 914.655 524.732 912.77 526.287 911.101 528.187 C 909.433 530.088 907.668 531.395 907.179 531.093 C 906.691 530.791 906.291 531.576 906.291 532.838 C 906.291 534.27 907.127 535.499 908.514 536.108 C 910.148 536.825 910.818 538.065 911.044 540.789 C 911.34 544.369 913.268 545.806 914.69 543.506 C 915.025 542.963 915.941 542.518 916.724 542.518 C 918.626 542.518 918.564 548.308 916.634 550.859 C 914.329 553.907 914.916 562.28 917.435 562.28 C 918.013 562.28 919.259 561.581 920.204 560.726 C 922.716 558.452 930.858 558.332 932.1 560.551 C 933.152 562.431 935.934 562.927 935.934 561.234 C 935.934 560.658 936.378 560.462 936.922 560.798 C 937.465 561.134 937.91 560.938 937.91 560.362 C 937.91 559.787 938.831 559.316 939.957 559.316 C 942.144 559.316 944.827 557.178 944.827 555.434 C 944.827 554.852 945.716 554.375 946.803 554.375 C 948.305 554.375 948.779 555.034 948.779 557.12 C 948.779 558.629 948.158 560.741 947.399 561.813 C 945.052 565.126 938.039 572.161 937.082 572.161 C 935.484 572.161 933.751 574.881 934.898 575.59 C 935.467 575.942 935.934 575.759 935.934 575.184 C 935.934 574.587 938.056 574.137 940.874 574.137 C 943.592 574.137 945.809 574.471 945.801 574.878 C 945.763 576.994 944.476 580.066 943.629 580.066 C 943.097 580.066 941.373 580.983 939.798 582.104 C 938.224 583.226 936.488 583.866 935.94 583.528 C 935.393 583.19 934.946 583.74 934.946 584.75 C 934.946 585.761 934.465 587.068 933.878 587.654 C 933.131 588.402 933.113 589.815 933.819 592.373 C 934.664 595.433 934.502 596.605 932.819 599.601 C 931.715 601.568 930.563 605.647 930.259 608.666 C 929.956 611.685 929.39 614.378 929.002 614.649 C 928.613 614.921 927.979 616.155 927.593 617.392 C 927.007 619.272 927.367 619.806 929.789 620.651 C 931.382 621.206 933.27 622.751 933.983 624.084 C 934.696 625.416 935.709 626.507 936.234 626.507 C 937.428 626.507 941.862 631.218 941.862 632.486 C 941.862 633.002 942.566 633.423 943.427 633.423 C 944.287 633.423 944.809 633.979 944.586 634.658 C 944.086 636.181 937.91 636.925 937.91 635.462 C 937.91 634.884 937.283 634.411 936.516 634.411 C 935.749 634.411 933.999 633.077 932.627 631.447 C 929.264 627.451 927.045 627.549 927.027 631.694 C 926.998 638.776 924.995 641.118 921.747 637.87 C 920.932 637.054 919.789 636.388 919.207 636.388 C 918.624 636.388 918.118 635.609 918.081 634.658 C 917.965 631.663 916.375 636.275 915.665 641.666 C 915.319 644.297 914.809 646.223 914.532 645.946 C 914.064 645.478 911.817 647.036 908.721 649.974 C 908.006 650.653 906.996 651.209 906.479 651.209 C 905.961 651.209 905.031 653.219 904.413 655.675 C 903.794 658.13 902.519 660.943 901.578 661.925 C 900.638 662.906 898.756 665.884 897.398 668.543 C 896.039 671.202 893.72 674.614 892.244 676.127 C 889.607 678.827 888.666 679.013 881.909 678.167 Z M 927.276 676.241 C 925.441 675.502 923.995 672.332 924.68 670.549 C 925.032 669.631 926.447 668.995 928.135 668.995 C 931.138 668.995 931.587 670.137 930.37 674.676 C 929.76 676.953 929.442 677.114 927.276 676.241 Z M 725.962 523.531 C 719.153 519.599 718.538 513.974 724.288 508.218 C 725.541 506.964 727.029 504.609 727.596 502.984 C 728.237 501.145 729.313 500.029 730.447 500.029 C 731.449 500.029 732.543 499.585 732.879 499.041 C 733.994 497.237 745.531 497.901 749.923 500.023 C 753.557 501.778 754.071 502.466 754.653 506.351 C 755.301 510.669 753.615 517.815 751.948 517.815 C 751.514 517.815 751.159 518.414 751.159 519.146 C 751.159 519.878 750.328 521.435 749.314 522.605 C 747.653 524.519 746.49 524.729 737.703 524.702 C 732.177 524.685 727.08 524.177 725.962 523.531 Z M 842.558 477.303 C 842.222 476.76 840.376 476.315 838.455 476.315 C 835.793 476.315 834.839 475.845 834.446 474.339 C 834.149 473.203 833.098 472.363 831.975 472.363 C 830.864 472.363 829.803 471.525 829.514 470.419 C 829.234 469.35 828.197 468.219 827.208 467.905 C 826.006 467.524 825.057 465.682 824.34 462.338 C 823.034 456.247 824.198 451.078 827.736 447.261 C 829.095 445.794 830.207 444.172 830.207 443.657 C 830.207 443.141 831.318 442.72 832.677 442.72 C 834.036 442.72 835.147 442.275 835.147 441.731 C 835.147 441.188 836.037 440.743 837.124 440.743 C 838.21 440.743 839.1 440.299 839.1 439.755 C 839.1 439.212 840.789 438.767 842.855 438.767 C 844.92 438.767 847.198 438.211 847.919 437.532 C 848.966 436.544 849.318 436.544 849.681 437.532 C 849.93 438.211 850.593 438.767 851.154 438.767 C 852.566 438.767 859.631 446.403 860.369 448.726 C 860.7 449.77 861.608 450.624 862.387 450.624 C 863.165 450.624 863.802 451.184 863.802 451.869 C 863.802 452.553 864.737 453.697 865.878 454.41 C 868.044 455.762 868.038 455.528 866.136 466.187 C 865.752 468.335 865.003 469.398 863.872 469.398 C 862.125 469.398 857.874 473.605 857.874 475.334 C 857.874 475.874 857.011 476.315 855.956 476.315 C 854.901 476.315 853.763 476.76 853.427 477.303 C 853.091 477.847 850.646 478.291 847.993 478.291 C 845.339 478.291 842.894 477.847 842.558 477.303 Z M 898.499 468.501 C 896.876 467.473 897.64 463.369 899.869 461.139 C 900.684 460.325 901.35 459.23 901.35 458.705 C 901.35 458.181 901.974 457.513 902.737 457.22 C 905.36 456.214 907.977 457.701 909.611 461.127 C 911.751 465.615 910.524 467.942 905.587 468.758 C 900.737 469.56 900.136 469.538 898.499 468.501 Z M 904.261 439.656 C 902.905 437.122 903.108 433.252 904.939 426.728 C 905.898 423.31 907.099 420.981 907.903 420.981 C 908.647 420.981 909.255 420.537 909.255 419.993 C 909.255 419.45 910.623 419.005 912.295 419.005 C 915.875 419.005 921.112 423.656 921.112 426.834 C 921.112 427.963 921.557 428.886 922.1 428.886 C 922.644 428.886 923.088 429.998 923.088 431.356 C 923.088 433.151 922.559 433.827 921.152 433.827 C 919.763 433.827 918.895 434.897 918.081 437.614 L 916.946 441.402 L 911.071 441.402 C 906.465 441.402 904.994 441.025 904.261 439.656 Z M 832.044 375.271 C 830.3 374.578 829.018 372.974 828.18 370.435 C 827.491 368.346 826.553 366.636 826.096 366.636 C 825.64 366.636 825.266 365.079 825.266 363.177 C 825.266 361.275 825.711 359.719 826.254 359.719 C 826.798 359.719 827.243 357.94 827.243 355.767 C 827.243 352.912 827.654 351.814 828.725 351.814 C 829.54 351.814 830.207 352.259 830.207 352.802 C 830.207 353.346 831.541 353.79 833.171 353.79 C 836.221 353.79 836.579 353.074 835.513 349.097 C 835.069 347.443 834.187 346.874 832.068 346.874 C 829.536 346.874 829.206 346.516 829.102 343.662 C 829.037 341.896 829.072 339.829 829.179 339.068 C 829.414 337.395 831.669 335.016 833.021 335.016 C 833.56 335.016 834.748 332.766 835.661 330.016 C 837.219 325.326 837.218 324.902 835.649 323.168 C 833.599 320.903 830.372 321.005 829.103 323.376 C 827.279 326.784 823.29 324.278 823.29 319.725 C 823.29 318.851 822.401 317.182 821.314 316.015 C 819.875 314.47 819.338 312.528 819.338 308.87 C 819.338 304.186 819.114 303.726 816.031 302.066 C 813.532 300.72 812.819 299.759 813.115 298.136 C 813.663 295.124 807.075 289.827 804.962 291.58 C 803.842 292.51 803.204 292.501 802.046 291.54 C 799.915 289.771 800.201 286.509 802.54 285.898 C 804.521 285.38 805.268 283.1 803.659 282.482 C 802.207 281.925 801.276 277.707 802.605 277.707 C 804.75 277.707 807.48 273.512 807.48 270.215 C 807.48 266.206 805.274 263.873 801.481 263.873 C 799.89 263.873 798.588 263.434 798.588 262.896 C 798.588 261.357 801.852 257.945 803.324 257.945 C 805.631 257.945 807.625 255.097 807.3 252.267 C 806.987 249.549 806.978 249.546 799.997 249.857 C 795.105 250.076 792.684 249.779 791.928 248.869 C 791.069 247.835 791.588 247.569 794.471 247.569 L 798.094 247.569 L 798.386 241.475 C 798.645 236.066 798.45 235.308 796.656 234.738 C 795.146 234.259 794.635 233.254 794.635 230.763 C 794.635 228.93 794.145 227.127 793.546 226.757 C 792.947 226.387 791.811 224.537 791.021 222.645 C 790.23 220.754 789.053 218.545 788.404 217.738 C 784.869 213.338 781.499 210.516 779.78 210.516 C 778.62 210.516 777.837 209.847 777.837 208.857 C 769.039 182.018 758.874 155.309 749.529 128.503 C 747.714 122.722 747.67 122.017 749.089 121.449 C 751.381 120.531 760.043 121.549 763.659 123.162 C 765.372 123.926 767.262 124.551 767.859 124.551 C 768.456 124.551 768.945 125.662 768.945 127.021 C 768.945 128.997 769.439 129.491 771.415 129.491 C 773.253 129.491 773.885 130.014 773.885 131.534 C 773.885 133.296 776.158 135.9 782.239 141.101 C 783.033 141.781 784.146 142.337 784.712 142.337 C 785.279 142.337 785.742 142.763 785.742 143.285 C 785.742 143.807 787.521 144.766 789.695 145.418 C 791.869 146.069 793.647 147.198 793.647 147.928 C 793.647 148.657 794.438 149.253 795.405 149.253 C 796.372 149.253 797.804 150.143 798.588 151.23 C 800.365 153.696 805.302 153.895 806.207 151.536 C 806.566 150.601 806.332 149.694 805.676 149.475 C 805.031 149.26 804.724 148.729 804.992 148.295 C 805.26 147.861 803.373 146.976 800.799 146.329 C 796.199 145.173 792.659 142.91 792.659 141.125 C 792.659 139.615 790.084 137.532 787.379 136.853 C 785.974 136.5 784.574 135.419 784.266 134.451 C 783.959 133.483 782.831 131.68 781.761 130.446 C 780.603 129.111 779.812 126.759 779.809 124.647 C 779.806 122.076 778.997 120.231 776.889 117.982 C 775.285 116.271 773.688 113.733 773.338 112.341 C 772.356 108.428 770.537 107.481 765.263 108.137 C 762.668 108.459 757.953 109.005 754.785 109.351 C 751.291 109.731 748.82 110.512 748.504 111.336 C 748.217 112.083 747.011 112.694 745.823 112.694 C 743.962 112.694 743.272 111.43 740.833 103.554 C 736.579 94.501 735.199 83.799 730.23 75.146 C 729.785 75.146 729.42 74.283 729.42 73.228 C 729.42 72.173 729.049 71.08 728.595 70.8 C 722.732 110.271 711.689 150.801 706.178 190.26 C 705.385 196.828 704.394 198.658 701.633 198.658 C 699.926 198.658 699.399 199.54 700.024 201.349 C 700.16 201.742 701.335 201.925 702.635 201.754 C 704.594 201.497 704.867 201.755 704.232 203.263 C 703.811 204.263 703.496 205.839 703.533 206.764 C 703.57 207.69 702.681 208.739 701.558 209.096 C 700.078 209.565 699.861 209.957 700.77 210.518 C 702.241 211.427 702.471 219.326 701.053 220.255 C 700.519 220.605 699.82 222.558 699.498 224.596 C 699.048 227.452 699.244 228.301 700.355 228.301 C 701.147 228.301 702.26 229.32 702.827 230.565 C 703.395 231.81 704.83 233.255 706.018 233.777 C 708.649 234.932 709.747 241.147 707.319 241.147 C 706.508 241.147 705.701 242.147 705.528 243.37 C 705.315 244.865 704.416 245.706 702.78 245.936 C 701.443 246.125 699.853 246.958 699.247 247.787 C 698.453 248.872 697.474 249.067 695.75 248.483 C 694.432 248.037 693.021 247.76 692.614 247.868 C 692.206 247.975 691.873 247.619 691.873 247.075 C 691.873 246.532 691.206 246.087 690.39 246.087 C 689.575 246.087 688.908 245.42 688.908 244.605 C 688.908 243.57 687.865 243.123 685.45 243.123 C 682.685 243.123 681.992 243.508 681.992 245.041 C 681.992 246.096 682.454 247.245 683.02 247.594 C 684.791 248.689 680.462 259.1 677.207 261.576 C 675.249 263.065 670.134 263.298 670.134 261.897 C 670.134 261.353 669.245 260.909 668.158 260.909 C 667.071 260.909 666.182 260.432 666.182 259.85 C 666.182 257.465 663.257 256.223 656.268 255.642 C 645.326 254.731 639.907 253.549 638.018 251.66 C 636.71 250.352 636.019 250.229 634.952 251.115 C 633.161 252.601 633.202 254.749 635.057 256.604 C 637.264 258.811 636.856 261.871 634.002 264.516 C 630.364 267.887 631.074 270.978 635.738 272.076 C 638.656 272.763 639.508 273.504 640.01 275.79 C 640.355 277.361 640.356 279.102 640.012 279.659 C 639.08 281.167 633.243 280.881 631.046 279.22 C 628.21 277.075 625.67 277.329 625.67 279.759 C 625.67 282.358 630.824 287.588 633.385 287.588 C 634.451 287.588 636.081 288.744 637.007 290.156 C 638.3 292.131 639.279 292.612 641.237 292.238 C 645.042 291.511 650.318 294.473 650.348 297.353 C 650.389 301.339 647.208 303.181 641.247 302.624 C 638.386 302.356 635.897 301.754 635.715 301.285 C 635.534 300.816 634.756 300.433 633.986 300.433 C 633.216 300.433 632.586 300.018 632.586 299.511 C 632.586 299.005 631.72 298.315 630.661 297.979 C 629.602 297.643 628.458 296.495 628.119 295.428 C 627.781 294.361 627.107 293.733 626.623 294.032 C 626.138 294.331 624.836 293.671 623.73 292.564 C 622.623 291.457 620.876 290.552 619.847 290.552 C 618.818 290.552 617.72 289.885 617.408 289.07 C 616.961 287.906 614.948 287.588 608.027 287.588 L 599.215 287.588 L 598.737 290.799 C 598.473 292.565 598.814 294.811 599.493 295.789 C 600.639 297.439 600.774 297.385 601.361 295.048 C 601.931 292.774 602.468 292.528 606.856 292.528 C 612.161 292.528 612.309 292.632 613.201 296.975 C 613.837 300.076 612.141 304.025 611.185 301.668 C 610.909 300.989 610.244 300.433 609.707 300.433 C 609.17 300.433 608.064 299.766 607.249 298.951 C 604.969 296.671 602.943 297.136 602.943 299.939 C 602.943 301.476 602.384 302.409 601.461 302.409 C 600.646 302.409 599.979 301.964 599.979 301.421 C 599.979 300.878 599.079 300.433 597.978 300.433 C 596.104 300.433 595.729 301.17 594.718 306.836 C 594.62 307.382 596.377 307.673 598.744 307.502 C 601.272 307.319 602.943 307.622 602.943 308.262 C 602.943 308.847 603.559 309.326 604.312 309.326 C 605.899 309.326 608.872 313.491 608.872 315.714 C 608.872 316.572 609.73 317.231 610.848 317.231 C 612.29 317.231 612.824 317.889 612.824 319.667 C 612.824 322.234 615.663 329.133 617.167 330.223 C 617.654 330.576 617.776 332.243 617.439 333.928 C 617.089 335.679 617.239 336.993 617.79 336.993 C 618.319 336.993 618.753 338.549 618.753 340.451 C 618.753 342.692 619.222 343.909 620.084 343.909 C 620.816 343.909 622.44 344.799 623.694 345.886 C 624.947 346.973 626.349 347.862 626.809 347.862 C 627.269 347.862 627.646 348.699 627.646 349.723 C 627.646 350.753 628.528 351.814 629.622 352.101 C 630.772 352.401 631.598 353.448 631.598 354.605 C 631.598 358.841 632.616 359.719 637.527 359.719 C 642.512 359.719 644.075 361.152 642.951 364.692 C 641.864 368.118 634.282 367.807 632.168 364.25 C 630.141 360.838 626.212 356.755 624.956 356.755 C 624.261 356.755 623.694 356.31 623.694 355.767 C 623.694 355.223 622.431 354.779 620.888 354.779 C 618.854 354.779 617.773 354.099 616.957 352.308 C 616.189 350.624 615.038 349.838 613.34 349.838 C 611.969 349.838 610.927 349.505 611.023 349.097 C 611.336 347.769 606.043 336.993 605.078 336.993 C 604.561 336.993 603.092 335.889 601.812 334.54 C 600.532 333.19 598.351 332.079 596.965 332.069 C 593.688 332.047 589.128 329.911 589.118 328.393 C 589.109 327.036 579.405 327.74 577.796 329.215 C 577.28 329.689 576.057 330.076 575.079 330.076 C 573.554 330.076 573.3 329.187 573.3 323.851 C 573.3 320.327 572.786 317.111 572.115 316.44 C 571.461 315.786 568.319 315.254 565.112 315.254 C 559.637 315.254 559.233 315.09 558.242 312.465 C 557.663 310.93 556.012 309.154 554.574 308.517 C 552.857 307.757 551.24 305.659 549.869 302.413 C 546.734 294.993 545.215 296.151 541.44 308.832 C 540.217 312.942 539.834 313.44 539.165 311.796 C 537.872 308.622 534.539 306.187 532.323 306.798 C 527.849 308.031 522.412 308.498 523.79 307.53 C 525.412 306.392 527.655 300.35 527.089 298.65 C 526.528 296.967 523.227 297.186 522.55 298.951 C 522.194 299.879 520.684 300.433 518.511 300.433 C 515.364 300.433 514.818 300.871 512.655 305.126 C 511.343 307.708 510.001 309.709 509.672 309.573 C 508.146 308.942 507.098 309.458 507.098 310.839 C 507.098 311.671 506.474 312.591 505.713 312.884 C 504.951 313.176 504.051 314.892 503.712 316.696 C 503.074 320.099 500.55 321.645 498.103 320.132 C 497.038 319.474 497.106 318.67 498.472 315.807 C 499.394 313.873 500.601 312.29 501.153 312.29 C 501.705 312.29 502.157 310.978 502.157 309.375 C 502.157 307.772 502.713 306.104 503.392 305.67 C 504.76 304.795 507.098 300.954 507.098 299.582 C 507.098 299.099 505.692 298.423 503.974 298.079 C 500.405 297.365 497.835 294.271 497.761 290.599 C 497.722 288.626 497.144 288.016 495.09 287.778 C 492.337 287.46 489.605 282.999 490.617 280.474 C 490.949 279.646 491.16 279.804 491.21 280.918 C 491.325 283.46 493.703 283.023 495.843 280.067 C 496.87 278.648 498.298 276.87 499.016 276.115 C 499.734 275.36 499.984 274.742 499.571 274.742 C 499.158 274.742 499.793 273.836 500.983 272.728 C 503.308 270.561 503.872 267.826 501.992 267.826 C 501.358 267.826 501.133 267.532 501.492 267.173 C 501.852 266.814 501.148 266.024 499.928 265.419 C 498.708 264.813 497.563 263.284 497.382 262.022 C 497.018 259.477 500.098 255.968 502.696 255.968 C 503.581 255.968 504.808 254.634 505.424 253.004 C 506.053 251.338 507.267 250.04 508.195 250.04 C 509.134 250.04 510.115 248.973 510.468 247.569 C 511.171 244.767 510.23 239.938 509.115 240.627 C 508.71 240.877 507.879 239.413 507.268 237.373 C 506.289 234.106 505.623 233.522 501.672 232.465 C 495.532 230.823 493.188 230.983 490.3 233.242 C 488.941 234.305 487.279 235.184 486.606 235.196 C 485.933 235.208 485.098 236.997 484.751 239.171 L 484.119 243.123 L 454.59 243.123 L 425.062 243.123 C 449.058 107.655 473.878 -29.452 497.787 -165.46 L 500.724 -185.22 L 512.632 -185.5 L 524.54 -185.77 L 525.704 -183.22 C 526.98 -180.42 528.836 -180.76 528.836 -183.79 C 528.836 -185.67 530.045 -185.71 583.181 -185.71 L 637.527 -185.71 L 637.496 -183.49 C 637.461 -181.02 635.389 -177.81 633.83 -177.81 C 633.275 -177.81 632.3 -175.74 631.662 -173.21 C 631.024 -170.67 629.86 -167.69 629.074 -166.56 C 626.931 -163.5 627.223 -160.02 629.622 -160.02 C 630.709 -160.02 631.598 -160.49 631.598 -161.06 C 631.598 -161.62 632.728 -163.22 634.108 -164.6 C 635.699 -166.19 636.412 -167.76 636.055 -168.88 C 635.702 -170 636.094 -170.89 637.108 -171.28 C 638.252 -171.72 638.549 -172.6 638.124 -174.29 C 637.794 -175.61 637.922 -177.71 638.409 -178.97 C 639.463 -181.7 642.836 -185.72 644.066 -185.71 C 645.055 -185.7 647.408 -181.04 647.408 -179.09 C 647.408 -178.25 648.789 -177.81 651.435 -177.81 C 655.213 -177.81 655.451 -177.64 655.283 -175.09 C 654.931 -169.75 655.32 -166.83 656.301 -167.43 C 656.844 -167.77 657.289 -167.6 657.289 -167.06 C 657.289 -166.53 656.437 -165.81 655.395 -165.48 C 654.354 -165.15 653.02 -163.5 652.431 -161.81 C 651.1 -157.99 651.029 -158.36 653.207 -157.79 C 654.873 -157.36 654.97 -156.75 654.2 -151.5 C 652.521 -140.07 652.317 -139.4 650.335 -138.77 C 648.575 -138.21 648.536 -138 649.928 -136.61 C 650.774 -135.77 651.331 -134.13 651.166 -132.97 C 650.904 -131.14 650.275 -130.9 646.176 -131.06 L 641.486 -131.24 L 643.212 -128.86 C 645.331 -125.95 646.476 -125.85 648.661 -128.4 C 650.773 -130.87 651.449 -130.87 654.097 -128.4 C 655.687 -126.92 657.584 -126.43 661.666 -126.43 C 666.981 -126.43 667.134 -126.35 667.955 -123.22 C 668.622 -120.67 669.246 -120.07 670.948 -120.31 C 672.131 -120.48 673.099 -120.15 673.099 -119.57 C 673.099 -119 674.433 -118.52 676.063 -118.52 C 678.039 -118.52 679.027 -118.03 679.027 -117.04 C 679.027 -115.98 680.113 -115.56 682.87 -115.56 C 687.227 -115.56 686.9 -114.76 688.906 -130.38 C 690.766 -144.87 690.85 -145.2 692.664 -145.2 C 694.358 -145.2 696.073 -148.27 697.224 -153.35 C 697.733 -155.6 698.368 -156.07 700.908 -156.07 C 703.816 -156.07 703.945 -155.91 703.361 -152.99 C 702.769 -150.03 702.851 -149.94 705.461 -150.61 C 710.971 -152.02 716.575 -152.33 716.575 -151.23 C 716.575 -150.53 719.387 -150.14 724.48 -150.14 C 730.848 -150.14 732.385 -150.43 732.385 -151.62 C 732.385 -152.44 732.82 -153.11 733.352 -153.11 C 733.883 -153.11 734.234 -155.04 734.131 -157.41 C 734.006 -160.29 734.482 -162.26 735.564 -163.34 C 737.32 -165.1 743.254 -165.59 743.254 -163.97 C 743.254 -163.43 743.921 -162.99 744.736 -162.99 C 745.551 -162.99 746.218 -162.39 746.218 -161.66 C 746.218 -159.64 749.879 -155.79 750.634 -157.01 C 750.987 -157.58 752.361 -158.05 753.687 -158.05 C 755.688 -158.05 756.099 -157.56 756.099 -155.19 C 756.099 -151.99 759.843 -146.86 760.692 -148.91 C 760.98 -149.6 762.919 -150.14 765.116 -150.14 C 767.69 -150.14 769.769 -150.83 771.195 -152.16 L 773.364 -154.18 L 770.448 -159.57 C 768.844 -162.54 767.151 -164.96 766.685 -164.96 C 765.29 -164.96 763.016 -167.68 763.016 -169.34 C 763.016 -170.19 763.74 -170.89 764.624 -170.89 C 767.178 -170.89 765.961 -180.4 763.156 -182.37 C 759.487 -184.94 760.807 -185.71 768.839 -185.71 C 775.32 -185.71 776.766 -185.42 777.394 -183.98 C 777.809 -183.03 778.06 -181.7 777.95 -181.02 C 777.837 -180.32 778.774 -179.78 780.106 -179.78 C 781.707 -179.78 782.869 -178.91 783.737 -177.07 C 784.56 -175.32 785.184 -174.82 785.493 -175.68 C 786.117 -177.42 783.781 -181.76 782.223 -181.76 C 781.208 -181.76 779.814 -183.81 779.814 -185.3 C 779.814 -186.43 792.928 -185.59 794.134 -184.38 C 794.897 -183.62 798.936 -182.76 803.578 -182.37 C 808.039 -182 812.492 -181.26 813.472 -180.74 C 814.453 -180.21 816.37 -179.78 817.732 -179.78 C 819.095 -179.78 820.484 -179.34 820.82 -178.8 C 821.156 -178.25 822.53 -177.81 823.873 -177.81 C 825.217 -177.81 826.572 -177.14 826.885 -176.33 C 827.198 -175.51 828.079 -174.84 828.844 -174.84 C 829.608 -174.84 831.006 -174.43 831.949 -173.92 C 832.893 -173.41 835.078 -172.43 836.805 -171.74 C 838.532 -171.04 839.714 -170.1 839.432 -169.64 C 839.15 -169.19 840.294 -168.29 841.974 -167.66 C 843.654 -167.03 845.028 -166.16 845.028 -165.74 C 845.028 -165.31 845.757 -164.96 846.646 -164.96 C 847.536 -164.96 849.594 -163.41 851.219 -161.5 C 852.843 -159.6 854.593 -158.05 855.106 -158.05 C 856.258 -158.05 858.862 -155.52 858.862 -154.4 C 858.862 -153.95 860.408 -152.25 862.299 -150.63 C 864.189 -149 865.745 -147.32 865.757 -146.89 C 865.779 -146.09 869.369 -140.75 871.305 -138.64 C 871.9 -137.99 872.966 -136.06 873.676 -134.35 C 875.073 -130.98 876.604 -131.86 876.633 -136.06 C 876.641 -137.28 877.092 -138.28 877.636 -138.28 C 878.179 -138.28 878.624 -138.93 878.624 -139.72 C 878.624 -140.51 879.735 -142.27 881.094 -143.63 C 882.453 -144.99 883.564 -146.56 883.564 -147.13 C 883.564 -147.7 884.872 -148.16 886.47 -148.16 C 888.069 -148.16 889.641 -148.59 889.964 -149.12 C 890.34 -149.72 891.45 -149.72 893.051 -149.12 C 894.425 -148.59 897.03 -148.16 898.839 -148.16 C 900.85 -148.16 902.348 -147.59 902.696 -146.68 C 903.008 -145.87 904.164 -145.2 905.264 -145.2 C 907.584 -145.2 912.219 -141.48 912.219 -139.62 C 912.219 -138.93 913.166 -137.85 914.323 -137.23 C 916.221 -136.21 916.377 -135.49 915.922 -129.83 C 915.609 -125.93 914.813 -122.95 913.819 -121.96 C 912.939 -121.08 912.219 -119.94 912.219 -119.44 C 912.219 -118.94 911.552 -118.52 910.737 -118.52 C 909.922 -118.52 909.255 -117.83 909.255 -116.97 C 909.255 -115.65 907.732 -115.46 898.782 -115.67 C 891.185 -115.84 888.171 -116.27 887.807 -117.22 C 887.531 -117.93 886.686 -118.52 885.929 -118.52 C 885.172 -118.52 884.552 -118.97 884.552 -119.51 C 884.552 -120.05 883.885 -120.5 883.07 -120.5 C 882.255 -120.5 881.588 -121.02 881.588 -121.65 C 881.588 -122.28 881.322 -122.54 880.996 -122.21 C 880.67 -121.89 881.337 -117.64 882.478 -112.78 C 883.619 -107.93 884.552 -102.78 884.552 -101.36 C 884.552 -99.93 884.997 -98.76 885.541 -98.76 C 886.157 -98.76 886.529 -92.996 886.529 -83.445 C 886.529 -75.021 886.145 -68.129 885.677 -68.129 C 885.208 -68.129 884.529 -65.572 884.167 -62.448 C 883.259 -54.601 878.631 -35.522 877.636 -35.522 C 877.187 -35.522 875.598 -32.298 874.104 -28.358 C 872.61 -24.418 871.102 -20.972 870.754 -20.7 C 870.406 -20.428 869.178 -18.65 868.025 -16.748 C 865.786 -13.053 866.36 -10.911 869.949 -9.565 C 872.951 -8.439 873.56 1.038 870.63 1.038 C 870.058 1.038 868.9 1.728 868.056 2.572 C 866.908 3.719 864.881 4.03 860.001 3.807 L 853.479 3.508 L 851.477 7.211 C 850.376 9.247 849.11 10.915 848.663 10.916 C 847.617 10.92 845.032 13.498 845.016 14.554 C 845.009 15 843.432 16.384 841.512 17.628 C 839.591 18.872 837.732 20.651 837.38 21.58 C 836.561 23.743 835.311 24.907 831.936 26.649 C 830.441 27.42 829.219 28.592 829.219 29.253 C 829.219 29.915 827.774 31.172 826.007 32.047 C 821.696 34.182 819.338 36.096 819.338 37.46 C 819.338 38.079 818.628 38.586 817.761 38.586 C 816.894 38.586 815.004 39.417 813.562 40.432 C 812.119 41.448 809.932 42.592 808.701 42.974 C 807.471 43.356 806.695 44.043 806.978 44.501 C 807.261 44.959 807.01 45.495 806.419 45.692 C 805.658 45.945 805.647 46.761 806.383 48.493 C 806.953 49.837 808.132 53.494 809.002 56.619 C 809.873 59.744 810.998 62.3 811.503 62.3 C 812.008 62.3 812.423 62.856 812.427 63.535 C 812.43 64.215 812.895 66.438 813.461 68.476 C 814.473 72.121 814.57 72.181 819.384 72.181 C 823.076 72.181 824.278 72.546 824.278 73.664 C 824.278 74.479 824.915 75.146 825.694 75.146 C 827.602 75.146 828.556 78.536 827.793 82.605 C 827.259 85.45 826.665 86.034 823.746 86.581 C 819.817 87.318 819.877 87.147 821.734 92.404 C 822.509 94.596 823.717 98.502 824.42 101.083 C 825.123 103.665 826.025 105.777 826.425 105.777 C 826.826 105.777 827.445 107.333 827.802 109.235 C 828.271 111.738 828.966 112.694 830.317 112.694 C 831.343 112.694 832.183 113.138 832.183 113.682 C 832.183 114.225 833.072 114.67 834.159 114.67 C 835.246 114.67 836.135 115.114 836.135 115.658 C 836.135 116.201 837.025 116.646 838.112 116.646 C 839.392 116.646 840.088 117.305 840.088 118.516 C 840.088 121.892 842.721 121.624 844.644 118.053 C 845.646 116.192 847.002 114.67 847.657 114.67 C 848.312 114.67 849.104 113.892 849.418 112.941 C 850.2 110.569 855.412 104.789 856.769 104.789 C 857.376 104.789 857.874 104.324 857.874 103.756 C 857.874 102.702 862.291 97.872 863.255 97.872 C 863.547 97.872 865.06 96.538 866.618 94.908 C 868.176 93.277 869.958 91.943 870.579 91.943 C 871.199 91.943 871.707 91.499 871.707 90.955 C 871.707 90.412 872.327 89.967 873.084 89.967 C 873.841 89.967 874.716 89.3 875.029 88.485 C 875.342 87.67 876.279 87.003 877.111 87.003 C 877.943 87.003 878.627 86.669 878.632 86.262 C 878.64 85.494 883.326 83.05 884.791 83.05 C 885.249 83.05 886.578 82.161 887.744 81.074 C 888.911 79.987 890.893 79.098 892.15 79.098 C 893.406 79.098 894.433 78.653 894.433 78.11 C 894.433 77.567 895.963 77.122 897.833 77.122 C 899.704 77.122 901.508 76.677 901.844 76.134 C 902.18 75.59 904.263 75.146 906.473 75.146 C 910.481 75.146 910.489 75.153 909.834 78.357 C 909.473 80.123 908.899 83.569 908.559 86.015 C 907.842 91.174 906.54 92.398 900.115 93.962 C 897.294 94.649 895.422 95.657 895.422 96.488 C 895.422 97.306 894.41 97.872 892.951 97.872 C 891.593 97.872 890.481 98.208 890.481 98.619 C 890.481 99.03 889.036 99.992 887.27 100.758 C 885.504 101.523 882.602 103.299 880.822 104.704 C 874.558 109.648 861.227 123.11 859.026 126.713 C 856.888 130.213 856.869 130.437 858.545 132.394 C 859.504 133.515 860.877 134.432 861.595 134.432 C 863.48 134.432 867.405 138.502 868.026 141.103 C 868.319 142.326 868.155 143.078 867.662 142.774 C 867.17 142.469 866.767 141.579 866.767 140.796 C 866.767 139.746 865.469 139.372 861.826 139.372 C 859.088 139.372 856.886 139.827 856.886 140.392 C 856.886 140.953 855.885 141.82 854.662 142.318 L 852.439 143.224 L 854.662 143.884 C 855.885 144.246 856.886 144.936 856.886 145.416 C 856.886 145.896 858.963 146.289 861.501 146.289 C 864.297 146.289 866.789 146.897 867.821 147.831 C 869.427 149.285 869.397 149.512 867.292 151.784 C 866.063 153.109 864.317 154.194 863.411 154.194 C 862.505 154.194 861.508 154.861 861.195 155.676 C 860.828 156.632 859.299 157.158 856.886 157.158 C 854.472 157.158 852.943 156.632 852.576 155.676 C 852.263 154.861 851.088 154.194 849.965 154.194 C 848.842 154.194 846.88 153.51 845.604 152.674 C 843.392 151.225 843.255 151.276 842.626 153.782 C 842.263 155.227 841.365 157.011 840.629 157.746 C 839.894 158.482 838.06 162.986 836.554 167.755 C 835.048 172.524 833.497 176.648 833.107 176.92 C 832.131 177.599 828.572 195.694 827.811 203.846 L 827.187 210.516 L 833.023 210.516 C 839.543 210.516 846.017 212.738 846.017 214.975 C 846.017 215.783 846.876 216.444 847.926 216.444 C 848.976 216.444 850.118 217.334 850.463 218.42 C 850.808 219.507 851.727 220.397 852.506 220.397 C 853.284 220.397 853.921 221.064 853.921 221.879 C 853.921 222.694 854.588 223.361 855.403 223.361 C 856.219 223.361 856.886 224.22 856.886 225.271 C 856.886 226.321 857.775 227.462 858.862 227.807 C 859.949 228.152 860.838 229.072 860.838 229.85 C 860.838 230.629 861.473 231.266 862.248 231.266 C 864.671 231.266 867.545 236.031 868.261 241.236 C 868.65 244.067 869.545 246.457 870.327 246.757 C 871.086 247.049 871.707 247.906 871.707 248.663 C 871.707 249.42 872.61 250.04 873.714 250.04 C 874.818 250.04 875.977 250.707 876.29 251.522 C 876.603 252.337 877.431 253.004 878.13 253.004 C 878.829 253.004 879.656 253.671 879.969 254.486 C 880.341 255.455 881.88 255.968 884.414 255.968 C 887.691 255.968 888.384 256.338 888.891 258.36 C 889.221 259.676 889.239 261.408 888.932 262.21 C 888.263 263.952 884.22 264.897 882.393 263.739 C 881.679 263.286 880.094 262.908 878.871 262.9 C 877.648 262.892 876.648 262.44 876.648 261.897 C 876.648 261.353 875.981 260.909 875.165 260.909 C 874.35 260.909 873.683 260.242 873.683 259.427 C 873.683 258.448 872.704 257.945 870.8 257.945 C 867.12 257.945 864.646 258.888 865.349 260.024 C 865.649 260.511 865.207 260.909 864.366 260.909 C 862.378 260.909 858.862 263.935 858.862 265.645 C 858.862 266.379 859.418 267.533 860.097 268.21 C 861.629 269.737 867.397 271.806 868.117 271.087 C 868.408 270.795 868.939 271.721 869.296 273.144 C 869.77 275.032 870.583 275.73 872.308 275.73 C 873.608 275.73 874.671 276.161 874.671 276.687 C 874.671 277.214 875.339 277.388 876.156 277.075 C 876.972 276.762 878.751 276.784 880.108 277.125 C 882.135 277.633 882.576 278.345 882.576 281.103 C 882.576 286.537 881.777 287.588 877.645 287.588 C 874.745 287.588 873.799 287.147 873.397 285.611 C 872.814 283.383 870.497 283.004 868.938 284.882 C 867.293 286.864 869.678 294.504 871.942 294.504 C 872.934 294.504 874.001 295.171 874.314 295.986 C 874.627 296.802 875.725 297.469 876.753 297.469 C 877.782 297.469 878.624 297.86 878.624 298.338 C 878.624 298.815 880.402 301.039 882.576 303.279 C 886.316 307.133 887.638 309.14 885.612 307.888 C 885.107 307.576 884.422 308.179 884.09 309.227 C 883.363 311.518 884.412 316.243 885.648 316.243 C 886.132 316.243 886.529 316.972 886.529 317.863 C 886.529 319.766 883.762 322.095 881.447 322.14 C 879.623 322.175 878.624 324.138 878.624 327.687 C 878.624 329.152 878.051 330.076 877.142 330.076 C 876.22 330.076 875.66 331.009 875.66 332.546 C 875.66 334.13 875.104 335.016 874.111 335.016 C 872.967 335.016 872.735 335.598 873.226 337.24 C 874.159 340.367 876.513 343.909 877.659 343.909 C 879.27 343.909 878.803 353.752 877.111 355.445 C 876.279 356.277 875.072 358.924 874.429 361.327 C 873.335 365.418 872.947 365.79 868.352 367.154 C 862.601 368.862 860.199 368.988 859.356 367.624 C 859.02 367.08 857.882 366.636 856.827 366.636 C 855.772 366.636 854.909 367.08 854.909 367.624 C 854.909 368.167 855.354 368.612 855.898 368.612 C 857.864 368.612 856.765 373.101 854.371 374.844 C 851.413 376.997 843.367 376.876 843.827 374.685 C 844.337 372.261 842.914 369.485 840.742 368.668 C 839.089 368.046 838.334 368.339 837.406 369.967 C 836.746 371.124 836.19 373.071 836.17 374.294 C 836.132 376.73 835.874 376.791 832.044 375.271 Z M 625.67 221.903 C 625.67 221.165 626.074 220.413 626.569 220.232 C 627.063 220.051 627.686 218.495 627.952 216.774 C 628.218 215.054 629.658 205.271 631.153 195.036 C 633.982 179.813 636.587 164.668 639.098 149.371 C 640.874 138.814 640.869 138.713 638.515 138.098 C 636.291 137.516 635.786 134.432 637.914 134.432 C 638.67 134.432 639.568 133.32 639.909 131.962 C 640.25 130.603 641.095 129.491 641.788 129.491 C 648.407 95.737 659.564 54.964 660.537 21.163 C 660.22 19.093 659.195 17.62 657.441 16.717 C 653.09 14.474 651.861 12.902 653.022 11.061 C 653.585 10.168 654.664 9.497 655.42 9.57 C 658.08 9.827 661.241 11.159 661.241 12.022 C 661.241 12.502 661.908 12.895 662.724 12.895 C 663.539 12.895 664.206 12.435 664.206 11.873 C 664.206 11.311 665.14 4.796 666.282 -2.606 C 668.173 -14.862 668.217 -16.142 666.776 -16.949 C 665.906 -17.436 665.194 -18.479 665.194 -19.267 C 665.194 -20.154 664.209 -20.7 662.608 -20.7 C 660.332 -20.7 660.084 -20.381 660.533 -18.033 C 661.202 -14.532 660.166 -12.154 655.885 -7.361 C 652.966 -4.094 652.186 -3.665 651.386 -4.891 C 650.853 -5.706 650.66 -7.151 650.955 -8.102 C 651.341 -9.34 650.948 -9.831 649.574 -9.831 C 648.232 -9.831 647.477 -8.94 647.062 -6.867 C 646.542 -4.267 646.054 -3.902 643.092 -3.902 C 638.089 -3.902 636.629 -9.445 640.701 -12.977 C 643.832 -15.693 642.034 -18.138 636.612 -18.537 C 631.819 -18.891 629.622 -17.513 629.622 -14.157 C 629.622 -12.727 629.042 -11.807 628.14 -11.807 C 627.325 -11.807 625.657 -10.807 624.435 -9.584 C 622.544 -7.694 622.252 -6.473 622.48 -1.432 C 622.784 5.261 620.706 24.752 619.688 24.752 C 619.323 24.752 618.496 29.443 617.851 35.175 C 617.206 40.907 616.431 46.243 616.128 47.032 C 615.666 48.237 611.282 48.469 588.757 48.482 C 574.006 48.49 561.418 48.828 560.782 49.232 C 560.147 49.636 559.48 51.509 559.3 53.394 C 559.074 55.758 558.285 57.161 556.756 57.92 C 555.536 58.524 554.832 59.312 555.191 59.671 C 555.55 60.03 554.801 60.324 553.526 60.324 C 548.806 60.324 544.731 62.595 543.034 66.172 C 542.123 68.091 540.779 70.261 540.047 70.992 C 539.315 71.724 538.717 73.164 538.717 74.193 C 538.717 75.222 537.879 76.513 536.854 77.061 C 535.83 77.609 534.71 79.181 534.365 80.554 C 533.903 82.395 533.087 83.05 531.256 83.05 C 526.566 83.73 517.373 147.056 516.034 152.591 C 515.613 152.169 514.029 161.482 510.415 185.62 L 509.778 189.873 L 518.408 189.683 L 527.038 189.493 L 526.435 186.912 C 524.669 179.351 524.624 176.958 526.238 176.338 C 527.123 175.999 527.848 174.911 527.848 173.921 C 527.848 171.392 530.515 169.015 533.353 169.015 C 534.78 169.015 535.753 168.44 535.753 167.596 C 535.753 166.717 536.975 166.058 538.964 165.867 C 541.474 165.625 542.499 164.861 543.657 162.367 C 545.703 157.964 548.598 158.025 548.598 162.472 C 548.598 165.929 550.706 168.673 552.507 167.56 C 553.074 167.209 553.538 165.874 553.538 164.591 C 553.538 160.361 554.562 159.134 558.091 159.134 C 561.263 159.134 561.443 159.32 561.443 162.593 C 561.443 165.008 560.996 166.051 559.961 166.051 C 559.146 166.051 558.479 166.718 558.479 167.533 C 558.479 168.348 558.064 169.015 557.556 169.015 C 557.049 169.015 556.835 170.127 557.081 171.486 C 557.444 173.487 557.13 173.956 555.428 173.956 C 553.918 173.956 553.496 174.396 553.927 175.519 C 554.257 176.378 554.526 177.49 554.526 177.989 C 554.526 178.488 556.114 178.896 558.055 178.896 C 562.345 178.896 564.347 180.721 565.091 185.309 C 565.622 188.58 565.872 188.777 569.477 188.777 C 571.58 188.777 573.3 188.333 573.3 187.789 C 573.3 187.246 572.856 186.801 572.312 186.801 C 571.769 186.801 571.324 186.134 571.324 185.319 C 571.324 184.504 570.657 183.837 569.842 183.837 C 569.027 183.837 568.36 183.366 568.36 182.79 C 568.36 182.215 567.915 182.019 567.372 182.355 C 566.784 182.718 566.384 181.542 566.384 179.449 C 566.384 177.119 566.844 175.932 567.746 175.932 C 568.495 175.932 569.661 174.598 570.336 172.968 C 571.484 170.197 574.289 168.795 574.289 170.992 C 574.289 171.535 575.602 171.98 577.208 171.98 C 579.762 171.98 580.209 172.412 580.776 175.438 C 581.133 177.34 581.82 178.896 582.303 178.896 C 582.786 178.896 583.181 180.008 583.181 181.367 C 583.181 182.725 582.737 183.837 582.193 183.837 C 581.65 183.837 581.205 184.474 581.205 185.252 C 581.205 186.031 580.291 186.958 579.175 187.313 C 578.058 187.667 577.315 188.475 577.525 189.108 C 578.018 190.599 593.062 191.276 593.062 189.807 C 593.062 189.241 594.841 188.777 597.015 188.777 C 600.572 188.777 600.967 189.024 600.967 191.248 C 600.967 192.606 601.364 193.718 601.848 193.718 C 602.333 193.718 603.008 192.606 603.349 191.248 C 603.801 189.45 604.631 188.777 606.402 188.777 C 608.157 188.777 609.003 188.106 609.44 186.364 C 609.809 184.894 610.879 183.831 612.176 183.646 C 613.85 183.408 614.372 182.561 614.61 179.695 C 614.856 176.738 615.468 175.803 617.847 174.755 C 619.957 173.825 621.063 172.421 621.782 169.756 C 622.635 166.592 623.187 166.051 625.555 166.051 C 629.51 166.051 632.268 169.316 630.774 172.231 C 629.223 175.256 627.397 178.051 625.917 179.666 C 625.237 180.407 624.682 182.034 624.682 183.28 C 624.682 186.271 621.083 190.754 618.681 190.754 C 616.684 190.754 616.381 191.537 617.377 194.131 C 617.81 195.26 619.387 195.716 623.058 195.772 C 625.853 195.815 627.584 196.074 626.905 196.349 C 626.226 196.623 625.67 197.921 625.67 199.235 C 625.67 200.548 626.226 201.63 626.905 201.638 C 627.728 201.648 627.646 201.972 626.658 202.611 C 625.34 203.462 625.34 203.574 626.658 203.614 C 627.826 203.649 627.774 203.872 626.411 204.666 C 625.46 205.22 624.682 206.541 624.682 207.6 C 624.682 208.66 624.237 209.528 623.694 209.528 C 622.618 209.528 622.289 222.615 623.337 223.663 C 624.239 224.565 625.67 223.486 625.67 221.903 Z M 521.481 156.938 C 520.635 155.73 519.943 153.567 519.943 152.131 C 519.943 149.102 523.359 144.313 525.52 144.313 C 527.235 144.313 529.824 146.648 529.824 148.195 C 529.824 148.777 530.269 149.253 530.812 149.253 C 531.355 149.253 531.8 150.365 531.8 151.724 C 531.8 153.082 531.355 154.194 530.812 154.194 C 530.269 154.194 529.824 154.861 529.824 155.676 C 529.824 156.491 529.157 157.158 528.342 157.158 C 527.527 157.158 526.86 157.603 526.86 158.146 C 526.86 160.001 523.023 159.14 521.481 156.938 Z M 568.017 155.628 C 565.209 152.901 564.407 151.349 564.407 148.641 C 564.407 145.229 566.189 142.337 568.289 142.337 C 568.872 142.337 569.348 141.897 569.348 141.36 C 569.348 139.047 572.889 136.408 575.99 136.408 C 577.772 136.408 579.229 135.963 579.229 135.42 C 579.229 134.876 578.793 134.432 578.26 134.432 C 576.697 134.432 576.068 130.138 577.195 127.173 C 578.137 124.696 578.633 124.466 582.438 124.741 L 586.64 125.045 L 586.938 129.676 C 587.184 133.488 586.885 134.496 585.246 135.373 C 583.145 136.497 583.42 139.372 585.628 139.372 C 586.314 139.372 587.151 141.04 587.488 143.078 C 588.376 148.453 588.258 152.218 587.2 152.218 C 586.694 152.218 585.968 153.197 585.588 154.395 C 584.404 158.126 582.573 159.134 576.981 159.134 C 572.186 159.134 571.251 158.769 568.017 155.628 Z M 557.576 152.377 C 556.513 150.391 557.199 146.289 558.594 146.289 C 559.074 146.289 559.467 146.956 559.467 147.771 C 559.467 148.586 559.912 149.253 560.455 149.253 C 560.999 149.253 561.443 150.365 561.443 151.724 C 561.443 154.652 559.013 155.063 557.576 152.377 Z M 625.408 150.639 C 623.56 148.79 629.419 142.337 632.947 142.337 C 636.388 142.337 636.367 144.835 632.896 148.458 C 630.451 151.01 626.833 152.064 625.408 150.639 Z M 558.064 137.739 C 557.071 135.153 559.355 129.491 561.391 129.491 C 563.749 129.491 564.946 136.011 562.952 138.004 C 561.104 139.853 558.827 139.73 558.064 137.739 Z M 620.729 209.916 C 620.729 209.159 619.84 208.539 618.753 208.539 C 616.893 208.539 616.066 210.464 617.368 211.765 C 618.329 212.727 620.729 211.406 620.729 209.916 Z M 694.822 210.269 C 694.813 209.046 694.48 207.558 694.081 206.962 C 692.468 204.556 684.956 204.308 684.956 206.661 C 684.956 208.819 689.425 212.492 692.051 212.492 C 694.286 212.492 694.834 212.052 694.822 210.269 Z M 683.754 194.137 C 682.508 191.403 680.511 191.001 679.627 193.305 C 678.823 195.399 678.806 195.332 680.614 197.14 C 683.003 199.529 685.237 197.393 683.754 194.137 Z M 667.911 191.119 C 669.219 190.768 670.134 189.757 670.134 188.662 C 670.134 187.639 670.579 186.801 671.122 186.801 C 671.666 186.801 672.111 185.519 672.111 183.952 C 672.111 180.419 669.523 179.515 664.443 181.274 C 660.112 182.774 658.764 184.668 659.614 188.058 C 660.397 191.178 663.467 192.31 667.911 191.119 Z M 502.573 182.718 C 502.748 182.518 503.105 180.02 503.367 177.167 C 503.776 172.708 503.601 171.98 502.118 171.98 C 501.169 171.98 500.136 171.313 499.824 170.498 C 499.129 168.687 497.217 168.53 497.217 170.284 C 497.217 170.982 495.883 172.342 494.252 173.305 C 491.928 174.678 491.288 175.747 491.288 178.261 C 491.288 182.788 492.947 184.092 498.006 183.542 C 500.343 183.288 502.398 182.917 502.573 182.718 Z M 534.32 67.004 C 535.445 58.689 535.691 51.51 534.869 51.002 C 533.896 50.4 531.816 56.226 531.806 59.583 C 531.803 60.534 531.355 61.312 530.812 61.312 C 529.362 61.312 529.593 68.968 531.059 69.505 C 532.486 70.028 534.076 68.809 534.32 67.004 Z M 528.077 47.479 C 528.756 46.392 530.245 45.503 531.386 45.503 C 534.496 45.503 536.613 38.613 534.826 34.304 C 534.112 32.583 533.324 29.825 533.075 28.176 C 532.516 24.477 535.962 13.904 538.12 12.696 C 538.992 12.208 539.705 11.386 539.705 10.87 C 539.705 8.846 536.542 10.099 533.347 13.389 C 531.5 15.291 529.322 16.848 528.506 16.848 C 527.691 16.848 526.868 17.317 526.677 17.89 C 526.486 18.463 525.448 19.059 524.371 19.214 C 523.24 19.377 522.28 20.398 522.097 21.631 C 521.903 22.944 521.071 23.764 519.932 23.764 C 518.915 23.764 517.809 24.209 517.473 24.752 C 517.137 25.296 515.866 25.741 514.648 25.741 C 513.43 25.741 511.9 26.274 511.248 26.926 C 509.488 28.686 509.713 40.073 511.544 41.903 C 512.359 42.718 513.026 43.862 513.026 44.444 C 513.026 45.026 513.915 45.503 515.002 45.503 C 516.089 45.503 516.979 45.947 516.979 46.491 C 516.979 47.034 517.842 47.479 518.896 47.479 C 519.951 47.479 521.089 47.923 521.425 48.467 C 522.485 50.182 526.788 49.543 528.077 47.479 Z M 598.003 35.622 C 598.003 35.078 598.821 34.633 599.821 34.633 C 601.609 34.633 603.932 30.978 603.932 28.164 C 603.932 27.375 604.356 26.729 604.875 26.729 C 606.247 26.729 607.222 20.376 606.467 16.354 L 605.818 12.895 L 599.409 12.895 C 594.624 12.895 592.856 13.271 592.432 14.377 C 592.119 15.193 591.321 15.86 590.659 15.86 C 586.353 15.86 582.387 26.781 585.545 29.94 C 586.419 30.813 587.134 32.227 587.134 33.081 C 587.134 33.959 587.967 34.633 589.052 34.633 C 590.107 34.633 591.244 35.078 591.58 35.622 C 591.916 36.165 593.499 36.61 595.097 36.61 C 596.695 36.61 598.003 36.165 598.003 35.622 Z M 545.222 6.967 C 547.36 6.967 546.888 4.302 544.646 3.716 C 542.191 3.074 541.337 4.334 542.266 7.223 C 542.669 8.475 543.162 8.901 543.4 8.202 C 543.632 7.522 544.452 6.967 545.222 6.967 Z M 756.099 7.955 C 756.099 7.411 757.185 6.967 758.511 6.967 C 759.838 6.967 761.198 6.522 761.534 5.979 C 761.87 5.435 763.452 4.99 765.05 4.99 C 766.649 4.99 767.956 4.546 767.956 4.002 C 767.956 3.459 768.819 3.014 769.874 3.014 C 770.929 3.014 772.067 2.57 772.403 2.026 C 772.739 1.483 773.877 1.038 774.931 1.038 C 775.986 1.038 776.849 0.48 776.849 -0.203 C 776.849 -0.885 778.294 -2.078 780.061 -2.854 C 781.827 -3.629 784.451 -5.516 785.892 -7.047 C 787.333 -8.578 788.809 -9.831 789.174 -9.831 C 789.538 -9.831 790.522 -10.518 791.361 -11.357 C 792.737 -12.732 792.714 -13.072 791.138 -14.815 C 790.176 -15.878 788.679 -16.748 787.812 -16.749 C 785.335 -16.751 780.899 -21.11 779.644 -24.774 C 779.016 -26.609 778.077 -28.392 777.557 -28.736 C 776.099 -29.702 776.547 -37.182 778.27 -40.636 C 780.198 -44.501 780.233 -46.391 778.376 -46.391 C 776.237 -46.391 775.436 -52.482 777.002 -56.833 C 778.648 -61.406 782.422 -63.189 790.454 -63.189 C 796.567 -63.189 801.531 -61.53 801.544 -59.483 C 801.548 -58.804 802.461 -58.248 803.573 -58.248 C 804.685 -58.248 806.671 -57.171 807.988 -55.854 C 810.271 -53.571 814.123 -51.716 814.922 -52.515 C 816.039 -53.632 817.519 -67.586 816.935 -71.484 C 816.393 -75.093 815.856 -76.034 814.337 -76.034 C 812.867 -76.034 812.421 -76.724 812.421 -78.998 C 812.421 -80.629 811.976 -81.963 811.433 -81.963 C 810.889 -81.963 810.445 -82.852 810.445 -83.939 C 810.445 -85.026 810.889 -85.915 811.433 -85.915 C 811.976 -85.915 812.421 -86.475 812.421 -87.159 C 812.421 -87.844 813.31 -88.959 814.397 -89.638 C 815.484 -90.317 816.38 -91.647 816.388 -92.593 C 816.416 -95.965 812.047 -107.65 810.759 -107.65 C 810.043 -107.65 809.457 -108.48 809.457 -109.48 C 809.457 -110.49 808.345 -112.52 806.986 -113.98 C 805.628 -115.45 804.516 -117.07 804.516 -117.58 C 804.516 -118.1 803.849 -118.52 803.034 -118.52 C 802.219 -118.52 801.552 -118.9 801.552 -119.36 C 801.552 -119.81 799.551 -121.22 797.105 -122.47 C 794.66 -123.73 792.659 -125.08 792.659 -125.47 C 792.659 -125.87 789.966 -127.19 786.674 -128.42 C 782.286 -130.06 778.403 -130.69 772.123 -130.77 L 763.556 -130.87 C 756.722 -84.612 746.061 -39.074 739.371 7.214 C 739.31 8.73 740.334 8.943 747.7 8.943 C 752.641 8.943 756.099 8.536 756.099 7.955 Z M 800.969 -93.326 C 800.136 -96.647 801.258 -100.74 803.004 -100.74 C 803.782 -100.74 804.85 -101.51 805.377 -102.45 C 806.244 -104 806.543 -103.9 808.463 -101.46 C 809.632 -99.98 811.223 -98.76 811.999 -98.76 C 812.832 -98.76 813.409 -97.782 813.409 -96.371 C 813.409 -91.592 812.54 -90.855 806.9 -90.855 C 802.06 -90.855 801.535 -91.074 800.969 -93.326 Z M 782.778 -99.56 C 779.74 -101.22 779.284 -101.98 779.029 -105.79 C 778.606 -112.1 780.228 -113.78 786.683 -113.73 C 789.583 -113.71 792.425 -113.22 792.999 -112.65 C 793.573 -112.08 795.013 -111.61 796.2 -111.61 C 799.178 -111.61 801.182 -104.85 798.497 -103.86 C 798.003 -103.68 797.599 -103.01 797.599 -102.37 C 797.599 -98.718 787.738 -96.847 782.778 -99.56 Z M 555.021 3.508 C 555.021 2.965 554.02 2.378 552.797 2.204 C 551.268 1.987 550.574 2.394 550.574 3.508 C 550.574 4.623 551.268 5.029 552.797 4.812 C 554.02 4.638 555.021 4.052 555.021 3.508 Z M 614.822 -5.904 C 615.777 -7.004 617.106 -9.227 617.775 -10.844 C 618.445 -12.461 619.495 -13.787 620.108 -13.791 C 621.148 -13.798 623.694 -18.141 623.694 -19.909 C 623.694 -20.344 622.085 -20.7 620.12 -20.7 C 617.033 -20.7 616.617 -20.969 617.063 -22.676 C 617.372 -23.859 617.093 -24.653 616.368 -24.653 C 614.392 -24.653 610.848 -29.415 610.848 -32.071 C 610.848 -33.425 611.204 -34.534 611.638 -34.534 C 612.072 -34.534 612.99 -36.09 613.678 -37.992 C 614.366 -39.894 615.567 -41.45 616.347 -41.45 C 617.127 -41.45 617.765 -41.895 617.765 -42.438 C 617.765 -42.982 618.829 -43.427 620.129 -43.427 C 621.43 -43.427 622.75 -44.094 623.063 -44.909 C 623.376 -45.724 624.535 -46.391 625.639 -46.391 C 627.322 -46.391 627.646 -47.029 627.646 -50.343 C 627.646 -52.517 627.201 -54.296 626.658 -54.296 C 626.114 -54.296 625.67 -55.185 625.67 -56.272 C 625.67 -57.589 625.011 -58.248 623.694 -58.248 C 622.607 -58.248 621.717 -58.893 621.717 -59.681 C 621.717 -60.469 621.079 -61.471 620.299 -61.908 C 619.518 -62.345 618.649 -63.978 618.366 -65.537 C 617.724 -69.077 617.592 -69.201 613.616 -70.008 C 611.007 -70.537 610.292 -71.207 610.042 -73.352 C 609.87 -74.827 609.367 -76.034 608.924 -76.034 C 608.481 -76.034 607.61 -78.054 606.988 -80.523 C 606.366 -82.992 605.424 -84.745 604.895 -84.417 C 604.365 -84.09 603.932 -84.293 603.932 -84.869 C 603.932 -85.444 603.354 -85.915 602.648 -85.915 C 599.876 -85.915 597.578 -98.758 600.073 -100.3 C 601.183 -100.99 605.756 -99.05 607.218 -97.28 C 607.748 -96.637 608.21 -96.724 608.536 -97.525 C 608.811 -98.204 609.889 -98.76 610.931 -98.76 C 612.292 -98.76 612.824 -99.45 612.824 -101.23 C 612.824 -102.59 612.38 -103.7 611.836 -103.7 C 610.32 -103.7 610.664 -110.57 612.26 -112.17 C 614.363 -114.27 615.674 -113.89 616.41 -110.96 C 616.997 -108.62 617.201 -108.51 618.267 -109.97 C 618.926 -110.87 619.874 -111.61 620.374 -111.61 C 620.874 -111.61 622.487 -113.94 623.957 -116.79 C 625.428 -119.65 626.637 -121.56 626.645 -121.05 C 626.652 -120.54 627.353 -120.98 628.202 -122.04 C 629.297 -123.4 629.896 -123.6 630.261 -122.72 C 630.852 -121.3 634.41 -121.11 636.426 -122.38 C 637.296 -122.94 637.569 -124.1 637.175 -125.58 C 635.709 -131.1 637.326 -130.85 600.534 -131.14 L 566.431 -131.41 L 565.951 -129.16 C 565.688 -127.93 564.489 -120.7 563.288 -113.09 C 562.087 -105.48 560.819 -99.03 560.469 -98.76 C 559.883 -98.305 558.958 -92.884 554.821 -65.659 C 553.995 -60.224 553.011 -55.556 552.634 -55.284 C 552.257 -55.012 550.668 -46.341 549.102 -36.016 C 547.537 -25.69 545.959 -17.02 545.596 -16.748 C 544.663 -16.048 543.459 -6.01 544.171 -4.858 C 544.533 -4.272 557.986 -3.902 578.924 -3.902 C 611.998 -3.902 613.142 -3.966 614.822 -5.904 Z M 595.039 -109.21 C 595.039 -110.06 594.372 -111.43 593.556 -112.24 C 591.38 -114.42 591.744 -117.29 594.551 -120.1 C 596.663 -122.21 597.779 -122.53 602.131 -122.28 C 606.796 -122.01 607.318 -121.73 608.202 -119.07 C 608.891 -116.99 608.843 -116.04 608.032 -115.77 C 607.407 -115.56 606.896 -114.75 606.896 -113.96 C 606.896 -113.18 606.246 -112.28 605.451 -111.98 C 604.657 -111.67 603.738 -110.58 603.409 -109.54 C 602.62 -107.05 595.039 -106.75 595.039 -109.21 Z M 643.27 -107.91 C 643.471 -108.96 642.991 -109.63 642.046 -109.63 C 641.191 -109.63 640.491 -109.44 640.491 -109.22 C 640.491 -108.99 640.204 -108.05 639.853 -107.14 C 639.373 -105.89 639.676 -105.56 641.077 -105.83 C 642.101 -106.03 643.088 -106.97 643.27 -107.91 Z M 665.688 -106.67 C 666.832 -108.52 665.186 -109.64 663.172 -108.38 C 662.11 -107.72 661.241 -106.84 661.241 -106.43 C 661.241 -105.32 664.978 -105.52 665.688 -106.67 Z M 691.873 -126.05 C 691.873 -127.44 691.443 -128.25 690.884 -127.91 C 690.341 -127.57 689.896 -126.19 689.896 -124.83 C 689.896 -123.43 690.326 -122.62 690.884 -122.97 C 691.428 -123.31 691.873 -124.69 691.873 -126.05 Z M 619 -144.6 C 619.951 -145.32 620.729 -146.37 620.729 -146.92 C 620.729 -147.47 621.396 -148.48 622.211 -149.15 C 623.814 -150.48 624.276 -156.07 622.784 -156.07 C 622.284 -156.07 621.581 -154.74 621.223 -153.11 C 620.792 -151.14 619.968 -150.14 618.78 -150.14 C 616.894 -150.14 615.789 -148.29 615.789 -145.12 C 615.789 -142.91 616.602 -142.78 619 -144.6 Z M 650.372 -154.5 C 650.372 -156.39 649.968 -156.77 648.396 -156.36 C 647.302 -156.07 646.42 -155.01 646.42 -153.98 C 646.42 -152.78 647.119 -152.12 648.396 -152.12 C 649.825 -152.12 650.372 -152.78 650.372 -154.5 Z M 645.432 -159.53 C 645.432 -160.34 644.987 -161.01 644.444 -161.01 C 643.9 -161.01 643.456 -160.34 643.456 -159.53 C 643.456 -158.71 643.9 -158.05 644.444 -158.05 C 644.987 -158.05 645.432 -158.71 645.432 -159.53 Z M 622.992 -164.06 C 623.106 -165.37 622.755 -166.67 622.211 -166.94 C 621.657 -167.22 621.086 -165.7 620.91 -163.48 C 620.682 -160.6 620.894 -159.82 621.691 -160.6 C 622.292 -161.2 622.878 -162.75 622.992 -164.06 Z M 795.623 -166.94 C 795.623 -168.04 794.965 -168.92 794.141 -168.92 C 792.637 -168.92 792.114 -166.82 793.318 -165.62 C 794.57 -164.37 795.623 -164.97 795.623 -166.94 Z M 325.166 366.633 C 323.197 365.593 321.338 363.792 321.035 362.632 C 320.476 360.495 323.149 353.859 324.587 353.815 C 325.017 353.801 326.324 352.901 327.491 351.814 C 329.74 349.719 338.132 348.94 338.132 350.826 C 338.132 351.37 338.751 351.814 339.507 351.814 C 341.207 351.814 342.4 356.177 341.489 359.062 C 340.213 363.107 333.487 368.686 330.029 368.568 C 329.323 368.544 327.134 367.673 325.166 366.633 Z M 605.167 351.783 C 603.853 351.255 602.943 350.043 602.943 348.819 C 602.943 347.078 603.455 346.798 606.155 347.058 C 608.831 347.316 609.418 347.821 609.679 350.085 C 610.013 352.992 609.063 353.35 605.167 351.783 Z M 246.456 331.056 C 245.217 328.887 243.826 327.112 243.365 327.112 C 241.593 327.112 240.188 321.632 241.247 318.848 C 242.089 316.632 241.844 315.304 239.873 311.415 C 237.766 307.256 237.54 305.79 238.019 299.357 C 238.569 291.956 237.147 283.635 235.331 283.635 C 234.809 283.635 234.381 282.399 234.381 280.889 C 234.381 279.294 233.569 277.557 232.442 276.745 C 231.375 275.976 230.228 274.099 229.893 272.574 C 229.558 271.049 228.903 269.802 228.437 269.802 C 227.971 269.802 227.451 268.357 227.28 266.59 C 226.973 263.401 226.934 263.379 221.622 263.379 C 218.223 263.379 216.122 262.929 215.858 262.144 C 215.63 261.465 214.813 260.909 214.043 260.909 C 213.273 260.909 212.643 260.388 212.643 259.752 C 212.643 259.115 211.92 257.795 211.036 256.818 C 209.673 255.312 209.598 254.37 210.542 250.621 C 212.594 242.473 214.809 243.123 184.976 243.123 C 166.664 243.123 158.298 243.455 158.298 244.182 C 158.298 246.602 155.289 248.152 151.022 247.931 C 145.426 247.642 144.215 246.668 141.966 240.653 C 140.95 237.935 139.829 235.49 139.475 235.218 C 138.029 234.109 136.559 230.231 136.559 227.526 C 136.559 223.383 138.497 218.42 140.114 218.42 C 140.876 218.42 141.5 217.976 141.5 217.432 C 141.5 216.889 142.342 216.444 143.37 216.444 C 144.399 216.444 145.473 215.84 145.756 215.101 C 146.043 214.353 148.493 213.462 151.278 213.093 L 156.284 212.429 L 155.658 206.285 C 155.314 202.905 154.737 199.918 154.377 199.647 C 154.017 199.375 152.462 189.148 150.922 176.92 C 149.381 164.692 147.835 154.466 147.486 154.194 C 147.137 153.922 145.837 145.474 144.598 135.42 C 141.438 109.785 140.371 102.813 139.61 102.813 C 139.246 102.813 137.666 105.369 136.099 108.494 L 60.164 243.123 L -35.619 243.123 L -131.4 243.123 L -55.885 -185.71 L 59.605 -185.71 L 175.095 -185.71 L 175.095 -183.3 C 175.095 -181.97 175.466 -180.66 175.918 -180.38 C 176.371 -180.1 177.314 -174.73 178.014 -168.45 C 179.15 -158.26 180.683 -153.56 181.789 -156.88 C 182.298 -158.41 186.429 -158.37 189.077 -156.81 C 194.357 -153.7 197.822 -148.91 197.822 -144.71 C 197.822 -143.22 198.244 -142.38 198.821 -142.74 C 199.377 -143.08 200.09 -142.01 200.427 -140.33 C 200.76 -138.66 201.375 -137.3 201.792 -137.3 C 203.791 -137.3 203.698 -133.46 201.594 -129.16 C 199.98 -125.86 198.706 -124.48 197.278 -124.47 C 196.164 -124.46 194.758 -123.96 194.153 -123.35 C 193.548 -122.75 191.235 -122.42 189.014 -122.64 C 184.147 -123.1 184.285 -124.33 186.936 -104.19 C 188.01 -96.043 188.897 -88.595 188.909 -87.644 C 188.953 -83.824 191.584 -86.369 194.809 -93.353 C 196.684 -97.414 198.491 -100.74 198.824 -100.74 C 199.157 -100.74 200.04 -102.29 200.786 -104.19 C 201.532 -106.1 202.505 -107.65 202.947 -107.65 C 203.389 -107.65 203.75 -108.47 203.75 -109.48 C 203.75 -110.48 204.684 -112.37 205.824 -113.68 C 206.965 -114.98 209.024 -118.28 210.4 -120.99 C 211.777 -123.71 213.245 -126.16 213.665 -126.43 C 214.084 -126.7 215.557 -129.48 216.939 -132.6 C 218.321 -135.73 219.92 -138.28 220.494 -138.28 C 221.067 -138.28 221.533 -139.06 221.529 -140.01 C 221.523 -141.76 215.99 -146.19 213.817 -146.19 C 211.556 -146.19 212.676 -149.67 215.559 -151.6 C 217.159 -152.67 218.701 -154.45 218.986 -155.55 C 219.665 -158.18 223.856 -160.02 229.144 -160.02 C 232.168 -160.02 233.393 -160.43 233.393 -161.43 C 233.393 -162.21 234.076 -163.53 234.911 -164.36 C 235.746 -165.2 237.837 -168.9 239.559 -172.59 C 241.281 -176.27 243.489 -180.15 244.464 -181.21 C 245.44 -182.26 246.239 -183.62 246.239 -184.22 C 246.239 -185.39 251.692 -187.69 254.461 -187.69 C 255.373 -187.69 256.12 -188.13 256.12 -188.68 C 256.12 -189.22 256.787 -189.67 257.602 -189.67 C 258.613 -189.67 259.088 -190.69 259.097 -192.88 C 259.117 -197.57 260.113 -200.53 261.669 -200.53 C 263.235 -200.53 263.536 -204.06 262.048 -204.98 C 259.038 -206.84 262.853 -217.31 266.544 -217.33 C 267.658 -217.33 269.114 -217.88 269.78 -218.54 C 270.735 -219.5 271.399 -219.5 272.929 -218.54 C 273.995 -217.88 275.54 -217.33 276.362 -217.33 C 277.185 -217.33 277.858 -216.89 277.858 -216.34 C 277.858 -214.6 281.327 -215.29 282.798 -217.33 C 283.582 -218.42 284.792 -219.31 285.487 -219.31 C 286.182 -219.31 286.751 -219.98 286.751 -220.79 C 286.751 -221.61 287.629 -222.27 288.727 -222.27 C 289.814 -222.27 290.703 -222.68 290.703 -223.18 C 290.703 -223.68 293.593 -224.4 297.126 -224.78 C 300.658 -225.16 303.549 -225.86 303.549 -226.34 C 303.549 -226.82 310.885 -227.21 319.852 -227.21 C 334.186 -227.21 336.156 -227.02 336.156 -225.62 C 336.156 -224.35 336.824 -224.16 339.477 -224.65 C 341.839 -225.09 343.159 -224.84 344.045 -223.77 C 344.73 -222.95 345.903 -222.27 346.652 -222.27 C 347.401 -222.27 348.013 -221.61 348.013 -220.8 C 348.013 -219.99 349.578 -218.32 351.491 -217.09 C 353.404 -215.87 355.231 -213.86 355.551 -212.64 C 355.871 -211.42 356.529 -210.42 357.013 -210.42 C 357.498 -210.42 357.894 -209.75 357.894 -208.93 C 357.894 -208.12 358.748 -207.45 359.792 -207.45 C 361.112 -207.45 361.895 -206.52 362.364 -204.38 C 362.736 -202.69 363.759 -200.47 364.639 -199.44 C 366.454 -197.32 369.751 -196.93 369.751 -198.83 C 369.751 -199.53 370.641 -200.74 371.728 -201.52 C 374.092 -203.23 374.19 -204.14 372.222 -206.11 C 370.522 -207.81 370.281 -209.43 371.728 -209.43 C 372.271 -209.43 372.716 -210.09 372.716 -210.91 C 372.716 -212.75 379.631 -212.99 381.411 -211.21 C 382.333 -210.28 382.597 -210.28 382.597 -211.21 C 382.597 -213.05 386.24 -212.6 386.971 -210.66 C 389.203 -204.75 392.735 -202.42 394.097 -205.97 C 394.445 -206.88 395.943 -207.45 397.96 -207.45 C 399.772 -207.45 401.529 -207.9 401.865 -208.44 C 402.201 -208.98 403.338 -209.43 404.393 -209.43 C 405.448 -209.43 406.311 -210.09 406.311 -210.91 C 406.311 -211.72 405.964 -212.39 405.54 -212.39 C 405.115 -212.39 404.209 -213.62 403.525 -215.11 C 400.882 -220.88 399.856 -222.27 398.239 -222.27 C 396.293 -222.27 394.587 -226.44 396.299 -227 C 396.915 -227.21 397.418 -227.98 397.418 -228.71 C 397.418 -229.44 398.147 -230.18 399.039 -230.35 C 400.003 -230.54 400.783 -231.84 400.966 -233.56 C 401.527 -238.85 403.396 -242.03 405.937 -242.03 C 407.23 -242.03 408.287 -241.48 408.287 -240.79 C 408.287 -240.11 409.67 -238.94 411.36 -238.19 C 413.971 -237.04 414.562 -237.04 415.297 -238.2 C 416.639 -240.32 416.362 -241.05 414.216 -241.05 C 412.899 -241.05 412.24 -241.71 412.24 -243.02 C 412.24 -244.12 411.581 -245 410.758 -245 C 409.939 -245 409.275 -245.88 409.275 -246.96 C 409.275 -248.98 412.147 -256.97 413.187 -257.85 C 413.511 -258.12 414.25 -259.44 414.828 -260.79 L 415.88 -263.24 L 417.151 -260.79 C 418.636 -257.93 423.059 -253.98 424.838 -253.93 C 426.145 -253.89 426.475 -256.64 425.476 -259.24 C 425.147 -260.1 424.48 -260.55 423.993 -260.25 C 423.507 -259.95 423.109 -260.18 423.109 -260.75 C 423.109 -261.33 422.553 -261.81 421.874 -261.82 C 421.194 -261.83 419.602 -262.64 418.335 -263.61 C 416.036 -265.38 416.034 -265.4 417.664 -271 C 418.594 -274.2 419.863 -276.62 420.612 -276.62 C 421.336 -276.62 422.392 -277.95 422.961 -279.58 C 423.529 -281.21 424.462 -282.55 425.034 -282.55 C 425.605 -282.55 426.073 -283.69 426.073 -285.08 C 426.073 -286.51 426.501 -287.34 427.061 -286.99 C 427.624 -286.65 428.049 -287.5 428.049 -288.98 C 428.049 -291.11 428.451 -291.52 430.273 -291.26 C 431.495 -291.09 432.935 -289.95 433.471 -288.72 C 434.008 -287.5 434.848 -286.5 435.339 -286.5 C 437.077 -286.5 438.856 -282.99 438.849 -279.58 C 438.839 -274.52 435.527 -253.66 434.842 -254.35 C 434.52 -254.67 433.959 -252.36 433.595 -249.22 C 433.232 -246.09 432.008 -237.68 430.876 -230.55 C 429.066 -219.13 428.607 -217.63 427.063 -218.03 C 424.887 -218.6 424.024 -217.33 424.736 -214.61 C 425.068 -213.34 425.819 -212.74 426.665 -213.06 C 427.582 -213.41 428.049 -212.89 428.049 -211.51 C 428.049 -210.37 427.69 -209.43 427.25 -209.43 C 426.811 -209.43 425.9 -205.31 425.227 -200.29 C 424.554 -195.26 423.766 -189.93 423.477 -188.43 L 422.952 -185.71 L 456.626 -185.71 C 482.903 -185.71 490.301 -185.44 490.307 -184.48 C 490.324 -181.41 486.995 -160.46 486.421 -160.02 C 486.067 -159.75 484.989 -153.97 484.025 -147.18 C 483.06 -140.38 482.056 -133.94 481.794 -132.85 C 481.327 -130.92 480.576 -130.88 447.972 -131.06 C 429.632 -131.16 414.171 -130.94 413.615 -130.56 C 406.509 -94.963 400.015 -59.461 394.397 -23.665 C 391.032 -2.633 391.082 -4.455 393.823 -2.988 C 396.49 -1.56 397.52 0.929 396.716 4.002 C 396.083 6.424 394.705 6.512 392.248 4.289 C 390.833 3.008 390.199 2.893 389.63 3.814 C 389.216 4.483 387.858 12.024 386.61 20.573 C 371.948 93.576 362.317 168.564 347.396 241.394 C 346.927 243.001 344.256 243.123 309.411 243.123 C 273.131 243.123 271.929 243.062 271.929 241.229 C 271.929 240.188 272.304 239.187 272.763 239.006 C 277.619 215.772 282.368 192.254 283.416 168.521 L 283.806 153.7 L 286.892 151.048 C 288.965 149.266 289.771 147.86 289.348 146.758 C 289.003 145.857 289.36 142.604 290.142 139.529 C 306.296 65.059 313.73 -12.056 331.317 -85.915 C 333.035 -85.915 332.18 -89.742 330.331 -90.329 C 329.159 -90.701 328.212 -92.235 327.8 -94.43 C 327.314 -97.024 326.751 -97.787 325.64 -97.361 C 324.813 -97.044 323.951 -96.784 323.724 -96.784 C 323.497 -96.784 323.311 -96.091 323.311 -95.244 C 323.311 -94.396 323.755 -93.978 324.299 -94.314 C 324.842 -94.65 325.287 -94.009 325.287 -92.89 C 325.287 -91.74 324.642 -90.855 323.805 -90.855 C 322.989 -90.855 322.323 -90.411 322.323 -89.867 C 322.323 -89.324 321.878 -88.879 321.334 -88.879 C 320.791 -88.879 320.346 -89.769 320.346 -90.855 C 320.346 -92.305 319.688 -92.832 317.876 -92.832 C 316.517 -92.832 315.376 -92.498 315.339 -92.091 C 315.302 -91.683 314.981 -88.459 314.626 -84.927 C 314.27 -81.394 314.037 -73.722 314.107 -67.878 C 314.233 -57.432 314.195 -57.242 311.858 -56.655 C 306.737 -55.37 305.113 -58.878 307.569 -65.923 C 308.42 -68.366 308.287 -69.59 306.88 -72.246 C 305.92 -74.058 305.111 -76.157 305.083 -76.911 C 304.993 -79.277 301.96 -80.55 300.098 -79.004 C 298.88 -77.994 298.62 -76.772 299.09 -74.269 C 299.552 -71.804 299.268 -70.392 298.034 -69.029 C 296.636 -67.484 296.441 -65.887 296.906 -59.751 C 297.521 -51.615 296.329 -45.403 294.153 -45.403 C 292.414 -45.403 290.387 -38.586 290.285 -32.394 C 290.243 -29.858 289.876 -27.45 289.468 -27.042 C 289.061 -26.633 288.727 -24.456 288.727 -22.203 C 288.727 -18.758 288.234 -17.743 285.627 -15.816 C 282.848 -13.761 282.435 -13.691 281.626 -15.136 C 281.13 -16.023 280.024 -16.748 279.167 -16.748 C 277.951 -16.748 277.746 -17.423 278.228 -19.836 C 278.568 -21.534 278.846 -23.757 278.846 -24.776 C 278.846 -25.795 279.513 -26.629 280.328 -26.629 C 281.357 -26.629 281.81 -27.664 281.81 -30.017 C 281.81 -31.88 282.477 -34.071 283.292 -34.887 C 284.252 -35.846 284.775 -38.293 284.775 -41.827 C 284.775 -46.864 286.198 -52.076 287.919 -53.337 C 288.311 -53.624 288.758 -58.555 288.911 -64.293 C 289.142 -72.953 288.91 -75.004 287.546 -76.368 C 286.643 -77.271 285.427 -78.01 284.845 -78.01 C 283.564 -78.01 283.56 -78.646 284.798 -87.207 C 286.018 -95.644 285.108 -97.772 280.277 -97.772 C 277.327 -97.772 276.606 -97.286 275.209 -94.356 C 274.313 -92.477 273.283 -91.124 272.92 -91.348 C 272.558 -91.572 271.247 -88.663 270.008 -84.883 C 268.768 -81.103 267.36 -78.01 266.878 -78.01 C 266.395 -78.01 266.001 -77.325 266.001 -76.487 C 266.001 -75.649 265.157 -74.057 264.125 -72.95 C 263.093 -71.842 261.964 -69.036 261.616 -66.713 C 261.211 -64.011 260.107 -61.728 258.551 -60.375 C 257.214 -59.212 256.12 -57.236 256.12 -55.982 C 256.12 -54.728 255.647 -53.23 255.069 -52.652 C 254.492 -52.075 253.979 -50.207 253.931 -48.502 C 253.882 -46.798 253.44 -45.403 252.947 -45.403 C 252.454 -45.403 252.325 -44.958 252.661 -44.415 C 253.017 -43.839 252.024 -43.427 250.284 -43.427 C 248.318 -43.427 246.938 -44.095 246.25 -45.382 C 245.225 -47.296 245.832 -52.318 247.087 -52.321 C 247.436 -52.321 248.962 -53.389 250.479 -54.694 C 252.996 -56.858 257.108 -66.046 257.108 -69.504 C 257.108 -70.288 257.546 -71.077 258.081 -71.258 C 258.616 -71.439 259.467 -73.798 259.97 -76.499 C 260.474 -79.2 261.37 -81.572 261.961 -81.769 C 262.553 -81.966 263.036 -82.737 263.036 -83.482 C 263.036 -84.227 264.148 -85.949 265.507 -87.307 C 268.646 -90.446 268.607 -90.855 265.171 -90.855 C 263.137 -90.855 262.056 -90.176 261.24 -88.385 C 260.621 -87.027 259.547 -85.915 258.852 -85.915 C 258.158 -85.915 257 -84.581 256.278 -82.951 C 254.767 -79.538 252.922 -79.206 250.096 -81.839 C 248.233 -83.575 248.213 -83.795 249.772 -85.354 C 250.686 -86.269 251.658 -89.001 251.932 -91.426 C 252.603 -97.379 250.353 -96.545 247.125 -89.644 C 245.822 -86.858 244.312 -84.101 243.768 -83.518 C 243.225 -82.934 241.27 -79.566 239.425 -76.034 C 237.579 -72.501 235.749 -69.389 235.358 -69.117 C 234.967 -68.845 233.392 -65.958 231.858 -62.701 C 230.325 -59.444 228.375 -56.03 227.526 -55.114 C 226.677 -54.198 224.915 -50.749 223.611 -47.45 C 222.306 -44.15 220.845 -41.45 220.364 -41.45 C 219.883 -41.45 218.649 -39.49 217.622 -37.094 C 216.596 -34.699 215.166 -32.364 214.446 -31.907 C 213.726 -31.449 211.803 -28.222 210.173 -24.734 C 208.543 -21.246 206.764 -17.891 206.221 -17.278 C 203.98 -14.751 201.774 -9.479 201.774 -6.651 C 201.774 -1.701 204.974 22.242 205.707 22.776 C 206.079 23.048 207.112 29.051 208.001 36.116 C 208.89 43.181 210.372 54.964 211.295 62.3 C 212.218 69.637 213.281 75.862 213.658 76.134 C 214.034 76.406 215.602 86.632 217.142 98.86 C 218.682 111.088 220.24 121.315 220.605 121.586 C 220.97 121.858 221.592 124.707 221.987 127.917 C 222.953 135.771 223.289 136.408 226.462 136.408 C 228.574 136.408 229.482 137.087 230.429 139.372 C 231.104 141.003 232.27 142.337 233.019 142.337 C 233.768 142.337 234.381 142.781 234.381 143.325 C 234.381 143.868 235.262 144.313 236.339 144.313 C 237.563 144.313 238.512 145.173 238.872 146.607 C 239.237 148.062 240.679 149.347 242.811 150.118 C 245.442 151.069 246.396 152.13 247.189 154.987 C 250.046 165.273 246.149 177.83 239.722 179.05 C 238.452 179.291 237.752 180.369 237.569 182.363 C 236.967 188.932 236.477 189.833 233.865 189.178 C 231.008 188.461 230.467 190.65 232.899 193.083 C 234.695 194.879 234.758 196.107 233.18 198.632 C 232.238 200.141 232.238 201.27 233.18 203.876 C 233.841 205.703 234.381 209.278 234.381 211.821 C 234.381 214.364 234.791 216.444 235.291 216.444 C 236.528 216.444 237.575 221.634 237.567 227.722 C 237.563 230.486 238.005 233.59 238.551 234.618 C 239.096 235.647 239.629 240.538 239.735 245.487 C 239.935 254.81 242.027 266.837 243.449 266.837 C 243.896 266.837 244.262 268.789 244.262 271.173 C 244.262 273.558 245.374 279.345 246.733 284.034 C 248.45 289.959 249.203 294.964 249.203 300.448 C 249.203 305.049 249.615 308.338 250.191 308.338 C 250.735 308.338 251.18 309.116 251.18 310.067 C 251.181 311.018 252.293 313.088 253.651 314.667 C 256.539 318.026 256.598 318.59 254.638 324.147 C 253.822 326.458 253.155 329.849 253.155 331.682 C 253.155 334.483 252.8 335.015 250.932 335.009 C 249.378 335.004 248.031 333.814 246.456 331.056 Z M 36.401 188.951 C 66.208 137.75 95.995 86.012 125.459 35.091 C 129.687 30.489 128.556 25.914 126.795 11.982 C 120.07 -25.034 116.124 -62.606 109.842 -99.75 C 108.525 -108.47 103.63 -162.31 98.208 -156.9 C 96.611 -148.51 96.343 -139.65 93.315 -131.86 C 92.851 -131.23 77.613 -130.87 51.089 -130.87 L 9.588 -130.87 L -13.32 -3.902 L 59.487 -3.902 C 57.761 11.475 53.497 26.988 50.594 42.457 C 48.886 49.003 52.973 48.467 13.069 48.467 L -23.257 48.467 C -30.468 90.643 -36.51 133.023 -45.268 174.944 C -46.47 179.608 -48.05 188.613 -47.351 189.312 C -46.58 190.084 35.232 189.731 36.401 188.951 Z M 259.808 -107.9 C 261.241 -109.73 263.05 -115.56 262.186 -115.56 C 261.775 -115.56 260.518 -113.56 259.393 -111.11 C 257.462 -106.91 257.685 -105.19 259.808 -107.9 Z M 428.42 -223.06 C 428.688 -223.5 428.537 -224.45 428.084 -225.18 C 426.972 -226.98 423.965 -225.74 424.713 -223.79 C 425.331 -222.18 427.601 -221.74 428.42 -223.06 Z M 418.768 -233.72 C 418.438 -234.58 418.168 -235.69 418.168 -236.19 C 418.168 -236.69 417.501 -237.09 416.686 -237.09 C 414.882 -237.09 414.77 -235.53 416.439 -233.63 C 418.108 -231.74 419.508 -231.79 418.768 -233.72 Z M 433.478 -261.55 C 433.086 -262.5 432.55 -264.03 432.286 -264.94 C 431.65 -267.14 429.038 -268.12 429.038 -266.15 C 429.038 -264.39 432.106 -259.9 433.343 -259.85 C 433.808 -259.83 433.869 -260.6 433.478 -261.55 Z M 428.407 -270.2 C 428.753 -271.1 428.408 -271.68 427.524 -271.68 C 426.726 -271.68 426.073 -271.01 426.073 -270.2 C 426.073 -269.38 426.47 -268.71 426.956 -268.71 C 427.441 -268.71 428.094 -269.38 428.407 -270.2 Z M 619.988 306.695 C 619.309 306.421 618.753 305.131 618.753 303.828 C 618.753 302.139 619.447 301.285 621.167 300.853 C 624.098 300.117 625.67 300.957 625.67 303.258 C 625.67 306.38 623.084 307.944 619.988 306.695 Z M 895.837 306.444 C 895.608 306.217 895.422 305.217 895.422 304.221 C 895.422 302.969 894.691 302.409 893.059 302.409 C 891.092 302.409 890.629 301.827 890.29 298.921 C 890.066 297.002 890.091 295.223 890.347 294.968 C 890.602 294.713 892.737 294.504 895.092 294.504 C 898.24 294.504 899.374 294.897 899.374 295.986 C 899.374 296.802 900.029 297.469 900.831 297.469 C 902.814 297.469 905.327 302.598 904.636 305.237 C 904.164 307.043 903.461 307.339 900.164 307.118 C 898.013 306.974 896.066 306.67 895.837 306.444 Z M 884.774 303.385 C 883.148 300.781 883.251 299.445 885.078 299.445 C 886.989 299.445 887.945 301.819 886.833 303.806 C 886.1 305.117 885.82 305.059 884.774 303.385 Z M 457.692 294.22 C 453.624 292.172 453.687 282.647 457.77 282.647 C 458.878 282.647 459.511 282.202 459.175 281.659 C 458.839 281.116 459.035 280.671 459.61 280.671 C 460.186 280.671 460.657 281.116 460.657 281.659 C 460.657 282.202 461.922 282.647 463.468 282.647 C 469.055 282.647 471.225 288.156 467.502 292.889 C 465.232 295.774 461.725 296.25 457.692 294.22 Z M 899.127 290.824 C 897.614 290.6 896.41 289.793 896.41 289.004 C 896.41 288.225 895.743 287.588 894.927 287.588 C 894.112 287.588 893.445 287.096 893.445 286.495 C 893.445 285.894 892.334 284.527 890.975 283.459 C 888.159 281.244 887.845 279.214 889.985 277.073 C 892.316 274.742 895.728 275.82 897.398 279.414 C 898.279 281.311 899.624 282.613 900.715 282.626 C 901.936 282.64 902.359 283.143 901.981 284.129 C 901.628 285.05 901.987 285.611 902.929 285.611 C 903.992 285.611 904.352 286.401 904.133 288.252 C 903.792 291.132 903.209 291.431 899.127 290.824 Z M 466.341 279.93 C 466.143 279.522 465.867 277.803 465.728 276.109 C 465.449 272.701 467.286 271.619 471.866 272.495 C 473.652 272.836 474.559 273.795 475.002 275.811 C 475.344 277.37 475.343 279.102 474.999 279.659 C 474.283 280.818 466.887 281.05 466.341 279.93 Z M 650.252 276.467 C 648.827 275.901 646.917 274.178 646.007 272.638 C 644.576 270.214 644.521 269.271 645.598 265.621 C 647.246 260.037 648.652 258.772 653.87 258.184 C 657.303 257.797 658.375 258.037 658.859 259.3 C 659.199 260.185 660.096 260.909 660.853 260.909 C 661.61 260.909 663.1 261.779 664.164 262.843 C 666.428 265.108 666.193 270.58 663.755 272.363 C 662.916 272.976 662.23 273.825 662.23 274.248 C 662.23 277.192 655.304 278.474 650.252 276.467 Z M 916.172 273.754 C 915.053 271.664 916.333 267.826 918.148 267.826 C 919.828 267.826 921.349 271.784 920.201 273.167 C 919.625 273.862 919.446 274.723 919.803 275.08 C 920.161 275.438 919.728 275.73 918.841 275.73 C 917.955 275.73 916.753 274.841 916.172 273.754 Z M -297.61 -183.98 C -297.12 -185.59 -294.25 -185.71 -255.58 -185.71 C -238.19 -185.4 -220.62 -186.58 -203.53 -182.89 C -139.93 -170.51 -118.99 -115.07 -104.53 -54.357 C -103.73 -49.951 -108.7 -53.405 -103.41 -46.391 C -84.869 106.701 -159.73 238.107 -286.46 242.212 C -288.43 242.713 -308.82 243.123 -331.78 243.123 L -373.53 243.123 C -347.97 100.816 -322.88 -41.61 -297.61 -183.98 Z M -239.34 -117.65 L -291.5 176.195 C -196.91 240.56 -114.66 -129.39 -239.34 -117.65 Z M 362.355 235.501 C 360.034 234.889 356.906 231.52 356.906 229.632 C 356.906 228.9 356.017 228.301 354.93 228.301 C 352.734 228.301 352.27 226.809 354.189 225.914 C 355.177 225.452 355.177 225.222 354.189 224.761 C 350.749 223.155 355.981 213.48 360.289 213.48 C 363.269 213.48 365.93 211.431 367.343 208.049 C 368.646 204.932 373.271 201.623 376.326 201.623 C 377.058 201.623 377.656 201.138 377.656 200.546 C 377.656 198.834 381.892 195.763 384.303 195.727 C 385.534 195.709 387.216 194.606 388.122 193.224 C 389.031 191.836 390.687 190.754 391.9 190.754 C 393.087 190.754 394.481 190.363 394.997 189.885 C 395.514 189.408 397.609 188.72 399.654 188.356 C 402.521 187.846 403.507 188.044 403.957 189.219 C 404.279 190.057 404.94 190.496 405.427 190.196 C 405.913 189.895 406.311 190.75 406.311 192.095 C 406.311 195.14 405.171 195.565 398.683 194.936 C 393.573 194.44 393.484 194.479 389.049 199.174 C 386.587 201.781 384.573 204.287 384.573 204.744 C 384.573 205.201 383.998 205.575 383.296 205.575 C 382.593 205.575 381.482 207.582 380.825 210.036 C 379.418 215.299 379.296 218.42 380.497 218.42 C 380.973 218.42 381.638 219.8 381.975 221.487 C 383.105 227.139 376.915 235.208 371.43 235.232 C 369.691 235.239 367.38 235.419 366.293 235.632 C 365.206 235.845 363.434 235.786 362.355 235.501 Z M 868.965 182.293 C 868.49 181.443 867.296 180.63 866.313 180.486 C 861.887 179.837 857.667 172.519 858.675 167.244 C 858.913 165.998 860.654 163.387 862.543 161.442 C 865.771 158.118 866.252 157.942 870.532 158.529 C 873.036 158.872 875.526 159.594 876.064 160.132 C 876.602 160.67 878.066 161.111 879.316 161.111 C 880.566 161.111 881.588 161.615 881.588 162.231 C 881.588 162.847 882.662 164.292 883.975 165.442 C 887.437 168.475 887.833 175.385 884.603 176.41 C 883.544 176.746 882.368 177.997 881.989 179.19 C 880.965 182.416 878.614 183.77 873.979 183.805 C 871.218 183.826 869.54 183.32 868.965 182.293 Z M 842.064 90.261 C 841.249 89.94 840.226 89.076 839.792 88.34 C 839.357 87.605 838.404 87.003 837.674 87.003 C 835.165 87.003 834.159 80.482 836.333 78.308 C 837.255 77.385 836.915 77.122 834.804 77.122 C 832.252 77.122 827.243 73.098 827.243 71.049 C 827.243 70.585 826.623 70.205 825.866 70.205 C 824.017 70.205 823.287 68 823.305 62.467 C 823.316 59.124 823.584 58.262 824.278 59.336 C 824.986 60.431 825.24 60.477 825.251 59.512 C 825.272 57.744 827.748 55.384 829.584 55.384 C 830.406 55.384 831.353 54.939 831.689 54.396 C 832.507 53.071 836.131 53.15 841.591 54.61 C 844.918 55.5 846.234 56.399 846.653 58.068 C 846.981 59.378 847.969 60.324 849.007 60.324 C 849.991 60.324 851.495 60.593 852.35 60.921 C 854.126 61.602 855.79 58.529 854.198 57.507 C 853.649 57.154 852.902 55.912 852.539 54.747 C 851.75 52.217 854.681 45.503 856.575 45.503 C 857.289 45.503 857.874 45.026 857.874 44.444 C 857.874 42.744 860.534 40.562 862.607 40.562 C 864.092 40.562 864.415 40.033 864.061 38.181 C 863.811 36.872 862.761 35.58 861.728 35.31 C 858.972 34.589 859.041 26.419 861.82 24.473 C 862.903 23.714 863.496 22.799 863.137 22.441 C 862.778 22.082 863.004 21.788 863.638 21.788 C 865.404 21.788 865.007 19.059 863.061 17.828 C 861.823 17.044 861.683 16.586 862.567 16.214 C 863.246 15.928 863.802 15.228 863.802 14.657 C 863.802 12.903 869.107 8.945 871.46 8.944 C 873.085 8.943 873.683 8.364 873.683 6.79 C 873.683 3.413 875.923 -1.926 877.34 -1.926 C 878.046 -1.926 878.624 -2.371 878.624 -2.914 C 878.624 -3.464 881.273 -3.902 884.594 -3.902 C 891.434 -3.902 893.492 -2.549 895.334 3.162 C 896.834 7.812 895.81 11.809 892.826 12.943 C 891.536 13.433 890.481 14.512 890.481 15.341 C 890.481 17.051 890.491 17.05 884.799 15.949 C 881.011 15.216 880.6 15.326 880.6 17.073 C 880.6 18.138 881.414 19.222 882.41 19.482 C 883.405 19.742 884.85 20.854 885.621 21.952 C 886.392 23.05 887.774 24.833 888.691 25.914 C 889.609 26.995 890.665 29.288 891.039 31.009 C 891.412 32.731 892.217 34.507 892.828 34.956 C 893.636 35.549 893.602 35.909 892.704 36.273 C 892.025 36.549 891.469 37.379 891.469 38.118 C 891.469 40.28 887.372 42.538 883.45 42.538 C 881.138 42.538 879.617 43.075 879.255 44.02 C 878.942 44.836 879.045 45.503 879.484 45.503 C 880.468 45.503 882.576 49.98 882.576 52.069 C 882.576 56.148 879.238 60.496 874.527 62.553 C 871.889 63.704 869.731 65.008 869.731 65.45 C 869.731 65.891 869.038 66.253 868.19 66.253 C 867.343 66.253 866.925 66.697 867.261 67.241 C 867.597 67.784 867.178 68.229 866.331 68.229 C 865.441 68.229 864.79 69.077 864.79 70.236 C 864.79 71.34 864.123 72.499 863.308 72.812 C 862.493 73.125 861.826 74.159 861.826 75.111 C 861.826 76.347 860.627 77.097 857.627 77.738 C 853.689 78.578 853.421 78.849 853.332 82.077 C 853.186 87.404 851.978 89.966 849.607 89.981 C 848.447 89.988 846.609 90.186 845.522 90.42 C 844.436 90.654 842.879 90.583 842.064 90.261 Z M 953.393 38.76 C 950.143 38.387 944.891 33.104 944.871 30.187 C 944.864 29.1 946.132 26.766 947.69 25 C 950.049 22.324 951.223 21.788 954.722 21.788 C 957.792 21.788 959.419 22.361 960.767 23.916 C 963.819 27.434 962.982 32.077 959.165 32.801 C 958.085 33.006 957.052 33.947 956.87 34.892 C 956.625 36.164 957.198 36.61 959.082 36.61 C 960.48 36.61 961.624 37.004 961.624 37.486 C 961.624 38.534 957.284 39.205 953.393 38.76 Z M 844.09 31.235 C 843.441 30.453 843.053 28.563 843.228 27.035 C 843.503 24.638 844.028 24.218 847.071 23.963 C 850.051 23.712 850.776 24.064 851.769 26.242 C 853.396 29.812 851.759 32.657 848.079 32.657 C 846.534 32.657 844.739 32.017 844.09 31.235 Z M 897.004 26.891 C 896.723 26.437 896.838 24.769 897.259 23.186 C 898.349 19.086 901.679 18.799 903.281 22.666 C 903.954 24.292 904.213 26.093 903.857 26.669 C 903.091 27.908 897.74 28.082 897.004 26.891 Z M 265.26 20.146 C 263.872 19.586 263.538 12.895 264.897 12.895 C 265.657 12.895 266.388 11.266 266.796 8.661 C 266.952 7.666 269.614 4.99 270.447 4.99 C 271.966 4.99 273.656 2.178 274.321 -1.457 C 275.189 -6.198 277.376 -9.831 279.363 -9.831 C 280.502 -9.831 280.822 -8.406 280.822 -3.338 C 280.822 3.553 279.618 5.936 276.283 5.648 C 274.909 5.529 274.315 6.224 274.085 8.219 C 273.912 9.722 273.357 10.696 272.85 10.383 C 272.344 10.07 271.929 11.146 271.929 12.773 C 271.929 19.193 269.515 21.863 265.26 20.146 Z M 934.946 9.931 C 934.946 9.387 934.056 8.943 932.969 8.943 C 931.872 8.943 930.993 8.284 930.993 7.461 C 930.993 6.646 930.395 5.979 929.664 5.979 C 927.568 5.979 924.965 2.505 924.062 -1.496 C 923.37 -4.564 923.632 -5.791 925.667 -9.015 C 927.005 -11.134 928.443 -12.656 928.862 -12.397 C 929.282 -12.138 930.44 -13.011 931.436 -14.337 C 933.047 -16.482 933.992 -16.748 940.025 -16.748 C 944.186 -16.748 946.803 -16.339 946.803 -15.689 C 946.803 -14.581 949.311 -11.711 950.226 -11.772 C 952.83 -11.946 953.673 -11.536 954.214 -9.831 C 954.604 -8.601 955.709 -7.855 957.139 -7.855 C 959.478 -7.855 960.636 -6.206 960.636 -2.874 C 960.636 -0.56 956.241 3.746 951.99 5.596 C 950.224 6.364 948.779 7.432 948.779 7.968 C 948.779 8.504 947.027 8.943 944.885 8.943 C 942.743 8.943 940.716 9.387 940.38 9.931 C 940.044 10.474 938.684 10.919 937.358 10.919 C 936.031 10.919 934.946 10.474 934.946 9.931 Z M 233.394 -15.265 C 232.414 -16.446 232.414 -17.347 233.393 -19.711 C 234.068 -21.342 234.93 -22.676 235.306 -22.676 C 236.327 -22.676 239.322 -29.36 239.322 -31.638 C 239.322 -34.154 242.221 -38.643 243.382 -37.925 C 243.866 -37.626 244.262 -37.883 244.262 -38.496 C 244.262 -39.11 245.263 -39.47 246.486 -39.296 C 248.039 -39.075 248.644 -38.385 248.493 -37.004 C 247.901 -31.592 246.805 -28.438 244.741 -26.212 C 243.493 -24.865 241.951 -22.185 241.314 -20.256 C 240.678 -18.326 239.747 -16.748 239.245 -16.748 C 238.744 -16.748 238.334 -16.081 238.334 -15.266 C 238.334 -13.46 237.204 -13.364 235.422 -15.019 C 234.358 -16.007 234.231 -16.007 234.789 -15.019 C 235.751 -13.314 234.886 -13.467 233.394 -15.265 Z M 422.752 -15.266 C 422.439 -16.081 421.28 -16.748 420.176 -16.748 C 419.072 -16.748 418.168 -17.192 418.168 -17.736 C 418.168 -18.279 417.025 -18.724 415.628 -18.724 C 413.07 -18.724 410.264 -20.712 410.264 -22.523 C 410.264 -23.06 409.852 -23.648 409.35 -23.829 C 408.847 -24.01 408.291 -24.811 408.114 -25.609 C 407.871 -26.711 408.626 -26.988 411.252 -26.761 C 413.154 -26.597 415.132 -26.055 415.649 -25.557 C 416.165 -25.06 417.526 -24.653 418.674 -24.653 C 419.821 -24.653 421.666 -23.809 422.772 -22.778 C 423.879 -21.747 425.631 -20.743 426.664 -20.546 C 427.966 -20.3 428.639 -19.205 428.853 -16.987 C 429.139 -14.027 428.941 -13.783 426.242 -13.783 C 424.556 -13.783 423.08 -14.411 422.752 -15.266 Z M 657.289 -134.65 C 657.289 -136.87 659.869 -138.46 662.911 -138.11 C 664.923 -137.88 665.688 -137.25 665.688 -135.81 C 665.688 -134.2 664.928 -133.78 661.488 -133.53 C 658.358 -133.31 657.289 -133.59 657.289 -134.65 Z M 437.93 -289.96 C 437.303 -291.86 436.157 -293.42 435.384 -293.42 C 433.561 -293.42 433.404 -301.91 435.213 -302.65 C 437.102 -303.41 434.182 -305.16 429.779 -305.89 C 426.481 -306.45 426.073 -306.83 426.073 -309.41 C 426.073 -311.09 426.488 -312.05 427.061 -311.7 C 427.628 -311.35 428.049 -312.24 428.049 -313.78 C 428.049 -315.26 428.54 -319.29 429.139 -322.73 L 430.228 -328.99 L 439.127 -328.99 C 447.857 -328.99 448.015 -328.95 447.483 -326.76 C 447.184 -325.54 445.951 -317.54 444.743 -308.98 C 443.534 -300.42 442.174 -293.42 441.72 -293.42 C 441.266 -293.42 440.895 -291.86 440.895 -289.96 C 440.895 -288.06 440.485 -286.5 439.983 -286.5 C 439.482 -286.5 438.558 -288.06 437.93 -289.96 Z" id="path2384" style="fill-opacity: 1; fill: rgb(255, 255, 255);"/>
  </g>
</svg>